<svg id="图层_1" data-name="图层 1" xmlns="http://www.w3.org/2000/svg" viewBox="0 0 569.59 551.02"><defs><style>.cls-1{fill:#373838;}</style></defs><title>参与评论</title><path class="cls-1" d="M1025.54,1234.68a3.47,3.47,0,0,0-.87,1.57L996,1341.36a17.66,17.66,0,0,0,17.17,22.49,17.41,17.41,0,0,0,4.71-.61l104.32-28.41c.18,0,.26.18.35.18a4.46,4.46,0,0,0,3.23-1.32l279-278.9a44.65,44.65,0,0,0,12.82-31.91,54.39,54.39,0,0,0-16.3-38.17L1375,958.3c-10.38-10.37-24.32-16.3-38.18-16.3a44.64,44.64,0,0,0-31.9,12.82l-278.91,279c-.26.18-.17.61-.44.87Zm352-207.35-27.71,27.72-44.89-45.67,27.28-27.29c4.36-4.35,12.72-3.75,17.61,1.31l26.41,26.41a14.27,14.27,0,0,1,4.35,10,10.23,10.23,0,0,1-3,7.5Zm-302.35,211.8,201.33-201.34,45,45.67-201,200.9-45.32-45.23m-36.61,81.58,14.56-53.43,38.78,38.79-53.34,14.64m356.65-182.86a19.33,19.33,0,0,0-19.26,19.26v260.08a24.8,24.8,0,0,1-24.75,24.76H911.28a24.8,24.8,0,0,1-24.76-24.76V992.73A24.8,24.8,0,0,1,911.28,968h283.35a19.26,19.26,0,0,0,0-38.52H908.32A60.4,60.4,0,0,0,848,989.77v430.3a60.35,60.35,0,0,0,60.32,60.4h445.82a60.33,60.33,0,0,0,60.31-60.31V1157a19.37,19.37,0,0,0-19.27-19.17Zm0,0" transform="translate(-848 -929.45)"/></svg>