<svg id="图层_1" data-name="图层 1" xmlns="http://www.w3.org/2000/svg" xmlns:xlink="http://www.w3.org/1999/xlink" viewBox="0 0 471.84 471.84"><defs><style>.cls-1,.cls-2{fill:none;}.cls-2{stroke:#64a0d7;stroke-miterlimit:10;stroke-width:5px;}.cls-3{clip-path:url(#clip-path);}.cls-4{fill:#64a0d7;}</style><clipPath id="clip-path" transform="translate(-10.44 -14.75)"><rect class="cls-1" x="92.96" y="121" width="306.8" height="233.76"/></clipPath></defs><title>支付宝</title><circle class="cls-2" cx="235.92" cy="235.92" r="233.42"/><g class="cls-3"><path class="cls-4" d="M265.66,249.43c-2.4,6.38-5.94,6.77-11.76,4.62-29.88-11-60.54-18.38-92.63-17.89-10.57.16-21,1.38-30.83,5.85-22.27,7.62-36.76,27.87-37.46,52.36-.65,23.05,13,42.74,36.13,52.08l.61.16a4.75,4.75,0,0,0,4.58,1.89l2.15.6a6.45,6.45,0,0,0,5.44,1.72c35.77,8.48,68.36,1.23,97.92-20.18a151.52,151.52,0,0,0,28.42-27c3.88-4.74,6.93-5.6,12.81-2.93q58,26.35,116.52,51.66c.82.36,1.56.72,2.22,1.09V301.07a23.86,23.86,0,0,1-3.43-.9C365.74,290,335,280.43,304.09,271.06c-7.4-2.24-9.89-4-5.23-12,9.34-16,15.27-33.68,20.62-51.46,2-6.67,2-10.49-7.16-10.09-16.92.72-33.9-.07-50.84.29-6.16.13-8.24-1.52-8.16-8,.2-15.4-.15-15.4,15-15.4,20.47,0,40.94-.1,61.4.07,5.15,0,8.2-.39,8.2-7s-3.33-7.06-8.34-7c-22.7.11-45.41-.11-68.11.17-6.13.07-8.58-1.55-8.06-8.09.61-7.63-.2-15.36.23-23,.31-5.62-1.21-7.86-7.29-8-31.16-.95-31.41-1.1-31.39,30.26,0,7.61-2.79,9-9.55,8.87-20.46-.36-40.93,0-61.4-.14-5.05,0-8.21.46-8.15,7.13s3.22,7,8.31,6.94c19.51-.18,39-.16,58.53-.06,13,.07,11.41-2.23,12.23,12.46.49,9-2.27,11.45-11.17,11-15-.8-30.05-.1-45.08-.2-4.85,0-8.61-.09-8.61,6.77,0,7.13,4.22,6.46,8.81,6.45,37.42-.05,74.83.17,112.25-.23,8.37-.09,9.93,2.26,6.68,9.56-4.27,9.62-8.41,19.31-12.11,29.16ZM239.9,289.67c-24.74,28.81-54,47.59-94.11,41.64a11.18,11.18,0,0,0-2.79.27c-3.8-1.54-7.61-3.05-11.39-4.63-23.37-9.74-31.25-34.76-16.45-52.65,2.79-3.38,6.45-6,9.7-9l5.51-3,2.9-1.1.55.2.43-.38,1.89-.52c36.86-5.68,70.55,5.06,103.48,19.91,6.89,3.11,2.81,6.31.28,9.26Zm0,0" transform="translate(-10.44 -14.75)"/></g></svg>