<svg id="图层_1" data-name="图层 1" xmlns="http://www.w3.org/2000/svg" xmlns:xlink="http://www.w3.org/1999/xlink" viewBox="0 0 199.73 210.1"><defs><style>.cls-1{fill:none;}.cls-2{fill:#d6eff9;}.cls-3{clip-path:url(#clip-path);}.cls-4{fill:#d5ffc5;}.cls-5{fill:#fff;}.cls-6{fill:#ffe7d2;}.cls-7{fill:#f9dcbb;}.cls-8{clip-path:url(#clip-path-2);}.cls-10,.cls-9{fill:#cfd6d9;}.cls-10,.cls-11{opacity:0.5;}.cls-12{clip-path:url(#clip-path-4);}.cls-13{fill:#d3b390;}.cls-14{clip-path:url(#clip-path-5);}.cls-15{clip-path:url(#clip-path-6);}.cls-16,.cls-30{fill:#ddc6b1;}.cls-16,.cls-29{opacity:0.69;}.cls-17{fill:#ffebd7;}.cls-18{opacity:0.7;}.cls-19{clip-path:url(#clip-path-7);}.cls-20{fill:#4a4642;}.cls-21{clip-path:url(#clip-path-9);}.cls-22{fill:#346991;}.cls-23{fill:#103851;}.cls-24{fill:#143f54;}.cls-25{fill:#71b1d1;}.cls-26{fill:#d6d6d6;}.cls-27,.cls-28{fill:#499dbf;}.cls-28{opacity:0.8;}</style><clipPath id="clip-path" transform="translate(-321.8 -223.14)"><ellipse class="cls-1" cx="421.39" cy="323.18" rx="99.86" ry="99.96"/></clipPath><clipPath id="clip-path-2" transform="translate(-321.8 -223.14)"><ellipse class="cls-1" cx="419.77" cy="377.86" rx="31.88" ry="19.95"/></clipPath><clipPath id="clip-path-4" transform="translate(-321.8 -223.14)"><path class="cls-1" d="M370.66,298.56s-6.82-1.19-9.49,4.15-2.09,11.57,2.2,18.55,13.49,6.4,13.49,6.4Z"/></clipPath><clipPath id="clip-path-5" transform="translate(-321.8 -223.14)"><path class="cls-1" d="M469.37,297.62s6.82-1.19,9.49,4.15,2.09,11.57-2.2,18.55-13.49,6.4-13.49,6.4Z"/></clipPath><clipPath id="clip-path-6" transform="translate(-321.8 -223.14)"><path class="cls-1" d="M389.29,372s8.91,16.43,31.41,16.43S450.24,372,450.24,372l-5.16-14.55H394.45Z"/></clipPath><clipPath id="clip-path-7" transform="translate(-321.8 -223.14)"><path class="cls-1" d="M469.56,293.85c1.09,40.62-20.33,74.15-47.83,74.89s-50.68-31.6-51.76-72.22,20.36-55.7,47.86-56.43S468.48,253.23,469.56,293.85Z"/></clipPath><clipPath id="clip-path-9" transform="translate(-321.8 -223.14)"><ellipse class="cls-1" cx="421.66" cy="323.1" rx="99.86" ry="99.96"/></clipPath></defs><title>作者头像</title><ellipse class="cls-2" cx="99.86" cy="99.96" rx="99.86" ry="99.96"/><g class="cls-3"><polygon class="cls-4" points="17.07 161.99 67.71 146.5 127.72 146.03 181.87 156.35 174.6 184.04 159.13 196.25 129.13 201.88 107.56 203.75 70.52 203.75 45.2 198.12 20.36 175.6 17.07 161.99"/></g><ellipse class="cls-5" cx="98.18" cy="154.71" rx="31.88" ry="19.95"/><path class="cls-6" d="M389.51,372s8.91,16.43,31.41,16.43S450.46,372,450.46,372l-5.16-14.55H394.67Z" transform="translate(-321.8 -223.14)"/><path class="cls-7" d="M469.37,297.62s6.82-1.19,9.49,4.15,2.09,11.57-2.2,18.55-13.49,6.4-13.49,6.4Z" transform="translate(-321.8 -223.14)"/><path class="cls-7" d="M370.66,298.56s-6.82-1.19-9.49,4.15-2.09,11.57,2.2,18.55,13.49,6.4,13.49,6.4Z" transform="translate(-321.8 -223.14)"/><g class="cls-8"><polygon class="cls-9" points="86.46 163.32 84.42 172.71 67.49 166.41 62.71 154.95 64.23 150.45 67.49 148.85 83.61 159.52 86.46 163.32"/></g><g class="cls-3"><polygon class="cls-10" points="84.42 172.71 62.6 210.1 13.21 169.74 19.46 165.52 68.54 146.5 84.42 172.71"/></g><g class="cls-11"><g class="cls-12"><path class="cls-13" d="M376.42,326s-12.23,2.82-17.78-20.88l-1.33,9,6.41,10.52,5.2,3,4.53.48h3.41Z" transform="translate(-321.8 -223.14)"/></g></g><g class="cls-14"><path class="cls-13" d="M462.35,326.19s16.29,1,17.78-20.88l1.33,9-6.41,10.52-5.2,3-4.53.48h-3.41Z" transform="translate(-321.8 -223.14)"/></g><g class="cls-15"><path class="cls-16" d="M433,366.36a48.9,48.9,0,0,1-24.7,9.39s1.14,7.9,0,10.72c-2.81,7-22.5-8.61-22.5-8.61l8.91-20.41,32.82,5.16Z" transform="translate(-321.8 -223.14)"/></g><path class="cls-17" d="M469.56,293.85c1.09,40.62-20.33,74.15-47.83,74.89s-50.68-31.6-51.76-72.22,20.36-55.7,47.86-56.43S468.48,253.23,469.56,293.85Z" transform="translate(-321.8 -223.14)"/><g class="cls-18"><g class="cls-19"><path class="cls-16" d="M378.74,294s-1,40,14.18,55.43l.28.26c1.35,1.15,12,10.55,11.4,19.62-.49,7.73-41-25.8-50.41-33.73a4.12,4.12,0,0,1-1.35-4.13l8.35-34.32a4.11,4.11,0,0,1,4-3.14Z" transform="translate(-321.8 -223.14)"/></g></g><g class="cls-19"><path class="cls-20" d="M436.39,271.09c-15,0-60.55,26.72-66.35,27.41s2.12-46.18,2.12-46.18l28.6-16.89,49.7,4.69,16.41,23.46,10.78,25.81-8,7.51S452.33,281.42,436.39,271.09Z" transform="translate(-321.8 -223.14)"/></g><path class="cls-13" d="M472.14,305.83s-.32-1.52,1-1.06,4,2.83,3.06,7.81a10.86,10.86,0,0,1-3.79,6.64,1.59,1.59,0,0,1-.89.33,2,2,0,0,1-1.31-.31c-.68-.51-.62-2.8-.62-2.8a5.68,5.68,0,0,1,1.49-4.09l.1-.11a6.57,6.57,0,0,0,1.54-2.56C473.11,308.33,472.14,305.83,472.14,305.83Z" transform="translate(-321.8 -223.14)"/><path class="cls-13" d="M367.39,305.83s.32-1.52-1-1.06-4,2.83-3.06,7.81a10.86,10.86,0,0,0,3.79,6.64,1.59,1.59,0,0,0,.89.33,2,2,0,0,0,1.31-.31c.68-.51.62-2.8.62-2.8a5.68,5.68,0,0,0-1.49-4.09l-.1-.11a6.57,6.57,0,0,1-1.54-2.56C366.43,308.33,367.39,305.83,367.39,305.83Z" transform="translate(-321.8 -223.14)"/><g class="cls-21"><path class="cls-22" d="M359.86,345.23h5.46a4.32,4.32,0,0,1,4.32,4.32v35.36a0,0,0,0,1,0,0h-14.1a0,0,0,0,1,0,0V349.55A4.32,4.32,0,0,1,359.86,345.23Z" transform="translate(-433.26 -58.13) rotate(-22.32)"/><rect class="cls-23" x="363.39" y="383.36" width="14.1" height="1.65" transform="translate(-439.94 -53.71) rotate(-22.32)"/><rect class="cls-24" x="359.13" y="350.18" width="3.38" height="21.18" rx="1.04" ry="1.04" transform="translate(-431.76 -59.12) rotate(-22.32)"/><path class="cls-25" d="M378.6,404.53h4.69a.21.21,0,0,1,.21.21v8.77a1.57,1.57,0,0,1-1.57,1.57h-2a1.57,1.57,0,0,1-1.57-1.57v-8.77a.21.21,0,0,1,.21-.21Z" transform="translate(-448.88 -47.8) rotate(-22.32)"/><circle class="cls-22" cx="364.15" cy="368.88" r="1.09" transform="translate(-434.59 -57.25) rotate(-22.32)"/><path class="cls-25" d="M370.41,383.88h11.21a0,0,0,0,1,0,0V408a3.68,3.68,0,0,1-3.68,3.68h-4.34a3.19,3.19,0,0,1-3.19-3.19V383.88a0,0,0,0,1,0,0Z" transform="translate(-444.68 -50.58) rotate(-22.32)"/><path class="cls-26" d="M382.77,414.31h.81a0,0,0,0,1,0,0v1.56a.25.25,0,0,1-.25.25H383a.25.25,0,0,1-.25-.25v-1.56A0,0,0,0,1,382.77,414.31Z" transform="translate(-450.76 -46.56) rotate(-22.32)"/><path class="cls-27" d="M370.75,385l10.56,25.73,1.27-.52a4.24,4.24,0,0,0,2.31-5.52l-9-21.82Z" transform="translate(-321.8 -223.14)"/><path class="cls-28" d="M382.9,408.74l-2,.84,2.1,5.11a2.57,2.57,0,0,0,1.4-3.34l-1-2.42A.35.35,0,0,0,382.9,408.74Z" transform="translate(-321.8 -223.14)"/><rect class="cls-6" x="351.54" y="374.72" width="26.78" height="34.56" rx="13.39" ry="13.39" transform="translate(-443.31 -55.22) rotate(-22.32)"/><g class="cls-29"><path class="cls-30" d="M356.57,399.63l-3-7.2a13.44,13.44,0,0,1,6.05-16.88,13.39,13.39,0,0,0-1.3.46h0a13.43,13.43,0,0,0-7.3,17.47l3,7.2a13.38,13.38,0,0,0,18.72,6.71A13.44,13.44,0,0,1,356.57,399.63Z" transform="translate(-321.8 -223.14)"/></g></g></svg>