<?xml version="1.0" encoding="utf-8"?>
<!-- Generator: Adobe Illustrator 22.0.0, SVG Export Plug-In . SVG Version: 6.00 Build 0)  -->
<svg version="1.1" id="图层_1" xmlns="http://www.w3.org/2000/svg" xmlns:xlink="http://www.w3.org/1999/xlink" x="0px" y="0px"
	 viewBox="0 0 814.9 642.4" style="enable-background:new 0 0 814.9 642.4;" xml:space="preserve">
<style type="text/css">
	.st0{clip-path:url(#SVGID_2_);}
	.st1{fill:#FFFFFF;}
</style>
<title>微博</title>
<g>
	<defs>
		<rect id="SVGID_1_" y="-0.6" width="814.8" height="643.9"/>
	</defs>
	<clipPath id="SVGID_2_">
		<use xlink:href="#SVGID_1_"  style="overflow:visible;"/>
	</clipPath>
	<g class="st0">
		<path class="st1" d="M603.5,312.7c-31.7-6.1-16.3-22.8-16.3-22.8s31-50.5-6.2-87.2c-46-45.4-157.9,5.7-157.9,5.7
			c-42.7,13-31.4-6-25.3-38.4c0-38.2-13.2-102.8-127.1-64.7c-113.7,38.5-211.4,173-211.4,173C-8.6,367.6,0.4,436.7,0.4,436.7
			c16.9,152.6,181.2,194.5,309,204.4c134.4,10.3,315.9-45.7,370.8-161S635.3,319,603.5,312.7L603.5,312.7z M319.3,598.2
			c-133.4,6.1-241.4-59.8-241.4-147.7s108-158.4,241.4-164.6c133.6-6.1,241.7,48.3,241.7,136S452.9,592.2,319.3,598.2L319.3,598.2z
			 M292.7,343.7C158.5,359.2,174,483.3,174,483.3s-1.4,39.3,36,59.3c78.5,42,159.5,16.6,200.2-35.5S427.2,328.4,292.7,343.7
			L292.7,343.7z M258.9,518c-25.1,2.9-45.3-11.4-45.3-32.1s17.9-42.2,43-44.7c28.8-2.7,47.5,13.6,47.5,34.4
			C304.2,496.1,283.8,515.1,258.9,518L258.9,518z M338,451.5c-8.5,6.3-19,5.4-23.4-2.2c-4.7-7.3-2.9-19,5.7-25.2
			c9.9-7.3,20.2-5.2,24.8,2.2S346.3,444.9,338,451.5L338,451.5z M669,259c10.7,0,19.8-7.7,21.6-18.2c0.2-0.8,0.2-1.5,0.3-2.3
			c16.4-145.4-120.8-120.4-120.8-120.4c-12,0-21.8,9.7-21.8,21.8s9.7,21.8,21.8,21.8c98.5-21.5,76.8,75.8,76.8,75.8
			C646.8,249.4,656.8,259,669,259L669,259z M653,5.2c-47.4-11-96.3-1.5-109.9,1.1c-1.1,0.1-2.1,1.1-3,1.2c-0.3,0.1-0.6,0.3-0.8,0.5
			c-16.9,4.6-26.8,22-22.2,38.9c3.8,13.9,16.5,23.5,30.9,23.3c0,0,17.2-2.3,28.9-6.8s109.9-3.4,158.6,77.4
			c26.6,59,11.7,98.5,9.8,104.9c0,0-6.3,15.4-6.3,30.5c0,17.4,14.2,28.4,31.9,28.4c14.7,0,27.1-2,30.7-26.7h0.1
			C854.4,105.6,737.9,24.6,653,5.2L653,5.2z"/>
	</g>
</g>
</svg>
