<svg id="图层_1" data-name="图层 1" xmlns="http://www.w3.org/2000/svg" xmlns:xlink="http://www.w3.org/1999/xlink" viewBox="0 0 814.86 642.39"><defs><style>.cls-1{fill:none;}.cls-2{clip-path:url(#clip-path);}.cls-3{fill:#999899;}</style><clipPath id="clip-path" transform="translate(-726 -884.02)"><rect class="cls-1" x="726" y="883.45" width="814.8" height="643.92"/></clipPath></defs><title>微博</title><g class="cls-2"><path class="cls-3" d="M1329.54,1196.74c-31.67-6.13-16.25-22.85-16.25-22.85s31-50.46-6.2-87.19c-46-45.42-157.94,5.72-157.94,5.72-42.7,13-31.4-6-25.35-38.36,0-38.21-13.21-102.82-127.1-64.74-113.74,38.49-211.38,173-211.38,173-67.88,89.35-58.93,158.44-58.93,158.44,16.93,152.61,181.22,194.5,309,204.43,134.4,10.34,315.9-45.7,370.85-161s-44.9-161.17-76.71-167.42Zm-284.23,285.48c-133.43,6.12-241.39-59.84-241.39-147.71s108-158.45,241.39-164.57c133.58-6.12,241.68,48.28,241.68,136s-108.1,170.29-241.68,176.27Zm-26.57-254.47C884.47,1243.25,900,1367.29,900,1367.29s-1.37,39.31,36,59.31c78.49,42,159.46,16.58,200.22-35.51s16.94-178.71-117.46-163.34ZM984.86,1402c-25.06,2.86-45.3-11.43-45.3-32.1s17.9-42.16,43-44.74c28.78-2.72,47.51,13.6,47.51,34.41.14,20.54-20.24,39.58-45.17,42.43Zm79.18-66.5c-8.54,6.25-19,5.44-23.41-2.18-4.68-7.35-2.89-19,5.65-25.16,9.92-7.35,20.24-5.17,24.79,2.17s1.24,18.63-7,25.17ZM1395,1143a21.84,21.84,0,0,0,21.62-18.22,13.1,13.1,0,0,0,.27-2.32c16.39-145.39-120.76-120.36-120.76-120.36a21.76,21.76,0,1,0,0,43.52c98.46-21.49,76.84,75.75,76.84,75.75-.14,12,9.78,21.63,22,21.63Zm-16-253.79c-47.37-11-96.26-1.5-109.89,1.08-1.11.14-2.06,1.1-3,1.23a2.79,2.79,0,0,0-.83.54,31.64,31.64,0,0,0,8.68,62.16s17.21-2.31,28.92-6.8,109.89-3.4,158.63,77.39c26.59,59,11.71,98.47,9.78,104.86,0,0-6.33,15.37-6.33,30.47,0,17.41,14.18,28.43,31.94,28.43,14.74,0,27.13-2,30.71-26.66h.14c52.6-172.32-63.9-253.25-148.72-272.7Zm0,0" transform="translate(-726 -884.02)"/></g></svg>