<svg id="图层_1" data-name="图层 1" xmlns="http://www.w3.org/2000/svg" viewBox="0 0 261.82 278.04"><defs><style>.cls-1{fill:#afaeae;}.cls-2{fill:#fff;}.cls-3{fill:#999;}.cls-4{fill:none;}</style></defs><title>鼓掌</title><path class="cls-1" d="M664.88,224.64a13.36,13.36,0,0,1,10.52,5.09,13.66,13.66,0,0,1-1.34,18l-68.92,70.18-.23-8.12a25.26,25.26,0,0,0-10.49-20.27l61-61a13.34,13.34,0,0,1,9.46-3.9m0-12h0a25.18,25.18,0,0,0-17.94,7.42l-61,61a12,12,0,0,0,1.46,18.21,13.17,13.17,0,0,1,5.52,10.63v.26l.23,8.12a12,12,0,0,0,20.56,8.06l68.89-70.15a25.6,25.6,0,0,0,2.22-33.92,25.29,25.29,0,0,0-19.92-9.64Z" transform="translate(-529.03 -209.12)"/><path class="cls-1" d="M580.62,244.73A13.29,13.29,0,0,1,593.87,258l.35,12.39a25.29,25.29,0,0,0-19.79,23.7l-12.14,88.31-4.46,5.18L542.65,372.4a5.62,5.62,0,0,1-.29-7.64l12.28-14.27a0,0,0,0,0,0,0L567.37,258a13.29,13.29,0,0,1,13.25-13.25m0-12A25.28,25.28,0,0,0,555.39,257l-12.15,88.3-10,11.61a17.7,17.7,0,0,0,.91,24l15.18,15.15a12,12,0,0,0,8.48,3.51h.45a12,12,0,0,0,8.64-4.17l4.46-5.18a11.92,11.92,0,0,0,2.79-6.19l12.15-88.3c0-.4.09-.8.1-1.19a13.25,13.25,0,0,1,10.38-12.43A12,12,0,0,0,606.22,270l-.35-12.25a25.29,25.29,0,0,0-25.25-25Z" transform="translate(-529.03 -209.12)"/><path class="cls-1" d="M715.61,221.12a13.35,13.35,0,0,1,10.52,5.08,13.66,13.66,0,0,1-1.34,18l-7.16,7.16a25,25,0,0,0-4.78-10.07,25.21,25.21,0,0,0-14.05-8.95l7.35-7.35a13.34,13.34,0,0,1,9.46-3.9m0-12a25.19,25.19,0,0,0-17.94,7.41l-7.35,7.35a12,12,0,0,0,5.73,20.17,13.18,13.18,0,0,1,7.39,4.72,12.72,12.72,0,0,1,2.48,5.23,12,12,0,0,0,20.2,5.87l7.15-7.15a25.59,25.59,0,0,0,2.27-34,25.28,25.28,0,0,0-19.93-9.64Z" transform="translate(-529.03 -209.12)"/><path class="cls-2" d="M633,481.16a11.56,11.56,0,0,1-8.08-3.27L554.2,409.35a11.66,11.66,0,0,1-.83-15.79l10.94-13.11,11.11-90.54a19.29,19.29,0,0,1,19-19.08h.29a19.33,19.33,0,0,1,19.24,18.87l.94,21.74a.19.19,0,0,0,.19.15l69.47-71.51a19.26,19.26,0,0,1,13.62-5.86h.28a19.32,19.32,0,0,1,15,7.14,19.59,19.59,0,0,1-1.42,26L664.22,316.6a.46.46,0,0,0-.12.32.45.45,0,0,0,.13.32.53.53,0,0,0,.37.15.51.51,0,0,0,.38-.16L726.44,254a19.23,19.23,0,0,1,13.62-5.86h.29a19.31,19.31,0,0,1,15,7.14,19.59,19.59,0,0,1-1.42,26l-61.16,63a.53.53,0,0,0,0,.76.42.42,0,0,0,.3.12.41.41,0,0,0,.32-.13l48.09-49.52a19.3,19.3,0,0,1,13.63-5.86h.28a19.32,19.32,0,0,1,15,7.14,19.59,19.59,0,0,1-1.42,26l-47.64,49.05a.69.69,0,0,0,0,1l.1.1a.14.14,0,0,0,.1,0,.16.16,0,0,0,.13-.06l29.53-30.4a20.2,20.2,0,0,1,14.08-6.1h.29a18.88,18.88,0,0,1,11.6,3.91,19.42,19.42,0,0,1,2.12,28.9l-34.12,35.13c-34.34,35.37-64.52,56.28-89.68,62.17l-15.41,12.19a11.72,11.72,0,0,1-7,2.51Z" transform="translate(-529.03 -209.12)"/><path class="cls-3" d="M698.41,240.22a13.35,13.35,0,0,1,10.39,4.93,13.65,13.65,0,0,1-1.08,18l-47.8,49.22a6.46,6.46,0,0,0,.13,9.12,6.53,6.53,0,0,0,4.55,1.85h.1a6.56,6.56,0,0,0,4.59-2l61.45-63.28a13.36,13.36,0,0,1,9.41-4h.2A13.33,13.33,0,0,1,750.74,259a13.66,13.66,0,0,1-1.08,18.05l-61.17,63a6.54,6.54,0,0,0,.14,9.24,6.4,6.4,0,0,0,4.49,1.82h.09a6.43,6.43,0,0,0,4.53-1.95l48.09-49.52a13.32,13.32,0,0,1,9.4-4h.2a13.35,13.35,0,0,1,10.39,4.93,13.66,13.66,0,0,1-1.07,18.05l-47.64,49.05a6.67,6.67,0,0,0,.14,9.45l.08.08a6.14,6.14,0,0,0,4.3,1.75h.09a6.11,6.11,0,0,0,4.34-1.88l29.54-30.4a14.06,14.06,0,0,1,9.86-4.28h.2A12.93,12.93,0,0,1,773.6,345a13.42,13.42,0,0,1,1.48,20L741,400.11c-29.14,30-59.71,54.2-86.78,60.51a6,6,0,0,0-2.26,1.08L636.45,474a5.68,5.68,0,0,1-3.41,1.21H633a5.63,5.63,0,0,1-3.91-1.58L558.37,405a5.61,5.61,0,0,1-.4-7.63L570,383a0,0,0,0,0,0,0l11.37-92.66a13.29,13.29,0,0,1,13.05-13.44h.2a13.28,13.28,0,0,1,13.24,13.05l.94,21.82a6.14,6.14,0,0,0,6.19,5.89h.09a6,6,0,0,0,4.28-1.87l69.4-71.46a13.32,13.32,0,0,1,9.4-4h.2m0-12H698a25.24,25.24,0,0,0-17.84,7.68l-59.94,61.72-.35-8.11a25.36,25.36,0,0,0-25.24-24.68h-.37a25.31,25.31,0,0,0-24.88,24.67L558.57,378l-9.81,11.75A17.68,17.68,0,0,0,550,413.66l70.68,68.53a17.51,17.51,0,0,0,12.26,5h.26a17.73,17.73,0,0,0,10.67-3.8L658.27,472c26.34-6.6,56.22-27.39,91.29-63.51l34.13-35.13a25.4,25.4,0,0,0-2.78-37.83,24.67,24.67,0,0,0-11.19-4.84l3.63-3.73a25.59,25.59,0,0,0,1.77-34,25.29,25.29,0,0,0-15.51-9,25.54,25.54,0,0,0,.42-32.5,25.27,25.27,0,0,0-19.68-9.35H740a25.19,25.19,0,0,0-16.7,6.57,24.89,24.89,0,0,0-5.18-11.09,25.3,25.3,0,0,0-19.69-9.35Z" transform="translate(-529.03 -209.12)"/><line class="cls-4" x1="170.9" y1="19.57" x2="170.9" y2="19.57"/></svg>