<svg id="图层_1" data-name="图层 1" xmlns="http://www.w3.org/2000/svg" xmlns:xlink="http://www.w3.org/1999/xlink" viewBox="0 0 887.41 818.77"><defs><style>.cls-1{fill:none;}.cls-2{clip-path:url(#clip-path);}.cls-3{fill:#999;}</style><clipPath id="clip-path" transform="translate(-689 -795.44)"><rect class="cls-1" x="689" y="795.45" width="887.76" height="819.76"/></clipPath></defs><title>收藏</title><g class="cls-2"><path class="cls-3" d="M1394.4,1614.2A20.71,20.71,0,0,1,1385,1612L1132.7,1483.49,880.46,1612a20.82,20.82,0,0,1-21.38-1.51,19.3,19.3,0,0,1-8.06-19.21l48.17-272.14L695.14,1126.37a19.27,19.27,0,0,1-5.15-20.15,20.22,20.22,0,0,1,16.39-13.41l282-39.69L1114.5,805.51c6.82-13.43,29.61-13.43,36.4,0L1277,1053.12l282,39.69a20.24,20.24,0,0,1,16.4,13.41,19.31,19.31,0,0,1-5.16,20.15l-204.07,192.72,48.2,272.14a19.38,19.38,0,0,1-8.06,19.21,20.69,20.69,0,0,1-11.95,3.76Zm0,0" transform="translate(-689 -795.44)"/></g></svg>