<?xml version="1.0" encoding="utf-8"?>
<!-- Generator: Adobe Illustrator 22.0.0, SVG Export Plug-In . SVG Version: 6.00 Build 0)  -->
<svg version="1.1" id="图层_1" xmlns="http://www.w3.org/2000/svg" xmlns:xlink="http://www.w3.org/1999/xlink" x="0px" y="0px"
	 viewBox="0 0 405.6 388.1" style="enable-background:new 0 0 405.6 388.1;" xml:space="preserve">
<style type="text/css">
	.st0{clip-path:url(#SVGID_2_);}
	.st1{fill:#999999;}
</style>
<title>未标题-3</title>
<g>
	<defs>
		<rect id="SVGID_1_" y="0" width="405.7" height="388.7"/>
	</defs>
	<clipPath id="SVGID_2_">
		<use xlink:href="#SVGID_1_"  style="overflow:visible;"/>
	</clipPath>
	<g class="st0">
		<path class="st1" d="M399.3,167.7c11.8-13.4,6.3-30.4-11.2-34.4l-109.7-25l-57.6-96.7c-9.1-15.4-27-15.4-36.2,0l-57.6,96.8
			l-109.7,25c-17.3,3.9-22.9,21-11.2,34.4l74.1,84.8L70.1,364.6c-1.6,17.8,12.8,28.3,29.2,21.3l107.2-46c4.8-2.2,7-7.9,4.8-12.7
			c-2.1-4.7-7.6-6.9-12.4-5l-107.2,46c-3,1.3-2.8,1.5-2.5-1.8L100.2,246l-79.5-91c-2.1-2.5-2.2-2.3,1-3l117.8-26.8l61.8-103.8
			c1.7-2.8,1.4-2.8,3.1,0l61.8,103.9L383.9,152c3.2,0.7,3.1,0.5,1,3l-79.5,91l10.9,120.4c0.5,5.3,5.2,9.2,10.4,8.7s9.2-5.2,8.7-10.4
			l0,0l-10.2-112.2L399.3,167.7z"/>
	</g>
</g>
</svg>
