<?xml version="1.0" encoding="utf-8"?>
<!-- Generator: Adobe Illustrator 22.0.0, SVG Export Plug-In . SVG Version: 6.00 Build 0)  -->
<svg version="1.1" id="图层_1" xmlns="http://www.w3.org/2000/svg" xmlns:xlink="http://www.w3.org/1999/xlink" x="0px" y="0px"
	 viewBox="0 0 887.4 818.8" style="enable-background:new 0 0 887.4 818.8;" xml:space="preserve">
<style type="text/css">
	.st0{clip-path:url(#SVGID_2_);}
	.st1{fill:#FFC000;}
</style>
<title>收藏</title>
<g>
	<defs>
		<rect id="SVGID_1_" y="0" width="887.8" height="819.8"/>
	</defs>
	<clipPath id="SVGID_2_">
		<use xlink:href="#SVGID_1_"  style="overflow:visible;"/>
	</clipPath>
	<g class="st0">
		<path class="st1" d="M705.4,818.8c-3.3,0-6.5-0.7-9.4-2.2L443.7,688L191.5,816.6c-6.9,3.5-15.1,2.9-21.4-1.5
			c-6.2-4.3-9.4-11.8-8.1-19.2l48.2-272.1L6.1,330.9c-5.5-5.1-7.5-13-5.2-20.2c2.5-7.2,8.8-12.4,16.4-13.4l282-39.7L425.5,10.1
			c6.8-13.4,29.6-13.4,36.4,0L588,257.7l282,39.7c7.6,1,13.9,6.2,16.4,13.4c2.4,7.1,0.3,15-5.2,20.2L677.2,523.6l48.2,272.1
			c1.3,7.4-1.9,14.9-8.1,19.2C713.8,817.5,709.6,818.8,705.4,818.8L705.4,818.8z"/>
	</g>
</g>
</svg>
