<?xml version="1.0" encoding="utf-8"?>
<!-- Generator: Adobe Illustrator 22.0.0, SVG Export Plug-In . SVG Version: 6.00 Build 0)  -->
<svg version="1.1" id="图层_1" xmlns="http://www.w3.org/2000/svg" xmlns:xlink="http://www.w3.org/1999/xlink" x="0px" y="0px"
	 viewBox="0 0 722.7 723.7" style="enable-background:new 0 0 722.7 723.7;" xml:space="preserve">
<style type="text/css">
	.st0{clip-path:url(#SVGID_2_);}
	.st1{fill:#FFFFFF;}
</style>
<title>朋友圈</title>
<g>
	<defs>
		<rect id="SVGID_1_" x="0.1" y="-0.1" width="722.9" height="724.8"/>
	</defs>
	<clipPath id="SVGID_2_">
		<use xlink:href="#SVGID_1_"  style="overflow:visible;"/>
	</clipPath>
	<g class="st0">
		<path class="st1" d="M360.4,0c-14.6,0-27.3,0-40,1.8c-32.8,3.6-63.7,12.7-92.8,23.7c0,0,244,240.3,249.4,249.4V20
			C438.8,7.3,400.6,0,360.4,0L360.4,0z M615.3,105.6c-9.1-9.1-20-18.2-31-27.3c-25.5-20.2-53.7-36.7-83.7-49.2
			c0,0,1.8,342.2,0,353.2l182-182C666.2,165.7,642.6,132.9,615.3,105.6L615.3,105.6z M695.4,229.4c0,0-240.3,243.9-249.4,249.4
			h256.7c12.7-36.4,20-76.5,20-114.7c0-14.6,0-27.3-1.8-40.1C715.4,289.5,706.3,258.5,695.4,229.4L695.4,229.4z M338.6,506.1
			l182,182c34.6-18.2,67.3-40,94.7-67.3c32.4-32.5,58.3-70.8,76.5-112.9C691.7,506,349.5,507.9,338.6,506.1L338.6,506.1z
			 M243.9,447.8v256.7c51,16.4,103.8,23.7,156.6,16.4c32.8-3.6,63.7-10.9,92.8-23.7C495.2,699,251.2,456.9,243.9,447.8L243.9,447.8z
			 M218.4,342.2l-182,182c3.6,7.3,7.3,14.6,10.9,20c21.8,40.1,52.8,74.6,87.4,101.9c25.5,20.2,53.6,36.8,83.7,49.2
			C218.5,695.4,216.6,353.2,218.4,342.2L218.4,342.2z M12.7,269.4C3.6,300.4,0,331.3,0,362.3c0,14.6,0,27.3,1.8,40.1
			c3.6,32.8,10.9,63.7,23.7,92.8c0,0,240.3-243.9,249.4-249.4H18.2C16.4,254.9,14.6,262.1,12.7,269.4z M180.2,51
			c-27.3,16.4-52.8,34.6-74.6,56.4c-32.4,32.5-58.3,70.8-76.5,112.9c0,0,342.2-1.8,353.2,0l-182-182C193,43.7,185.7,47.4,180.2,51
			L180.2,51z"/>
	</g>
</g>
</svg>
