<svg id="图层_1" data-name="图层 1" xmlns="http://www.w3.org/2000/svg" xmlns:xlink="http://www.w3.org/1999/xlink" viewBox="0 0 722.72 723.72"><defs><style>.cls-1{fill:none;}.cls-2{clip-path:url(#clip-path);}.cls-3{fill:#999899;}</style><clipPath id="clip-path" transform="translate(-771.88 -842.57)"><rect class="cls-1" x="772" y="842.45" width="722.88" height="724.8"/></clipPath></defs><title>朋友圈</title><g class="cls-2"><path class="cls-3" d="M1132.33,842.57c-14.57,0-27.31,0-40,1.82-32.77,3.64-63.72,12.74-92.85,23.67,0,0,244,240.3,249.41,249.4V862.6c-38.23-12.75-76.46-20-116.51-20Zm254.86,105.59c-9.1-9.1-20-18.21-31-27.31a349.23,349.23,0,0,0-83.74-49.15s1.82,342.24,0,353.16l182-182c-16.39-34.59-40-67.36-67.36-94.66Zm80.1,123.79s-240.3,243.94-249.4,249.4h256.68c12.74-36.41,20-76.46,20-114.69,0-14.56,0-27.31-1.83-40.05-5.46-34.59-14.56-65.53-25.48-94.66Zm-356.81,276.7,182,182c34.58-18.21,67.35-40,94.66-67.35a364.21,364.21,0,0,0,76.46-112.88c0-1.82-342.25,0-353.17-1.82Zm-94.66-58.25v256.68c51,16.39,103.76,23.67,156.56,16.39,32.77-3.64,63.72-10.93,92.84-23.67,1.82,1.82-242.12-240.3-249.4-249.4Zm-25.49-105.59-182,182c3.64,7.28,7.28,14.56,10.92,20,21.85,40.06,52.8,74.64,87.38,101.95A349.23,349.23,0,0,0,990.33,1538s-1.82-342.24,0-353.17ZM784.62,1112c-9.1,31-12.74,61.89-12.74,92.84,0,14.56,0,27.31,1.82,40.05,3.64,32.77,10.92,63.72,23.66,92.84,0,0,240.31-243.94,249.41-249.4H790.08c-1.82,9.11-3.64,16.39-5.46,23.67ZM952.1,893.54c-27.3,16.39-52.79,34.59-74.63,56.44A364,364,0,0,0,801,1062.85s342.24-1.83,353.16,0l-182-182c-7.28,5.46-14.57,9.1-20,12.74Zm0,0" transform="translate(-771.88 -842.57)"/></g></svg>