<svg id="图层_1" data-name="图层 1" xmlns="http://www.w3.org/2000/svg" viewBox="0 0 481.31 481.3"><defs><style>.cls-1{fill:#669934;}</style></defs><title>未标题-4</title><path class="cls-1" d="M307.88,123.92l-38.22,70.42q-15.3,28.62-18.7,38h-.66q-10.08-22.93-56.91-108.47H157.44l66.84,114.82h-54.8v25.38h64.24v35H169.48v25.68h64.24v50.92H265.6V324.76h62V299.08h-62v-35h62V238.74H274.38l67.5-114.82Zm0,0" transform="translate(-9 -9.15)"/><path class="cls-1" d="M79.87,79.31a240.64,240.64,0,0,1,408,136.32C506.71,347,415.18,469.15,283.89,488a241.08,241.08,0,0,1-159-32.45,17.19,17.19,0,0,1,17.84-29.39A206.4,206.4,0,0,0,279,454c112.51-16.14,191-120.87,174.81-233.47A206.23,206.23,0,0,0,220.39,45.71C107.76,61.85,29.34,166.6,45.51,279.17A203.76,203.76,0,0,0,76,361a17.19,17.19,0,1,1-28.9,18.62,240.46,240.46,0,0,1,10-274A241.53,241.53,0,0,1,79.87,79.31Zm0,0" transform="translate(-9 -9.15)"/></svg>