<?xml version="1.0" encoding="utf-8"?>
<!-- Generator: Adobe Illustrator 22.1.0, SVG Export Plug-In . SVG Version: 6.00 Build 0)  -->
<svg version="1.1" id="图层_1" xmlns="http://www.w3.org/2000/svg" xmlns:xlink="http://www.w3.org/1999/xlink" x="0px" y="0px"
	 viewBox="0 0 16 16" style="enable-background:new 0 0 16 16;" xml:space="preserve">
<style type="text/css">
	.st0{fill-rule:evenodd;clip-rule:evenodd;fill:#AACA13;}
</style>
<path id="XMLID_11_" class="st0" d="M13,3C11.6,1.7,10,1,8,1C6.1,1,4.4,1.7,3.1,3C1.7,4.4,1,6.1,1,8c0,1.9,0.7,3.6,2.1,5
	C4.4,14.3,6.1,15,8,15c1.9,0,3.6-0.7,4.9-2.1c1.4-1.4,2-3,2-5C15,6.1,14.3,4.4,13,3L13,3z M12.4,9.4L12.4,9.4
	C12,9.8,11.6,10,11.1,10H9.9v1.2c0,0.5-0.2,1-0.6,1.3C9,12.8,8.5,13,8,13c-0.5,0-1-0.2-1.3-0.6c-0.4-0.4-0.5-0.8-0.5-1.3V10H5
	c-0.5,0-1-0.2-1.3-0.6C3.3,9.1,3.1,8.6,3.1,8.1c0-0.5,0.2-1,0.6-1.3C4,6.4,4.4,6.2,5,6.2h1.2V5.1c0-0.5,0.2-1,0.5-1.3
	C7,3.4,7.5,3.2,8,3.2c0.5,0,1,0.2,1.3,0.6c0.4,0.4,0.6,0.8,0.6,1.3v1.2h1.2c0.5,0,1,0.2,1.3,0.5c0.4,0.4,0.6,0.8,0.6,1.3
	C12.9,8.6,12.8,9.1,12.4,9.4z"/>
</svg>
