<?xml version="1.0" encoding="utf-8"?>
<!-- Generator: Adobe Illustrator 22.0.0, SVG Export Plug-In . SVG Version: 6.00 Build 0)  -->
<svg version="1.1" id="图层_1" xmlns="http://www.w3.org/2000/svg" xmlns:xlink="http://www.w3.org/1999/xlink" x="0px" y="0px"
	 viewBox="0 0 131 101" style="enable-background:new 0 0 131 101;" xml:space="preserve">
<style type="text/css">
	.st0{fill:#B6DDC8;}
	.st1{clip-path:url(#SVGID_2_);}
	.st2{fill:#181917;}
	.st3{fill:#E7F7ED;}
</style>
<title>开讲</title>
<path class="st0" d="M4,0h123c2.2,0,4,1.8,4,4v93c0,2.2-1.8,4-4,4H4c-2.2,0-4-1.8-4-4V4C0,1.8,1.8,0,4,0z"/>
<g>
	<defs>
		<path id="SVGID_1_" d="M4,0h123c2.2,0,4,1.8,4,4v93c0,2.2-1.8,4-4,4H4c-2.2,0-4-1.8-4-4V4C0,1.8,1.8,0,4,0z"/>
	</defs>
	<clipPath id="SVGID_2_">
		<use xlink:href="#SVGID_1_"  style="overflow:visible;"/>
	</clipPath>
	<g class="st1">
		<path class="st2" d="M30.5,36.8c-1.4-2.2-4.3-2.9-6.5-1.5L14.8,41c-2.2,1.4-2.9,4.2-1.5,6.4l-7.9,5H5v0.3l-0.1,0.1L5,53v30.8H3.3
			C-3,83.9-8,89-8,95.2c0,0,0,0,0,0l0,0c0,6.2,5,11.3,11.3,11.3c0,0,0,0,0,0h5.3c6.2,0,11.3-5,11.3-11.3c0,0,0,0,0,0l0,0
			c0-6.2-5-11.3-11.3-11.3c0,0,0,0,0,0H7V53.7l7.6-4.8c1.6,1.1,3.6,1.2,5.2,0.1l9.2-5.8C31.2,41.9,31.9,39,30.5,36.8
			C30.5,36.8,30.5,36.8,30.5,36.8z"/>
	</g>
</g>
<path class="st3" d="M107.7,20.6c-1.5,0-2.7,1.2-2.7,2.7c0,1.5,1.2,2.7,2.7,2.7c1.5,0,2.7-1.2,2.7-2.7
	C110.5,21.8,109.3,20.6,107.7,20.6C107.7,20.6,107.7,20.6,107.7,20.6z M121.5,20.6c-1.5,0-2.7,1.2-2.7,2.7c0,1.5,1.2,2.7,2.7,2.7
	c1.5,0,2.7-1.2,2.7-2.7C124.2,21.8,123,20.6,121.5,20.6L121.5,20.6z M107.7,6c-1.5,0-2.7,1.2-2.7,2.7c0,1.5,1.2,2.7,2.7,2.7
	c1.5,0,2.7-1.2,2.7-2.7l0,0C110.5,7.2,109.2,6,107.7,6z M121.5,11.5c1.5,0,2.7-1.2,2.7-2.7c0-1.5-1.2-2.7-2.7-2.7
	c-1.5,0-2.7,1.2-2.7,2.7c0,0,0,0,0,0C118.8,10.3,120,11.5,121.5,11.5z"/>
</svg>
