<?xml version="1.0" encoding="utf-8"?>
<!-- Generator: Adobe Illustrator 22.0.0, SVG Export Plug-In . SVG Version: 6.00 Build 0)  -->
<svg version="1.1" id="图层_1" xmlns="http://www.w3.org/2000/svg" xmlns:xlink="http://www.w3.org/1999/xlink" x="0px" y="0px"
	 viewBox="0 0 1366 768" style="enable-background:new 0 0 1366 768;" xml:space="preserve">
<style type="text/css">
	.st0{opacity:0.5;}
	.st1{fill:#FFFFFF;}
	.st2{clip-path:url(#SVGID_2_);}
</style>
<g class="st0">
	<circle class="st1" cx="577.4" cy="384" r="308.6"/>
	<g>
		<g>
			<defs>
				<rect id="SVGID_1_" x="166" y="50" width="822.9" height="667.9"/>
			</defs>
			<clipPath id="SVGID_2_">
				<use xlink:href="#SVGID_1_"  style="overflow:visible;"/>
			</clipPath>
			<path class="st2" d="M416.1,457.4c0-10.5,1.4-19.6,4.2-27.3c2.8-7.7,7.8-15,15.1-21.8v98.1c-7.5-6.6-12.6-13.8-15.2-21.5
				C417.4,477.2,416.1,468,416.1,457.4L416.1,457.4z M716.6,408.3c6.4,4.9,11.6,11.7,15.6,20.4c4,8.7,5.9,18.2,5.9,28.7
				c0,10.7-1.6,19.8-4.7,27.4c-3.1,7.6-8.7,14.8-16.8,21.7V408.3z M678.5,393.8c4.1,0,8.1,1.6,12.2,4.8c4.1,3.2,6.1,7.7,6.1,13.5
				v83.1c0,2.6-0.6,5-1.8,7.2s-2.6,4.3-4.3,6.1c-1.7,1.8-3.7,3.2-5.9,4.2c-2.2,1-4.3,1.4-6.3,1.4H656c-5.6,0-10.2-1.7-14-5.1
				c-3.7-3.4-5.6-8-5.6-13.8v-83.1c0-5.8,2.1-10.3,6.3-13.5c4.2-3.2,8.6-4.8,13.3-4.8H678.5z M495,393.8c6.2,0,11.2,1.5,15.1,4.5
				c3.8,3,5.8,7.7,5.8,14.1v80.8c0,6.4-1.7,11.4-5,15.1c-3.3,3.6-7.6,5.5-13,5.5h-23.4c-6.4,0-11.2-1.9-14.3-5.8
				c-3.1-3.8-4.7-8.6-4.7-14.1v-81.5c0-6.4,1.9-11.1,5.8-14.1c3.8-3,8.4-4.5,13.8-4.5H495z M576.5,253c16.9,0,32.8,2.9,47.8,8.7
				c15,5.8,28.1,14,39.3,24.5c11.2,10.6,20,23.3,26.5,38c6.4,14.8,9.6,31,9.6,48.8h-21.2c-5.3,0-10.2,0.1-14.4,0.2
				c-4.3,0.1-6.4,0.1-6.4-0.2c0-13.3-2.2-25-6.7-35.1c-4.5-10.2-10.4-18.7-17.8-25.5c-7.4-6.8-15.9-12-25.7-15.4
				c-9.7-3.4-20-5.1-31-5.1c-10.7,0-20.8,2.2-30.5,6.7c-9.6,4.5-18.1,10.5-25.5,18.1c-7.4,7.6-13.3,16.3-17.8,26
				c-4.5,9.7-6.7,19.8-6.7,30.3h-42.3c0-17.7,3.2-34,9.6-48.8c6.4-14.8,15.2-27.4,26.3-38c11.1-10.6,24.2-18.8,39.1-24.5
				C543.7,255.9,559.6,253,576.5,253L576.5,253z M576.5,253"/>
		</g>
	</g>
</g>
</svg>
