<?xml version="1.0" encoding="utf-8"?>
<!-- Generator: Adobe Illustrator 22.0.0, SVG Export Plug-In . SVG Version: 6.00 Build 0)  -->
<svg version="1.1" id="图层_1" xmlns="http://www.w3.org/2000/svg" xmlns:xlink="http://www.w3.org/1999/xlink" x="0px" y="0px"
	 viewBox="0 0 584.4 616.6" style="enable-background:new 0 0 584.4 616.6;" xml:space="preserve">
<style type="text/css">
	.st0{fill:#9B9B9B;}
	.st1{fill:#C4C4C4;}
</style>
<g>
	<path class="st0" d="M294.7,323.9c-7.4,0-14.8-3.7-22.2-11.1L12.8,53.2C-2,42.1-2,19.8,12.8,8.7c14.8-11.1,33.4-11.1,44.5,0
		L294.7,246L532,8.7c11.1-11.1,33.4-11.1,44.5,0c11.1,11.1,11.1,33.4,0,44.5L316.9,312.8C309.5,320.2,302.1,323.9,294.7,323.9
		L294.7,323.9z M294.7,323.9"/>
	<path class="st1" d="M295,617.3c-7.4,0-14.8-3.7-22.2-11.1L13.1,346.6c-14.8-11.1-14.8-33.4,0-44.5c14.8-11.1,33.4-11.1,44.5,0
		L295,539.4l237.3-237.3c11.1-11.1,33.4-11.1,44.5,0c11.1,11.1,11.1,33.4,0,44.5L317.2,606.2C309.8,613.6,302.4,617.3,295,617.3
		L295,617.3z M295,617.3"/>
</g>
</svg>
