<svg id="图层_1" data-name="图层 1" xmlns="http://www.w3.org/2000/svg" viewBox="0 0 333.97 117.1"><defs><style>.cls-1,.cls-3{fill:#717071;}.cls-2{fill:#aaca13;}.cls-2,.cls-3{fill-rule:evenodd;}</style></defs><title>LOGO</title><path class="cls-1" d="M87.8,243V236.5h28.62v-5.6h10.89v5.6h28.93V243H130.11q5.59,8.4,27.69,12.76v5.91Q132.28,258.6,122,248q-10.27,10.58-35.78,13.69v-5.91q21.47-4,27.69-12.76Zm.62-40.13v-6.53h14.31a22.48,22.48,0,0,1-1.25-5.6h10.27a18.55,18.55,0,0,0,1.24,5.6h17.74a2.37,2.37,0,0,1,.31-.94,32.39,32.39,0,0,0,1.24-4.66h10.27a37.23,37.23,0,0,1-1.55,5.6h14.62v6.53H127v6.53h24.58v6.23H127v6.84h30.18V229H86.55V222.5h29.87v-6.84h-24v-6.23h24V202.9Z" transform="translate(-86.24 -190.46)"/><path class="cls-1" d="M199.43,238.06a62.63,62.63,0,0,1-7.78-12.14v36.4h-9.33V229A72,72,0,0,1,173,246.46V235.88a153.25,153.25,0,0,0,9-28h-8.09v-6.53h8.4V190.77h9.33v10.58h7.78v6.53H192a63.5,63.5,0,0,0,7.47,20.53Zm2.8,21.46v-60h11.82a53.76,53.76,0,0,0,2.18-8.4h10.58a31.44,31.44,0,0,1-2.49,8.4H243v49.15q.3,11.21-11.2,10.89Zm9.65-34.84h21.46V206H211.88Zm0,28.93h16.79c3.12,0,4.67-1.66,4.67-5V231.21H211.88Z" transform="translate(-86.24 -190.46)"/><path class="cls-1" d="M276.22,259.52q-11.82.32-11.51-10.89V193.25h66.58v6.54H274.66v48.53c-.2,3.73,1.66,5.5,5.61,5.29h52v5.91Zm54.13-9q-18.66-4.35-24.57-13.38-5.29,8.4-26.45,13.38v-5.6q16.49-5,19.6-14.31H278.09v-6.22h22.09v-10h-10q-3.42,4.05-11.82,5.91v-5q7.16-3.12,8.71-12.76h9q-.93,3.1-1.86,5.6h32.35v6.22h-16.8v6.84a13.54,13.54,0,0,1-.31,3.12h20.22v6.22H311.07q5.6,10,19.28,14Z" transform="translate(-86.24 -190.46)"/><path class="cls-1" d="M353.63,262V215.66a29.18,29.18,0,0,1-6.22,3.42v-5.91q8.4-6.54,10.89-22.4h8.4A66,66,0,0,1,362,206.32V262Zm38.27-2.18q-10.57,0-17.11-5A47.19,47.19,0,0,1,363.9,262v-6.22a21.91,21.91,0,0,0,6.53-5.29q-4.67-6.54-6.53-21.78h6.53a77.51,77.51,0,0,0,3.74,14.94,29,29,0,0,0,1.24-9v-11.2h-10v-6.22a43.54,43.54,0,0,0,9.64-15.55h-8.4v-6.23h16.8v6.23a43.33,43.33,0,0,1-10.27,15.55h9.34v15.87q.3,10.57-3.42,17.11,4.67,4,13.06,4h27.38v5.6Zm-9-47.91v-5.6h12.44v-5.6H386v-5.29h9.33v-5h8.09v5h12.76v10.89h4v5.6h-4v1.87q.3,9.33-8.71,9h-4v5.29H417.1v5.6H403.41v5.91h14.94v5.6H403.41v6.84h-8.09v-6.84H383.5v-5.6h11.82V233.7H385.06v-5.6h10.26v-5.29h-9.64v-5.29h9.64v-5.6Zm26.44-11.2h-5.91v5.6h5.91Zm-3.73,16.8q3.74,0,3.73-3.73v-1.87h-5.91v5.6Z" transform="translate(-86.24 -190.46)"/><path class="cls-2" d="M130.75,303.45a3.93,3.93,0,0,1-1.2,2.89,4.07,4.07,0,0,1-5.77,0,4,4,0,0,1-1.18-2.89V287.11a3.81,3.81,0,0,0-1.2-2.81,3.92,3.92,0,0,0-2.83-1.18,3.94,3.94,0,0,0-4,4V303.4a4.18,4.18,0,0,1-4.12,4.14,3.93,3.93,0,0,1-2.91-1.2,4,4,0,0,1-1.17-2.89V287.11a3.77,3.77,0,0,0-1.18-2.83,3.84,3.84,0,0,0-2.8-1.16,3.93,3.93,0,0,0-2.86,1.18,3.88,3.88,0,0,0-1.17,2.82v16.32a4.11,4.11,0,0,1-4.08,4.1,3.89,3.89,0,0,1-2.9-1.2,4,4,0,0,1-1.18-2.89V287.14a12.13,12.13,0,0,1,20.25-9.05,12.15,12.15,0,0,1,20.28,9Z" transform="translate(-86.24 -190.46)"/><path class="cls-2" d="M259.12,307.55a3.26,3.26,0,0,1-3.25-3.24,3.09,3.09,0,0,1,1-2.31,3.15,3.15,0,0,1,2.3-.94h13a3,3,0,0,0,2.24-.95,3.16,3.16,0,0,0-2.24-5.42h-13a3.16,3.16,0,0,1-2.31-1,3.12,3.12,0,0,1-1-2.3,3.09,3.09,0,0,1,1-2.31,3.15,3.15,0,0,1,2.3-.94h13a3.06,3.06,0,0,0,2.26-.93,3.11,3.11,0,0,0,.92-2.24,3.19,3.19,0,0,0-3.18-3.2h-13a3.28,3.28,0,0,1-3.26-3.25,3.09,3.09,0,0,1,1-2.31,3.2,3.2,0,0,1,2.3-.94h13a9.66,9.66,0,0,1,7.21,16.12,9.67,9.67,0,0,1-.35,13.3,9.29,9.29,0,0,1-6.84,2.84Z" transform="translate(-86.24 -190.46)"/><path class="cls-3" d="M205,288a12.21,12.21,0,0,1-8,11.43v4.06a4.08,4.08,0,0,1-4.06,4.07,3.89,3.89,0,0,1-2.89-1.2,4,4,0,0,1-1.17-2.87v-4.06A12.18,12.18,0,0,1,180.8,288v-8.8a4,4,0,0,1,1.16-2.87,4.07,4.07,0,0,1,6.95,2.88V288a3.91,3.91,0,0,0,1.17,2.82,3.95,3.95,0,0,0,5.64,0,3.91,3.91,0,0,0,1.17-2.85v-8.81a4.06,4.06,0,1,1,8.11,0Z" transform="translate(-86.24 -190.46)"/><path class="cls-3" d="M338.69,279.18a4.06,4.06,0,0,1-4.05,4.05,3.86,3.86,0,0,1-2.89-1.19,4.06,4.06,0,1,1,6.94-2.86m0,24.3h0a4.08,4.08,0,0,1-4.05,4.06,3.87,3.87,0,0,1-2.89-1.2,3.93,3.93,0,0,1-1.17-2.86V290.3a3.93,3.93,0,0,1,1.17-2.86,4,4,0,0,1,5.75,0,3.91,3.91,0,0,1,1.19,2.86Z" transform="translate(-86.24 -190.46)"/><path class="cls-2" d="M415.16,279.88a16.21,16.21,0,1,0,0,22.9,16.25,16.25,0,0,0,0-22.9m-1.31,14.78h0a4.17,4.17,0,0,1-3.07,1.27h-2.71v2.71a4.35,4.35,0,1,1-8.69,0v-2.71h-2.71a4.36,4.36,0,0,1-3.07-7.44,4.25,4.25,0,0,1,3.07-1.25h2.71v-2.71a4.3,4.3,0,0,1,4.35-4.34,4.35,4.35,0,0,1,4.34,4.34v2.71h2.71a4.24,4.24,0,0,1,3.07,1.25,4.36,4.36,0,0,1,0,6.17" transform="translate(-86.24 -190.46)"/></svg>