<?xml version="1.0" encoding="utf-8"?>
<!-- Generator: Adobe Illustrator 22.0.0, SVG Export Plug-In . SVG Version: 6.00 Build 0)  -->
<svg version="1.1" id="图层_1" xmlns="http://www.w3.org/2000/svg" xmlns:xlink="http://www.w3.org/1999/xlink" x="0px" y="0px"
	 viewBox="0 0 366.7 345.6" style="enable-background:new 0 0 366.7 345.6;" xml:space="preserve">
<style type="text/css">
	.st0{clip-path:url(#SVGID_2_);}
	.st1{fill:#999999;}
</style>
<title>未标题-1</title>
<g>
	<defs>
		<rect id="SVGID_1_" y="-0.3" width="366.8" height="346.4"/>
	</defs>
	<clipPath id="SVGID_2_">
		<use xlink:href="#SVGID_1_"  style="overflow:visible;"/>
	</clipPath>
	<g class="st0">
		<path class="st1" d="M18.3,308.9c0,7.3,2.1,8.7,8.9,6l6.6-2.6c32.5-13,83.2-13,115.8,0l40.6,16.2h-13.6l40.6-16.2
			c32.5-13,83.2-13,115.8,0l6.6,2.6c6.7,2.7,8.9,1.2,8.9-6V61.4c0-12.8-10.6-28.5-22.5-33.2l-6.6-2.6c-23.8-9.5-64.7-9.5-88.5,0
			l-40.6,16.3l-6.8,2.7l-6.8-2.7l-40.6-16.3c-23.8-9.5-64.7-9.5-88.5,0l-6.6,2.6C29,32.8,18.3,48.6,18.3,61.4V308.9z M34,11.1
			l6.6-2.6c28.2-11.3,74-11.3,102.1,0l40.6,16.2L224,8.5c28.2-11.3,74-11.3,102.1,0l6.6,2.6c18.8,7.5,34,30,34,50.3v247.6
			c0,20.2-15.3,30.5-34,23l-6.6-2.6c-28.2-11.3-74-11.3-102.1,0l-40.6,16.3l-40.6-16.3c-28.2-11.3-74-11.3-102.1,0L34,332
			c-18.8,7.5-34-2.8-34-23V61.4C0,41.1,15.3,18.6,34,11.1z M174.2,43.1c-0.2-5.1,3.8-9.3,8.9-9.5s9.3,3.8,9.5,8.9c0,0.2,0,0.4,0,0.6
			v220c0.2,5.1-3.8,9.3-8.9,9.5s-9.3-3.8-9.5-8.9c0-0.2,0-0.4,0-0.6L174.2,43.1z"/>
	</g>
</g>
</svg>
