<svg id="图层_1" data-name="图层 1" xmlns="http://www.w3.org/2000/svg" xmlns:xlink="http://www.w3.org/1999/xlink" viewBox="0 0 396.5 396.5"><defs><style>.cls-1{fill:none;clip-rule:evenodd;}.cls-2{clip-path:url(#clip-path);}.cls-3,.cls-4{fill:#3bb3c3;}.cls-3,.cls-67{fill-rule:evenodd;}.cls-5{fill:#3cb3c2;}.cls-6{fill:#3db4c2;}.cls-7{fill:#3eb4c1;}.cls-8{fill:#3fb4c1;}.cls-9{fill:#40b4c0;}.cls-10{fill:#41b5c0;}.cls-11{fill:#42b5bf;}.cls-12{fill:#43b5be;}.cls-13{fill:#44b5be;}.cls-14{fill:#45b6bd;}.cls-15{fill:#46b6bd;}.cls-16{fill:#47b6bc;}.cls-17{fill:#48b7bb;}.cls-18{fill:#49b7bb;}.cls-19{fill:#4ab7ba;}.cls-20{fill:#4bb7ba;}.cls-21{fill:#4cb8b9;}.cls-22{fill:#4db8b9;}.cls-23{fill:#4eb8b8;}.cls-24{fill:#4fb8b7;}.cls-25{fill:#50b9b7;}.cls-26{fill:#51b9b6;}.cls-27{fill:#52b9b6;}.cls-28{fill:#53bab5;}.cls-29{fill:#54bab4;}.cls-30{fill:#55bab4;}.cls-31{fill:#56bab3;}.cls-32{fill:#57bbb3;}.cls-33{fill:#58bbb2;}.cls-34{fill:#59bbb2;}.cls-35{fill:#5bbcb1;}.cls-36{fill:#5cbcb0;}.cls-37{fill:#5dbcb0;}.cls-38{fill:#5ebcaf;}.cls-39{fill:#5fbdaf;}.cls-40{fill:#60bdae;}.cls-41{fill:#61bdae;}.cls-42{fill:#62bdad;}.cls-43{fill:#63beac;}.cls-44{fill:#64beac;}.cls-45{fill:#65beab;}.cls-46{fill:#66bfab;}.cls-47{fill:#67bfaa;}.cls-48{fill:#68bfa9;}.cls-49{fill:#69bfa9;}.cls-50{fill:#6ac0a8;}.cls-51{fill:#6bc0a8;}.cls-52{fill:#6cc0a7;}.cls-53{fill:#6dc0a7;}.cls-54{fill:#6ec1a6;}.cls-55{fill:#6fc1a5;}.cls-56{fill:#70c1a5;}.cls-57{fill:#71c2a4;}.cls-58{fill:#72c2a4;}.cls-59{fill:#73c2a3;}.cls-60{fill:#74c2a2;}.cls-61{fill:#75c3a2;}.cls-62{fill:#76c3a1;}.cls-63{fill:#77c3a1;}.cls-64{fill:#78c3a0;}.cls-65{fill:#79c4a0;}.cls-66,.cls-67{fill:#7ac49f;}.cls-68{fill:#fff;}</style><clipPath id="clip-path" transform="translate(-51.5 -39.94)"><path class="cls-1" d="M249.75,39.94C359.24,39.94,448,128.7,448,238.19S359.24,436.44,249.75,436.44,51.5,347.68,51.5,238.19,140.26,39.94,249.75,39.94Z"/></clipPath></defs><title>赏</title><g class="cls-2"><path class="cls-3" d="M51.5,39.94v0Z" transform="translate(-51.5 -39.94)"/><rect class="cls-4" width="6.29" height="396.5"/><rect class="cls-5" x="6.29" width="6.29" height="396.5"/><rect class="cls-6" x="12.59" width="6.29" height="396.5"/><rect class="cls-7" x="18.88" width="6.29" height="396.5"/><rect class="cls-8" x="25.17" width="6.29" height="396.5"/><rect class="cls-9" x="31.47" width="6.29" height="396.5"/><rect class="cls-10" x="37.76" width="6.29" height="396.5"/><rect class="cls-11" x="44.06" width="6.29" height="396.5"/><rect class="cls-12" x="50.35" width="6.29" height="396.5"/><rect class="cls-13" x="56.64" width="6.29" height="396.5"/><rect class="cls-14" x="62.94" width="6.29" height="396.5"/><rect class="cls-15" x="69.23" width="6.29" height="396.5"/><rect class="cls-16" x="75.52" width="6.29" height="396.5"/><rect class="cls-17" x="81.82" width="6.29" height="396.5"/><rect class="cls-18" x="88.11" width="6.29" height="396.5"/><rect class="cls-19" x="94.4" width="6.29" height="396.5"/><rect class="cls-20" x="100.7" width="6.29" height="396.5"/><rect class="cls-21" x="106.99" width="6.29" height="396.5"/><rect class="cls-22" x="113.29" width="6.29" height="396.5"/><rect class="cls-23" x="119.58" width="6.29" height="396.5"/><rect class="cls-24" x="125.87" width="6.29" height="396.5"/><rect class="cls-25" x="132.17" width="6.29" height="396.5"/><rect class="cls-26" x="138.46" width="6.29" height="396.5"/><rect class="cls-27" x="144.75" width="6.29" height="396.5"/><rect class="cls-28" x="151.05" width="6.29" height="396.5"/><rect class="cls-29" x="157.34" width="6.29" height="396.5"/><rect class="cls-30" x="163.63" width="6.29" height="396.5"/><rect class="cls-31" x="169.93" width="6.29" height="396.5"/><rect class="cls-32" x="176.22" width="6.29" height="396.5"/><rect class="cls-33" x="182.52" width="6.29" height="396.5"/><rect class="cls-34" x="188.81" width="6.29" height="396.5"/><rect class="cls-35" x="195.1" width="6.29" height="396.5"/><rect class="cls-36" x="201.4" width="6.29" height="396.5"/><rect class="cls-37" x="207.69" width="6.29" height="396.5"/><rect class="cls-38" x="213.98" width="6.29" height="396.5"/><rect class="cls-39" x="220.28" width="6.29" height="396.5"/><rect class="cls-40" x="226.57" width="6.29" height="396.5"/><rect class="cls-41" x="232.87" width="6.29" height="396.5"/><rect class="cls-42" x="239.16" width="6.29" height="396.5"/><rect class="cls-43" x="245.45" width="6.29" height="396.5"/><rect class="cls-44" x="251.75" width="6.29" height="396.5"/><rect class="cls-45" x="258.04" width="6.29" height="396.5"/><rect class="cls-46" x="264.33" width="6.29" height="396.5"/><rect class="cls-47" x="270.63" width="6.29" height="396.5"/><rect class="cls-48" x="276.92" width="6.29" height="396.5"/><rect class="cls-49" x="283.21" width="6.29" height="396.5"/><rect class="cls-50" x="289.51" width="6.29" height="396.5"/><rect class="cls-51" x="295.8" width="6.29" height="396.5"/><rect class="cls-52" x="302.1" width="6.29" height="396.5"/><rect class="cls-53" x="308.39" width="6.29" height="396.5"/><rect class="cls-54" x="314.68" width="6.29" height="396.5"/><rect class="cls-55" x="320.98" width="6.29" height="396.5"/><rect class="cls-56" x="327.27" width="6.29" height="396.5"/><rect class="cls-57" x="333.56" width="6.29" height="396.5"/><rect class="cls-58" x="339.86" width="6.29" height="396.5"/><rect class="cls-59" x="346.15" width="6.29" height="396.5"/><rect class="cls-60" x="352.44" width="6.29" height="396.5"/><rect class="cls-61" x="358.74" width="6.29" height="396.5"/><rect class="cls-62" x="365.03" width="6.29" height="396.5"/><rect class="cls-63" x="371.33" width="6.29" height="396.5"/><rect class="cls-64" x="377.62" width="6.29" height="396.5"/><rect class="cls-65" x="383.91" width="6.29" height="396.5"/><rect class="cls-66" x="390.21" width="6.29" height="396.5"/><path class="cls-67" d="M448,436.44v0Z" transform="translate(-51.5 -39.94)"/></g><path class="cls-68" d="M262.92,251.35v1.55l-3.1,3.87q3.87,55-95.26,71.25-3.09-.78-.77-3.1,82.08-16.26,79-72.79v-9.29ZM307.83,170l8.52-7,20.13,17q2.32,3.1-2.32,3.87-11.61-.76-28.65,9.29a1.36,1.36,0,0,1-1.55-1.55l4.65-17.81L199.41,177a47.82,47.82,0,0,1-21.68,30.2c-2.59,1.55-4.14,1.3-4.65-.77q-2.33-9.3.78-13.17,14.7-11.61,13.94-24.78c0-1.55.25-2.32.77-2.32l2.32.77a33.57,33.57,0,0,1,7.75,6.2l41.82-.78V152.23l-.78-19.36,22.46,7c1,.52,1,1.29,0,2.32l-2.32,4.65L259,171.59h10.07q12.38-20.13,16.26-32.53l15.49,9.3c1,0,1,.26,0,.77l-2.32,1.55L297,152.23q-10.85,9.28-24,18.58ZM214.9,237.41v38.72a26.39,26.39,0,0,1-11.61,17q-3.89,2.32-4.65,0l.77-24V246.71l-.77-17.81c0-1,.51-1.29,1.55-.78l14.71,5.42L286.15,232l7.74-8.52L309.38,232c1,.52,1,1.3,0,2.33l-3.87,5.42v11.61l.77,15.49Q304,277.7,292.34,286.2c-3.09,1-4.91.78-5.42-.77V235.87Zm-10.84-94.47q22.45,6.19,22.46,13.16a16.62,16.62,0,0,1-7.75,10.84c-3.61,1.55-5.68.27-6.19-3.87q-2.33-13.15-9.29-19.36C202.77,142.68,203,142.43,204.06,142.94Zm92.15,73.57q-15.49-.76-75.89-.78-1.56,4.65-9.29,10.07c-3.1,1-4.65.77-4.65-.78l.78-17V197.92L206.38,184l14.72,7,54.21-1.55,7-8.52,16.26,8.52c1,0,1.28.52.77,1.55l-3.87,4.65v15.48L297,215C297.5,216,297.24,216.51,296.21,216.51Zm-75.89-21.69v17.81l55-.77.77-18.59Zm41.05,91.38q46.45,9.3,53.43,17,4.65,7-.77,17.81-2.32,4.65-7.75,0a123.78,123.78,0,0,0-45.69-32.52C259.55,287.5,259.82,286.72,261.37,286.2Z" transform="translate(-51.5 -39.94)"/></svg>