<?xml version="1.0" encoding="utf-8"?>
<!-- Generator: Adobe Illustrator 22.0.0, SVG Export Plug-In . SVG Version: 6.00 Build 0)  -->
<svg version="1.1" id="图层_1" xmlns="http://www.w3.org/2000/svg" xmlns:xlink="http://www.w3.org/1999/xlink" x="0px" y="0px"
	 viewBox="0 0 174.6 87.9" style="enable-background:new 0 0 174.6 87.9;" xml:space="preserve">
<style type="text/css">
	.st0{fill:#669934;}
</style>
<path class="st0" d="M173.8,47.2l-36.3,38.7c-2.5,2.5-5,2.5-7.5,0s-2.5-6.3,0-7.5l32.5-35L130,9.6c-2.5-2.5-2.5-5,0-7.5s5-2.5,7.5,0
	l35,37.5l0,0l0,0C175,42.2,175,44.7,173.8,47.2z M121.3,49.4c-1.3,1.3-35,36.2-35,36.2c-2.5,2.5-5,2.5-7.5,0s-2.5-6.3,0-7.5
	l27.5-28.8L2.5,49.4c-1.3,0-2.5-1.2-2.5-2.5v-5c0-1.3,1.3-2.5,2.5-2.5h103.8l-27.5-30c-2.5-2.5-2.5-5,0-7.5s5-2.5,7.5,0l33.8,36.3
	C120,38.2,127.5,43.2,121.3,49.4z"/>
</svg>
