<svg id="图层_1" data-name="图层 1" xmlns="http://www.w3.org/2000/svg" viewBox="0 0 412.12 412.5"><defs><style>.cls-1{fill:#a9adc6;}</style></defs><title>search</title><path class="cls-1" d="M452,431.82l-70.08-75a189.8,189.8,0,0,0,44-121.76c0-105.33-85.71-191-191.07-191s-191,85.69-191,191,85.71,191,191.05,191A189.91,189.91,0,0,0,314,409a14.69,14.69,0,1,0-12.17-26.74,160.85,160.85,0,0,1-66.94,14.46c-89.14,0-161.65-72.52-161.65-161.65S145.78,73.41,234.92,73.41s161.67,72.52,161.67,161.65a160.83,160.83,0,0,1-45,111.94,14.7,14.7,0,0,0,.4,20.78,12.9,12.9,0,0,0,1.51,1,12.64,12.64,0,0,0,1.1,1.79l76,81.33a14.68,14.68,0,0,0,21.47-20Zm0,0" transform="translate(-43.88 -44.02)"/></svg>