<svg id="图层_1" data-name="图层 1" xmlns="http://www.w3.org/2000/svg" viewBox="0 0 355.76 419.8"><defs><style>.cls-1{fill:#999;}</style></defs><title>未标题-6</title><path class="cls-1" d="M415.79,455.79a17.59,17.59,0,0,1-9.15-2.54L255.7,362.7,104.76,453.25A17.77,17.77,0,0,1,77.82,438V53.79A17.78,17.78,0,0,1,95.61,36H415.79a17.78,17.78,0,0,1,17.79,17.79V438a17.74,17.74,0,0,1-17.79,17.79ZM255.7,324.17a17.78,17.78,0,0,1,9.15,2.54L398,406.6v-335H113.4v335l133.15-79.89A17.78,17.78,0,0,1,255.7,324.17Z" transform="translate(-77.82 -36)"/><path class="cls-1" d="M326.85,142.73H184.55a17.79,17.79,0,0,1,0-35.58h142.3a17.79,17.79,0,0,1,0,35.58Z" transform="translate(-77.82 -36)"/><path class="cls-1" d="M326.85,213.88H184.55a17.79,17.79,0,0,1,0-35.58h142.3a17.79,17.79,0,0,1,0,35.58Z" transform="translate(-77.82 -36)"/><path class="cls-1" d="M326.85,285H184.55a17.79,17.79,0,1,1,0-35.57h142.3a17.79,17.79,0,1,1,0,35.57Z" transform="translate(-77.82 -36)"/></svg>