<?xml version="1.0" encoding="utf-8"?>
<!-- Generator: Adobe Illustrator 22.0.0, SVG Export Plug-In . SVG Version: 6.00 Build 0)  -->
<svg version="1.1" id="图层_1" xmlns="http://www.w3.org/2000/svg" xmlns:xlink="http://www.w3.org/1999/xlink" x="0px" y="0px"
	 viewBox="0 0 355.8 419.8" style="enable-background:new 0 0 355.8 419.8;" xml:space="preserve">
<style type="text/css">
	.st0{fill:#FFFFFF;}
</style>
<title>未标题-6</title>
<path class="st0" d="M338,419.8c-3.2,0-6.4-0.9-9.1-2.5l-150.9-90.5L26.9,417.3c-8.4,5.1-19.3,2.4-24.4-6.1c-1.7-2.8-2.6-6-2.5-9.2
	V17.8C0,8,8,0,17.8,0c0,0,0,0,0,0H338c9.8,0,17.8,8,17.8,17.8c0,0,0,0,0,0V402c0,9.8-7.9,17.8-17.7,17.8
	C338,419.8,338,419.8,338,419.8z M177.9,288.2c3.2,0,6.4,0.9,9.1,2.5l133.1,79.9v-335H35.6v335l133.1-79.9
	C171.5,289,174.7,288.2,177.9,288.2z"/>
<path class="st0" d="M249,106.7H106.7c-9.8,0-17.8-8-17.8-17.8s8-17.8,17.8-17.8H249c9.8,0,17.8,8,17.8,17.8S258.9,106.7,249,106.7
	L249,106.7z"/>
<path class="st0" d="M249,177.9H106.7c-9.8,0-17.8-8-17.8-17.8c0-9.8,8-17.8,17.8-17.8H249c9.8,0,17.8,8,17.8,17.8
	C266.8,169.9,258.9,177.9,249,177.9L249,177.9z"/>
<path class="st0" d="M249,249H106.7c-9.8,0.2-18-7.5-18.2-17.4s7.5-18,17.4-18.2c0.3,0,0.6,0,0.8,0H249c9.8-0.2,18,7.5,18.2,17.4
	c0.2,9.8-7.5,18-17.4,18.2C249.6,249,249.3,249,249,249z"/>
</svg>
