<svg id="图层_1" data-name="图层 1" xmlns="http://www.w3.org/2000/svg" viewBox="0 0 661.04 572.88"><defs><style>.cls-1{fill:#373838;}</style></defs><title>评论</title><path class="cls-1" d="M1375,962.53a44.11,44.11,0,0,1,44.08,44.08V1293a44.11,44.11,0,0,1-44.08,44.08H1071l-11.6,8.56-80.72,59.2-.16-23.92-.32-43.76H890.24a44.11,44.11,0,0,1-44.08-44.08v-286.4a44.11,44.11,0,0,1,44.08-44.08H1375m0-44.16H890.16c-48.48,0-88.16,39.68-88.16,88.16V1293c0,48.48,39.68,88.16,88.16,88.16h44.16l.72,110.16,150.24-110.16h289.6c48.48,0,88.16-39.68,88.16-88.16v-286.4c.08-48.48-39.6-88.16-88.08-88.16Zm0,0" transform="translate(-802 -918.45)"/><rect class="cls-1" x="160.56" y="203.6" width="88.16" height="44.08"/><rect class="cls-1" x="292.8" y="203.6" width="88.16" height="44.08"/><rect class="cls-1" x="424.96" y="203.6" width="88.16" height="44.08"/></svg>