<svg id="图层_1" data-name="图层 1" xmlns="http://www.w3.org/2000/svg" viewBox="0 0 471.84 471.84"><defs><style>.cls-1{fill:#5cb644;}.cls-2{fill:none;stroke:#5cb644;stroke-miterlimit:10;stroke-width:5px;}</style></defs><title>微信</title><path class="cls-1" d="M299.63,202.21a93.06,93.06,0,0,1,10.3.64c-9.23-43-55.14-74.86-107.56-74.86-58.6,0-106.6,39.92-106.6,90.65,0,29.27,16,53.31,42.66,72l-10.66,32.06L165,304c13.33,2.62,24,5.33,37.33,5.33,3.35,0,6.66-.15,9.94-.4a79.92,79.92,0,0,1-3.3-22.36c0-46.57,40-84.37,90.62-84.37Zm-57.3-28.9c8.06,0,13.35,5.29,13.35,13.31S250.39,200,242.33,200s-16-5.35-16-13.33,8-13.31,16-13.31ZM167.73,200c-8,0-16-5.35-16-13.33s8-13.31,16-13.31S181,178.58,181,186.62,175.73,200,167.73,200ZM397,285.3C397,242.68,354.3,208,306.39,208c-50.73,0-90.66,34.75-90.66,77.35s40,77.34,90.66,77.34c10.62,0,21.33-2.65,32-5.32l29.23,16-8-26.65C381,330.63,397,309.33,397,285.3ZM277,272c-5.29,0-10.66-5.27-10.66-10.65s5.37-10.66,10.66-10.66c8.09,0,13.34,5.35,13.34,10.66S285.08,272,277,272Zm58.63,0c-5.25,0-10.59-5.27-10.59-10.65s5.32-10.66,10.59-10.66c8,0,13.35,5.35,13.35,10.66S343.64,272,335.62,272Zm0,0" transform="translate(-10.44 -14.75)"/><circle class="cls-2" cx="235.92" cy="235.92" r="233.42"/></svg>