<?xml version="1.0" encoding="UTF-8"?>
<svg width="12px" height="14px" viewBox="0 0 12 14" version="1.1" xmlns="http://www.w3.org/2000/svg" xmlns:xlink="http://www.w3.org/1999/xlink">
    <!-- Generator: Sketch 49.3 (51167) - http://www.bohemiancoding.com/sketch -->
    <title>用户</title>
    <desc>Created with Sketch.</desc>
    <defs></defs>
    <g id="视觉方案" stroke="none" stroke-width="1" fill="none" fill-rule="evenodd">
        <g transform="translate(-994.000000, -1519.000000)" fill="#C7C7C7" fill-rule="nonzero" id="用户">
            <g transform="translate(994.000000, 1519.000000)">
                <path d="M5.85429649,0.0142384711 C7.78992943,0.0142384711 9.35898491,1.54612541 9.35898491,3.4355564 C9.35898491,5.3253629 7.78994519,6.85732805 5.85429649,6.85732805 C3.91872661,6.85732805 2.34970264,5.32537854 2.34970264,3.4355564 C2.34968688,1.54568733 3.9192468,0.0142384711 5.85429649,0.0142384711 Z M5.85429649,0.0142384711 C7.78992943,0.0142384711 9.35898491,1.54612541 9.35898491,3.4355564 C9.35898491,5.3253629 7.78994519,6.85732805 5.85429649,6.85732805 C3.91872661,6.85732805 2.34970264,5.32537854 2.34970264,3.4355564 C2.34968688,1.54568733 3.9192468,0.0142384711 5.85429649,0.0142384711 Z M4.54013489,7.99809592 L7.46126292,7.99809592 C9.96161901,7.99809592 11.9883012,9.9763145 11.9883012,12.4175114 L11.9883012,12.7022262 C11.9883012,13.6642455 9.96119339,13.7008088 7.46126292,13.7008088 L4.54013489,13.7008088 C2.03969998,13.7008088 0.0130965751,13.6994007 0.0130965751,12.7022262 L0.0130965751,12.4175114 C0.0131280924,9.9763145 2.03971574,7.99809592 4.54013489,7.99809592 Z" id="Shape"></path>
            </g>
        </g>
    </g>
</svg>