<?xml version="1.0" encoding="UTF-8"?>
<svg width="10px" height="10px" viewBox="0 0 10 10" version="1.1" xmlns="http://www.w3.org/2000/svg" xmlns:xlink="http://www.w3.org/1999/xlink">
    <!-- Generator: Sketch 50.2 (55047) - http://www.bohemiancoding.com/sketch -->
    <title>back copy 3</title>
    <desc>Created with Sketch.</desc>
    <defs></defs>
    <g id="视觉方案" stroke="none" stroke-width="1" fill="none" fill-rule="evenodd">
        <g transform="translate(-2019.000000, -1395.000000)" fill="#383838" fill-rule="nonzero" id="back-copy-3">
            <g transform="translate(2019.000000, 1395.000000)">
                <path d="M1.00459059,5.29409224 L5.20848721,9.49730651 C5.28287861,9.57169624 5.31193175,9.68012163 5.28470261,9.78173989 C5.25747347,9.88335815 5.17809879,9.96273104 5.07647826,9.98995957 C4.97485772,10.0171881 4.86642991,9.9881356 4.79203851,9.91374587 L0.0864035718,5.20821633 C0.0310878287,5.15304149 0,5.07812447 0,4.99999664 C0,4.92186882 0.0310878287,4.8469518 0.0864035718,4.79177696 L4.79203851,0.0862474138 C4.90703764,-0.0287491375 5.09348807,-0.028749138 5.2084872,0.0862474127 C5.32348633,0.201243963 5.32348634,0.387690213 5.20848721,0.502686772 L1.00459059,4.70590105 L9.70589782,4.70590105 C9.86832597,4.70590105 10,4.83757213 10,4.99999664 C10,5.16242115 9.86832597,5.29409224 9.70589782,5.29409224 L1.00459059,5.29409224 Z" id="Shape"></path>
            </g>
        </g>
    </g>
</svg>