<?xml version="1.0" encoding="UTF-8"?>
<svg width="20px" height="20px" viewBox="0 0 20 20" version="1.1" xmlns="http://www.w3.org/2000/svg" xmlns:xlink="http://www.w3.org/1999/xlink">
    <!-- Generator: Sketch 49.3 (51167) - http://www.bohemiancoding.com/sketch -->
    <title>关闭 copy 12</title>
    <desc>Created with Sketch.</desc>
    <defs></defs>
    <g id="视觉方案" stroke="none" stroke-width="1" fill="none" fill-rule="evenodd" fill-opacity="0.5">
        <g transform="translate(-1300.000000, -6097.000000)" fill="#383838" fill-rule="nonzero" id="关闭-copy-12">
            <g transform="translate(1300.000000, 6097.000000)">
                <path d="M19.8688616,19.2375223 L10.6348884,10.0035491 L19.8676562,0.770758929 C20.0420089,0.59640625 20.0420089,0.31375 19.8676562,0.139419643 C19.6933036,-0.0349107143 19.4106473,-0.0349330357 19.236317,0.139419643 L10.0035491,9.37220982 L0.770758929,0.139419643 C0.59640625,-0.0349330357 0.31375,-0.0349330357 0.139419643,0.139419643 C-0.0349107143,0.313772321 -0.0349330357,0.596428571 0.139419643,0.770758929 L9.3721875,10.0035268 L0.138214286,19.2375223 C-0.0361383929,19.411875 -0.0361383929,19.6945313 0.138214286,19.8688616 C0.312566964,20.043192 0.595223214,20.0432143 0.769553571,19.8688616 L10.0035268,10.6348884 L19.2375,19.8688616 C19.4118527,20.0432143 19.6945089,20.0432143 19.8688393,19.8688616 C20.0431696,19.6945089 20.0432143,19.4118527 19.8688616,19.2375223 Z" id="Shape"></path>
            </g>
        </g>
    </g>
</svg>