<?xml version="1.0" encoding="UTF-8"?>
<svg width="14px" height="10px" viewBox="0 0 14 10" version="1.1" xmlns="http://www.w3.org/2000/svg" xmlns:xlink="http://www.w3.org/1999/xlink">
    <!-- Generator: Sketch 49.3 (51167) - http://www.bohemiancoding.com/sketch -->
    <title>眼睛 copy</title>
    <desc>Created with Sketch.</desc>
    <defs></defs>
    <g id="视觉方案" stroke="none" stroke-width="1" fill="none" fill-rule="evenodd" opacity="0.8">
        <g transform="translate(-1233.000000, -6251.000000)" fill="#C7C7C7" fill-rule="nonzero" id="眼睛-copy">
            <g transform="translate(1233.000000, 6251.000000)">
                <path d="M7,0.00665414191 C3.8195482,0.00665414191 1.10345846,2.07722812 0.00301249099,5 C1.10344232,7.9227719 3.8195482,9.99334586 7,9.99334586 C10.18363,9.99334586 12.8965577,7.92277188 13.9969875,5 C12.8965415,2.0772281 10.18363,0.00665414191 7,0.00665414191 Z M7,8.32890287 C5.24440068,8.32890287 3.8195482,6.83756073 3.8195482,5 C3.8195482,3.16243927 5.24438455,1.67109713 7,1.67109713 C8.75561545,1.67109713 10.1804518,3.16243927 10.1804518,5 C10.1804518,6.83756073 8.75559932,8.32890287 7,8.32890287 Z M7,3.00266165 C5.94727605,3.00266165 5.09173214,3.89813901 5.09173214,5 C5.09173214,6.10186099 5.94727605,6.99733835 7,6.99733835 C8.05272395,6.99733835 8.90826786,6.10186099 8.90826786,5 C8.90826786,3.89813901 8.05272395,3.00266165 7,3.00266165 Z" id="Shape"></path>
            </g>
        </g>
    </g>
</svg>