<?xml version="1.0" encoding="UTF-8"?>
<svg width="12px" height="6px" viewBox="0 0 12 6" version="1.1" xmlns="http://www.w3.org/2000/svg" xmlns:xlink="http://www.w3.org/1999/xlink">
    <!-- Generator: Sketch 49.3 (51167) - http://www.bohemiancoding.com/sketch -->
    <title>眼睛-闭</title>
    <desc>Created with Sketch.</desc>
    <defs></defs>
    <g id="视觉方案" stroke="none" stroke-width="1" fill="none" fill-rule="evenodd" opacity="0.8">
        <g transform="translate(-1229.000000, -1583.000000)" fill="#C7C7C7" fill-rule="nonzero" id="眼睛-闭">
            <g transform="translate(1229.000000, 1583.000000)">
                <path d="M6.0009482,4.38452722 C3.57562693,4.38452722 1.31421624,3.07879869 0.0973883891,0.977131398 C-0.0804129367,0.670146285 0.0251566018,0.278427733 0.330752633,0.100626394 C0.637737747,-0.0771749321 1.03084538,0.0283946063 1.20725764,0.333990638 C2.19488847,2.03977216 4.03124283,3.09963478 5.99955914,3.09963478 C7.96787544,3.09963478 9.80422981,2.03977216 10.7918606,0.33260157 C10.969662,0.025616457 11.3613805,-0.0799530814 11.6683656,0.0978482443 C11.9753507,0.27564957 12.0795312,0.667368136 11.903119,0.974353249 C10.6876802,3.07879869 8.42626949,4.38452722 6.0009482,4.38452722 Z M2.67550769,5.02350075 C2.56299278,5.02350075 2.44769973,4.99433021 2.34490834,4.93182193 C2.04070138,4.7484643 1.94346627,4.3539676 2.1268239,4.05114972 L2.83525108,2.87877219 C3.0186087,2.57456522 3.4131054,2.47871919 3.71592329,2.66068774 C4.02013025,2.84404537 4.11736535,3.23854207 3.93400773,3.54135996 L3.22558056,4.71373748 C3.10473122,4.91237491 2.89359214,5.02350075 2.67550769,5.02350075 Z M9.2916619,5.02350075 C9.07496652,5.02350075 8.86243838,4.91376399 8.74158903,4.71373748 L8.03316186,3.54135996 C7.84980424,3.237153 7.94703934,2.84404537 8.24985722,2.66068774 C8.55406419,2.47733012 8.94717182,2.57456522 9.13052944,2.87738312 L9.83895662,4.04976064 C10.0223142,4.3539676 9.92507914,4.74707524 9.62226125,4.93043286 C9.51946986,4.99294114 9.40417681,5.02350075 9.2916619,5.02350075 Z M6.0009482,5.85833355 C5.64673462,5.85833355 5.35919652,5.57079546 5.35919652,5.21658187 L5.35919652,3.74277554 C5.35919652,3.38856195 5.64673462,3.10102386 6.0009482,3.10102386 C6.35516179,3.10102386 6.64269988,3.38856195 6.64269988,3.74277554 L6.64269988,5.21658187 C6.64269988,5.57079546 6.35516179,5.85833355 6.0009482,5.85833355 Z" id="Shape"></path>
            </g>
        </g>
    </g>
</svg>