<?xml version="1.0" encoding="UTF-8"?>
<svg width="12px" height="14px" viewBox="0 0 12 14" version="1.1" xmlns="http://www.w3.org/2000/svg" xmlns:xlink="http://www.w3.org/1999/xlink">
    <!-- Generator: Sketch 49.3 (51167) - http://www.bohemiancoding.com/sketch -->
    <title>后十年 密码 copy</title>
    <desc>Created with Sketch.</desc>
    <defs></defs>
    <g id="视觉方案" stroke="none" stroke-width="1" fill="none" fill-rule="evenodd">
        <g transform="translate(-999.000000, -6249.000000)" fill="#C7C7C7" fill-rule="nonzero" id="后十年-密码-copy">
            <g transform="translate(999.000000, 6249.000000)">
                <path d="M8.93256457,4.68473097 C8.93256457,2.72183212 8.09743265,1.22266879 5.93704884,1.22266879 C3.77662933,1.22266879 2.94190792,2.72184792 2.94190792,4.68473097 L1.56174749,4.68473097 C1.56174749,2.32926184 3.05170019,0.00059623166 5.93703099,0.00059623166 C8.82236178,0.00059623166 10.312725,2.32926184 10.312725,4.68473097 L8.93256457,4.68473097 Z M11.9852168,6.69191249 C11.9852168,6.01703612 11.367128,5.46983994 10.6050564,5.46983994 L1.39492577,5.46983992 C0.632747076,5.46983992 0.0147653372,6.01703612 0.0147653372,6.69191248 L0.0147653372,12.4920752 C0.0147653372,13.1664933 0.632747093,13.7136895 1.39492577,13.7136895 L10.6054669,13.7136895 C11.367128,13.7136895 11.985199,13.1664933 11.985199,12.4916169 L11.985199,6.69191249 L11.9852168,6.69191249 Z M7.10832985,11.2267947 C7.10832985,11.7332008 6.64500417,12.14344 6.0731069,12.14344 L5.92635764,12.14344 C5.35485303,12.14344 4.89161658,11.7332008 4.89161658,11.2267947 L4.8916166,8.74149603 C4.8916166,8.23545334 5.35485303,7.82519842 5.92687524,7.82519842 L6.0735888,7.82519842 C6.64498633,7.82519842 7.10832985,8.23545334 7.10832985,8.74187532 L7.10832985,11.2267947 Z" id="Shape"></path>
            </g>
        </g>
    </g>
</svg>