<?xml version="1.0" encoding="UTF-8"?>
<svg width="121px" height="92px" viewBox="0 0 121 92" version="1.1" xmlns="http://www.w3.org/2000/svg" xmlns:xlink="http://www.w3.org/1999/xlink">
    <!-- Generator: Sketch 50.2 (55047) - http://www.bohemiancoding.com/sketch -->
    <title>Group 2</title>
    <desc>Created with Sketch.</desc>
    <defs></defs>
    <g id="作者个人中心" stroke="none" stroke-width="1" fill="none" fill-rule="evenodd">
        <g id="14-1-作者个人中心-我的文章1(空状态)" transform="translate(-903.000000, -355.000000)">
            <g id="Group" transform="translate(807.000000, 355.000000)">
                <g id="Group-2" transform="translate(96.000000, 0.000000)">
                    <circle id="Oval" fill-opacity="0.3" fill="#5AC0A1" cx="75" cy="46" r="46"></circle>
                    <g id="点赞" transform="translate(0.000000, 5.000000)" fill="#000000" fill-rule="nonzero">
                        <path d="M77.6675767,32.2717948 C75.6137415,29.6834637 72.5394504,28.1990236 69.2335313,28.1990236 L50.4110167,28.1990236 C51.4389284,25.3344714 52.1189009,22.2210221 52.3609672,19.2089202 C52.7372385,14.5243888 52.0165074,10.3638826 50.2778057,7.17690682 C48.1374828,3.2561566 44.4940627,0.8107054 39.7405178,0.104751769 C37.5870726,-0.215187808 35.7350421,0.198647079 34.2354243,1.33403514 C31.2038801,3.62945256 30.6474757,7.99762138 30.0029929,13.0555481 C29.4878442,17.09871 28.9040022,21.6816954 26.9421224,24.9665409 C25.6326782,27.1589219 23.0842724,30.0733528 16.0971569,30.0733528 L8.80584319,30.0733528 C3.95040186,30.0733528 0,34.0201354 0,38.8711944 L0,72.132391 C0,76.9831519 3.95030245,80.9302326 8.80584319,80.9302326 L61.9248207,80.9302326 C64.3434949,80.9302326 66.7184282,80.1030596 68.6127084,78.602225 C70.5074857,77.1008936 71.8540103,74.9780647 72.4047483,72.6252172 L79.7134589,41.3999094 C80.4660017,38.1857089 79.7199207,34.8586354 77.6675767,32.2717948 Z M5.86923664,72.1324904 L5.86923664,38.8714925 C5.86923664,37.2549034 7.18663373,35.9398722 8.80554495,35.9398722 L14.9921021,35.9398722 L14.9921021,75.0641106 L8.80554495,75.0641106 C7.18673314,75.0641106 5.86923664,73.7490795 5.86923664,72.1324904 Z M73.9983097,40.0638139 L66.689599,71.2899166 C66.1696785,73.5116088 64.2102839,75.0641106 61.9248207,75.0641106 L20.861637,75.0641106 L20.861637,35.5144122 C25.8199689,34.5685039 29.550175,32.0447569 31.9817727,27.9734761 C34.5714342,23.6374006 35.2374891,18.4093693 35.8252081,13.7967746 C36.090636,11.7124974 36.3414504,9.74387544 36.739791,8.23360166 C37.1669609,6.61383303 37.6091419,6.1390904 37.7793338,6.01022032 C37.9741798,5.86267055 38.3436912,5.82789451 38.8778275,5.9073826 C41.8218899,6.34456712 43.8657839,7.67897349 45.1248267,9.98631413 C47.7085235,14.7200288 46.566786,22.7095758 44.1043708,28.1553051 C43.5148624,29.4596054 43.6242147,30.9539815 44.3986279,32.1527614 C45.172047,33.3502495 46.487257,34.0651455 47.917287,34.0651455 L69.2334319,34.0651455 C70.7370262,34.0651455 72.1347475,34.7399994 73.0687156,35.91692 C74.001292,37.0922508 74.3402841,38.6037169 73.9983097,40.0638139 Z" id="Shape"></path>
                    </g>
                </g>
            </g>
        </g>
    </g>
</svg>