<?xml version="1.0" encoding="UTF-8"?>
<svg width="121px" height="92px" viewBox="0 0 121 92" version="1.1" xmlns="http://www.w3.org/2000/svg" xmlns:xlink="http://www.w3.org/1999/xlink">
    <!-- Generator: Sketch 50.2 (55047) - http://www.bohemiancoding.com/sketch -->
    <title>Group</title>
    <desc>Created with Sketch.</desc>
    <defs></defs>
    <g id="作者个人中心" stroke="none" stroke-width="1" fill="none" fill-rule="evenodd">
        <g id="18-1-投资人&amp;作者个人中心-我的评论1(空状态)-" transform="translate(-909.000000, -355.000000)">
            <g id="Group" transform="translate(909.000000, 355.000000)">
                <circle id="Oval" fill-opacity="0.3" fill="#5AC0A1" cx="75" cy="46" r="46"></circle>
                <g id="留言-(1)" transform="translate(40.000000, 51.530239) scale(-1, 1) translate(-40.000000, -51.530239) translate(0.000000, 18.000000)" fill="#000000" fill-rule="nonzero">
                    <path d="M70.7302291,0.0716419691 L9.24930183,0.0716419691 C4.17024889,0.0716419691 0.0381067792,4.20378408 0.0381067792,9.28283702 L0.0381067792,43.4769806 C0.0381067792,48.5560335 4.17024889,52.6881756 9.24930183,52.6881756 L39.0413003,52.6881758 L52.7597633,66.2967953 C53.208809,66.7422717 53.7952168,66.964722 54.3813941,66.964722 C54.9739042,66.964722 55.5661841,66.7374358 56.0163812,66.2836693 C56.9119397,65.3807419 56.9061826,63.9227248 56.0032552,63.0270513 L41.6115691,48.750505 C41.5966008,48.735652 41.580251,48.7229866 41.5649374,48.7085941 C41.5260201,48.6719796 41.4869877,48.6354803 41.4456524,48.6016291 C41.4180189,48.5790617 41.3891188,48.5592576 41.3607943,48.538187 C41.3289005,48.5144682 41.2976976,48.4901736 41.2646524,48.4680668 C41.2319526,48.4463054 41.1981015,48.4271921 41.1644807,48.4072729 C41.1335081,48.3888505 41.1032262,48.3697373 41.0713324,48.3526966 C41.0369055,48.3343893 41.0016728,48.3187304 40.9666703,48.3022653 C40.93351,48.2867215 40.9009253,48.2704866 40.8669591,48.2564396 C40.8325322,48.2422774 40.7974146,48.2306482 40.7625271,48.2182131 C40.7264883,48.2053175 40.6909102,48.1918461 40.6541805,48.1807926 C40.6191779,48.1703148 40.5835997,48.1623702 40.5482517,48.1535044 C40.5107161,48.144178 40.4736411,48.1339306 40.4355297,48.1264465 C40.3963821,48.118732 40.3568891,48.1140114 40.3175112,48.1084846 C40.2826238,48.1035336 40.248197,48.0972009 40.2128491,48.0938618 C40.1604604,48.0887957 40.1078415,48.087414 40.0553376,48.0859172 C40.033461,48.0853414 40.0121601,48.0825781 39.9901684,48.0825781 L9.24930183,48.0825782 C6.7097753,48.0825782 4.6437043,46.0165072 4.6437043,43.4769807 L4.6437043,9.28283702 C4.6437043,6.74331049 6.7097753,4.67723949 9.24930183,4.67723949 L70.7302291,4.67723949 C73.2697556,4.67723949 75.3358266,6.74331049 75.3358266,9.28283702 L75.3358266,43.4769806 C75.3358266,46.0165071 73.2697556,48.0825781 70.7302291,48.0825781 L56.6845384,48.0825782 C55.4127027,48.0825782 54.3817396,49.1135413 54.3817396,50.385377 C54.3817396,51.6572127 55.4127027,52.6881758 56.6845384,52.6881758 L70.7302292,52.6881758 C75.8092821,52.6881758 79.9414242,48.5560336 79.9414242,43.4769807 L79.9414241,9.28283702 C79.9414241,4.20378408 75.809282,0.0716419691 70.7302291,0.0716419691 Z M18.563432,26.5042024 C18.563432,28.4119034 20.1099292,29.9584006 22.0176302,29.9584006 C23.9253311,29.9584006 25.4718283,28.4119034 25.4718283,26.5042024 C25.4718283,24.5965015 23.9253311,23.0500043 22.0176302,23.0500043 C20.1099292,23.0500043 18.563432,24.5965015 18.563432,26.5042024 Z M36.5252623,26.5042024 C36.5252623,28.4119034 38.0717595,29.9584006 39.9794605,29.9584006 C41.8871614,29.9584006 43.4336586,28.4119034 43.4336586,26.5042024 C43.4336586,24.5965015 41.8871614,23.0500043 39.9794605,23.0500043 C38.0717595,23.0500043 36.5252623,24.5965015 36.5252623,26.5042024 Z M54.2568127,26.5042024 C54.2568127,28.4119034 55.8033099,29.9584006 57.7110109,29.9584006 C59.6187118,29.9584006 61.165209,28.4119034 61.165209,26.5042024 C61.165209,24.5965015 59.6187118,23.0500043 57.7110109,23.0500043 C55.8033099,23.0500043 54.2568127,24.5965015 54.2568127,26.5042024 Z" id="Shape"></path>
                </g>
            </g>
        </g>
    </g>
</svg>