<?xml version="1.0" encoding="UTF-8"?>
<svg width="121px" height="92px" viewBox="0 0 121 92" version="1.1" xmlns="http://www.w3.org/2000/svg" xmlns:xlink="http://www.w3.org/1999/xlink">
    <!-- Generator: Sketch 50.2 (55047) - http://www.bohemiancoding.com/sketch -->
    <title>Group</title>
    <desc>Created with Sketch.</desc>
    <defs></defs>
    <g id="作者个人中心" stroke="none" stroke-width="1" fill="none" fill-rule="evenodd">
        <g id="18-2-投资人&amp;作者个人中心-我的关注1(空状态)" transform="translate(-909.000000, -334.000000)">
            <g id="Group" transform="translate(909.000000, 334.000000)">
                <circle id="Oval" fill-opacity="0.3" fill="#5AC0A1" cx="75" cy="46" r="46"></circle>
                <g id="已关注" transform="translate(0.000000, 12.000000)" fill-rule="nonzero">
                    <path d="M40,74.9366774 C39.0123504,74.9404146 38.0522945,74.611279 37.275,74.0024668 L32.525,70.2356498 C28.97,67.3880561 25.41,64.4755172 22.085,61.6678897 L20.04,59.9293588 C14.345,55.0484832 10.5,51.4365354 8.285,48.8886883 C2.48,42.2043367 0,35.1303144 0,25.2286814 C0,11.3204341 10,0 22.29,0 C29.37,0 35.835,3.70686764 40,9.91662031 C44.165,3.70686764 50.63,0 57.71,0 C70,0 80,11.3204341 80,25.2286814 C80,26.6082275 78.8807119,27.7265706 77.5,27.7265706 C76.1192881,27.7265706 75,26.6082275 75,25.2286814 C75,14.073108 67.245,4.99577849 57.71,4.99577849 C51.175,4.99577849 45.27,9.25717755 42.295,16.1163814 C41.5,17.9448363 38.5,17.9448363 37.705,16.1163814 C34.73,9.25717755 28.825,4.99577849 22.29,4.99577849 C12.755,4.99577849 5,14.073108 5,25.2286814 C5,33.8214204 7.11,39.9162702 12.06,45.6214492 C14.085,47.949482 17.86,51.4914889 23.295,56.1425587 L25.315,57.8561107 C28.605,60.6337636 32.13,63.5163277 35.65,66.3389426 L40,69.7860298 L43.23,67.2331869 C43.9257431,66.6402996 44.8899463,66.4742469 45.7441971,66.8001984 C46.5984478,67.1261498 47.2064336,67.8920932 47.3295433,68.7974255 C47.4526531,69.7027577 47.0712423,70.6030152 46.335,71.1448815 L42.735,73.9924752 C41.9563318,74.6069995 40.9922665,74.9398231 40,74.9366774 Z" id="Shape" fill="#383838"></path>
                    <path d="M59.9614973,61.7721507 C59.3879562,61.7727179 58.8329029,61.569027 58.3955347,61.197481 L46.8647977,51.457316 C45.837444,50.5898966 45.7068032,49.0527074 46.5730034,48.0239078 C47.4392036,46.9951081 48.9742324,46.8642835 50.0015861,47.7317028 L59.7377883,55.9572722 L75.8156527,38.2155616 C76.7277622,37.2657343 78.2289085,37.2148496 79.2030689,38.1007376 C80.1772293,38.9866256 80.270903,40.4878177 79.4144487,41.4882571 L61.7657585,60.9685871 C61.3049026,61.479935 60.6493419,61.7719019 59.9614973,61.7721507 Z" id="Shape" fill="#F5A623"></path>
                </g>
            </g>
        </g>
    </g>
</svg>