<?xml version="1.0" encoding="UTF-8"?>
<svg width="80px" height="78px" viewBox="0 0 80 78" version="1.1" xmlns="http://www.w3.org/2000/svg" xmlns:xlink="http://www.w3.org/1999/xlink">
    <!-- Generator: Sketch 50.2 (55047) - http://www.bohemiancoding.com/sketch -->
    <title>27收入</title>
    <desc>Created with Sketch.</desc>
    <defs></defs>
    <g id="作者个人中心" stroke="none" stroke-width="1" fill="none" fill-rule="evenodd">
        <g id="13-2-作者个人中心-我的收入1(没有收入来源的样式)" transform="translate(-928.000000, -342.000000)">
            <g id="27收入" transform="translate(928.000000, 342.000000)">
                <path d="M75.6524448,43.2488545 C75.2326057,42.1335126 74.5928508,41.1267438 73.783161,40.2877698 C73.2433678,39.7251637 72.6136091,39.2316496 71.9338695,38.826968 C70.6343674,38.057086 69.1149495,37.6227935 67.4955699,37.6227935 C67.3756158,37.6227935 67.2556618,37.6227935 67.1457039,37.6326638 C66.5259414,36.3593974 65.7662324,35.1256121 64.8865694,33.9411782 C64.0568873,32.8455769 63.1272435,31.7993269 62.0776456,30.822169 L61.5678409,30.3483954 L61.4778754,29.6574757 C61.3179366,28.4927824 60.9380822,25.8376764 60.5882162,23.4688086 C59.8085149,24.3867449 58.9688366,25.3244217 58.2191238,26.0646929 L57.169526,27.1010725 L55.8600277,26.4101528 C51.1718238,23.9228416 45.7339071,22.5607427 40.1060633,22.4719101 L39.5262854,22.4719101 C38.2667679,22.4719101 37.0272428,22.5311318 35.80771,22.6594455 C29.3701764,23.3108841 23.5624014,25.6205302 19.0841171,29.0356479 C17.9445537,29.9042327 16.8949558,30.8419096 15.9453197,31.8486784 C12.1467749,35.8362724 9.88764045,40.820765 9.88764045,46.2099392 C9.88764045,52.7539364 13.2163652,58.6859761 18.5843086,62.9894192 C19.8138376,63.9764475 21.1533244,64.8746432 22.5827767,65.674136 L22.5827767,74.6067416 L28.9303449,74.6067416 L28.9303449,68.3785934 C30.2198508,68.7734047 31.5593377,69.1089943 32.928813,69.3557514 C35.0480011,69.7406924 37.2571547,69.9479683 39.5262854,69.9479683 C41.6654658,69.9479683 43.7546654,69.7604329 45.7738918,69.414973 C47.1433672,69.1780863 48.482854,68.8721075 49.7723599,68.4871665 L49.7723599,74.6067416 L56.1199281,74.6067416 L56.1199281,65.8715417 C57.5493804,65.1016597 58.8788711,64.2232045 60.1183962,63.2657871 C61.9576915,61.8444665 63.567075,60.2356104 64.8965656,58.4688299 C65.7762286,57.3041366 66.5359375,56.0703513 67.1656963,54.7773443 C67.2856503,54.7773443 67.3956082,54.7872146 67.5155622,54.7872146 C69.144938,54.7872146 70.6643559,54.3430519 71.963858,53.5731698 C72.6435976,53.1684883 73.2633601,52.6848444 73.8031533,52.1222383 C74.6128431,51.2832643 75.2625942,50.2764955 75.6724372,49.1611536 L79.1011236,49.1611536 L79.1011236,43.2389842 L75.6524448,43.2389842 L75.6524448,43.2488545 Z" id="Shape" fill-opacity="0.351477582" fill="#5AC0A1" fill-rule="nonzero"></path>
                <path d="M53.0337079,36.8539326 C53.0337079,37.846804 53.8385892,38.6516854 54.8314607,38.6516854 C55.8243321,38.6516854 56.6292135,37.846804 56.6292135,36.8539326 C56.6292135,35.8610611 55.8243321,35.0561798 54.8314607,35.0561798 C53.8385892,35.0561798 53.0337079,35.8610611 53.0337079,36.8539326 Z" id="Shape" fill="#383838" fill-rule="nonzero" opacity="0.829999983"></path>
                <path d="M13.9084681,25.1174778 C11.649219,22.8775124 10.2482872,19.7614718 10.2482872,16.3268583 C10.2482872,9.51736375 15.7336257,3.98216056 22.4817758,3.98216056 C29.229926,3.98216056 34.7152645,9.51736375 34.7152645,16.3268583 C34.7152645,16.5458771 34.7053987,16.7748514 34.695533,16.9938702 C35.603179,16.9341378 36.5206906,16.8943162 37.4382022,16.8943162 C37.8426966,16.8943162 38.247191,16.9042716 38.6418197,16.914227 C38.6516854,16.715119 38.6516854,16.5259663 38.6516854,16.3268583 C38.6516854,7.32717544 31.390518,0 22.4719101,0 C13.5533023,0 6.29213483,7.32717544 6.29213483,16.3268583 C6.29213483,20.8266997 8.10742669,24.9084143 11.0375445,27.8651685 C11.925459,26.8994946 12.8824335,25.9835977 13.9084681,25.1174778 Z" id="Shape" fill="#F5A623" fill-rule="nonzero"></path>
                <path d="M19.4461056,17.3591497 L21.330429,17.3591497 L21.330429,16.1531827 L19.4461056,16.1531827 C18.65329,16.1531827 18.2568881,15.8907758 18.2568881,15.3659542 C18.2568881,14.8522991 18.65329,14.5954753 19.4461056,14.5954753 L20.5097015,14.5954753 L18.005645,10.6677079 C17.8046495,10.3550482 17.6734461,10.1317232 17.6120308,9.9977262 C17.5506155,9.8637292 17.5199083,9.7157764 17.5199083,9.55386335 C17.5199083,9.26353652 17.6078425,9.03044106 17.7837136,8.85457 C17.9595846,8.67869893 18.187097,8.59076472 18.4662574,8.59076472 C18.751001,8.59076472 18.9813049,8.67730315 19.157176,8.85038261 C19.333047,9.02346207 19.5382269,9.30261831 19.7727216,9.68785969 L22.4777726,13.9254937 L24.8980813,9.93072804 C24.9874126,9.7743982 25.0823258,9.6110918 25.1828235,9.44080395 C25.2833213,9.27051609 25.3810259,9.12535485 25.4759405,9.00531587 C25.570855,8.88527689 25.6894964,8.78617643 25.8318682,8.70801151 C25.9742401,8.62984659 26.1431296,8.59076472 26.3385419,8.59076472 C26.6177023,8.59076472 26.8452146,8.67590737 27.0210857,8.84619523 C27.1969568,9.01648308 27.284891,9.22445448 27.284891,9.47011565 C27.284891,9.66552794 27.2499964,9.84418793 27.1802063,10.006101 C27.1104162,10.168014 27.0001495,10.3717981 26.8494029,10.6174592 L24.4374689,14.5954753 L25.5010648,14.5954753 C26.2882972,14.5954753 26.6819075,14.8522991 26.6819075,15.3659542 C26.6819075,15.8907758 26.2882972,16.1531827 25.5010648,16.1531827 L23.6083666,16.1531827 L23.6083666,17.3591497 L25.5010648,17.3591497 C26.2882972,17.3591497 26.6819075,17.6215565 26.6819075,18.1463781 C26.6819075,18.6600333 26.2882972,18.916857 25.5010648,18.916857 L23.6083666,18.916857 L23.6083666,19.5868387 C23.6083666,20.72023 23.2315057,21.2869171 22.4777726,21.2869171 C21.712873,21.2869171 21.330429,20.72023 21.330429,19.5868387 L21.330429,18.916857 L19.4461056,18.916857 C18.65329,18.916857 18.2568881,18.6600333 18.2568881,18.1463781 C18.2568881,17.6215565 18.65329,17.3591497 19.4461056,17.3591497 Z" id="¥" fill="#F5A623" transform="translate(22.402400, 14.938841) rotate(-30.000000) translate(-22.402400, -14.938841) "></path>
                <path d="M76.5908523,38.6171027 C74.7713072,35.2344241 71.452137,32.779737 67.5331167,32.111184 C66.3734066,30.1753738 64.9337666,28.3393477 63.244189,26.6529976 C62.8242939,23.6594767 61.7945514,16.5348971 61.7845539,16.4550698 L61.0947263,11.6853933 L58.2054486,15.5470352 C58.1854536,15.5769704 56.1259685,18.3210312 54.2864284,20.3765822 C49.5276181,18.0815495 44.1789553,16.804314 38.6503374,16.6346811 C38.2404399,16.6247027 37.8405399,16.6147243 37.4306423,16.6147243 C36.5008748,16.6147243 35.5711072,16.6446595 34.6513372,16.7145083 C26.7833042,17.2433637 19.4551362,20.0273381 13.7865534,24.6872522 L13.5766058,24.8668635 C12.5368658,25.7349846 11.5671082,26.6529976 10.6773307,27.6209027 C8.99775056,29.4469504 7.58810297,31.442631 6.48837791,33.5780092 C4.68882779,37.0704503 3.77905524,40.7824161 3.77905524,44.6041445 C3.77905524,45.0332158 3.78905274,45.4722655 3.81904524,45.9013368 L3.79905024,45.9013368 C3.79905024,47.986823 2.09947513,49.6931299 0,49.6931299 L0,53.6844911 C1.86953262,53.6844911 3.58910272,53.0259165 4.93876531,51.9183138 C5.34866283,53.185571 5.86853287,54.4228929 6.48837791,55.6402581 C8.20794801,58.983023 10.6573357,61.9665655 13.7765559,64.5310151 C14.6363409,65.2394817 15.536116,65.8980563 16.475881,66.5167172 L16.475881,77.3033708 L30.8222944,77.3033708 L30.8222944,72.0547309 C32.9717571,72.403975 35.1812047,72.5935646 37.4206448,72.5935646 C39.540115,72.5935646 41.6295926,72.4339102 43.6690827,72.1146013 L43.6690827,77.3033708 L58.0154961,77.3033708 L58.0154961,66.7462205 C59.0752312,66.0577107 60.0949763,65.3193089 61.0647338,64.5210367 C63.724069,62.3357664 65.8935266,59.8411657 67.5431142,57.0871265 C71.4621345,56.4185735 74.7713072,53.9638864 76.6008498,50.5812078 L80,50.5812078 L80,38.6071243 L76.5908523,38.6071243 L76.5908523,38.6171027 Z M76.9907523,47.5976653 L73.5616096,47.5976653 C73.1417146,48.7252249 72.5018745,49.743022 71.692077,50.5911862 C71.1522119,51.1599552 70.5323669,51.6488969 69.8525369,52.0580114 C68.5528618,52.8363269 67.0232442,53.285355 65.4036491,53.285355 C65.2836791,53.285355 65.1737066,53.285355 65.0537366,53.2753766 C64.423894,54.572569 63.664084,55.8198693 62.7843039,57.0072993 C61.4546363,58.783455 59.8450387,60.4099347 58.0054986,61.8568031 C56.7658085,62.8247082 55.436141,63.7028076 54.0064984,64.4911015 L54.0064984,73.3120096 L47.6580855,73.3120096 L47.6580855,67.1253998 C46.3684079,67.5145575 45.0287428,67.823888 43.6590852,68.0633697 C41.6495876,68.4126138 39.56011,68.6022035 37.4106473,68.6022035 C35.1412147,68.6022035 32.9317671,68.392657 30.8122969,68.0034993 C29.4426393,67.7540392 28.1029743,67.4147735 26.8132967,67.0156374 L26.8132967,73.3120096 L20.4648838,73.3120096 L20.4648838,64.281555 C19.0352412,63.4733044 17.6955761,62.5652697 16.4658835,61.5674294 C11.0972257,57.2268241 7.76805799,51.2198256 7.76805799,44.6041445 C7.76805799,39.1459581 10.0274931,34.116843 13.8265434,30.0855682 C14.7763059,29.0677711 15.836041,28.1198228 16.9657586,27.2417234 C21.4446388,23.789196 27.2431892,21.4542497 33.6915771,20.7956751 C34.9112722,20.6759343 36.1509623,20.6060855 37.4106473,20.6060855 L37.9905024,20.6060855 C43.6190952,20.6958911 49.0577356,22.0629323 53.7465634,24.5874682 L55.0562359,25.2859564 L56.1059735,24.2382241 C56.8557861,23.4898439 57.6855786,22.5418956 58.4753812,21.6139042 C58.8252937,24.0186993 59.2051987,26.6929112 59.3651587,27.8703628 L59.4551362,28.568851 L59.9650087,29.0478143 C61.0147463,30.0356762 61.9445139,31.0933869 62.7743064,32.2009896 C63.664084,33.3884196 64.423894,34.6357199 65.0337416,35.9329123 C65.1537116,35.9329123 65.2736816,35.9229339 65.3836541,35.9229339 C67.0032492,35.9229339 68.5228693,36.3719621 69.8225444,37.1402991 C70.5023744,37.5494136 71.1222194,38.0383553 71.672082,38.6171027 C72.4818795,39.465267 73.1317171,40.4830641 73.5416146,41.6106236 L76.9707573,41.6106236 L76.9707573,47.5976653 L76.9907523,47.5976653 Z" id="Shape" fill="#383838" fill-rule="nonzero"></path>
            </g>
        </g>
    </g>
</svg>