<?xml version="1.0" encoding="UTF-8"?>
<svg width="80px" height="68px" viewBox="0 0 80 68" version="1.1" xmlns="http://www.w3.org/2000/svg" xmlns:xlink="http://www.w3.org/1999/xlink">
    <!-- Generator: Sketch 50.2 (55047) - http://www.bohemiancoding.com/sketch -->
    <title>钱包</title>
    <desc>Created with Sketch.</desc>
    <defs></defs>
    <g id="作者个人中心" stroke="none" stroke-width="1" fill="none" fill-rule="evenodd">
        <g id="13-2-作者个人中心-我的收入2_按文章查看收入1(默认样式)" transform="translate(-514.000000, -258.000000)">
            <g id="钱包" transform="translate(514.000000, 258.000000)">
                <path d="M18,22 L73,22 C74.1045695,22 75,22.8954305 75,24 L75,33.5 L79,36 L79,49.5 L75,52 L75,65 C75,66.1045695 74.1045695,67 73,67 L22.2095825,66.9999762 C21.1050262,66.9999762 20.2096063,66.1045564 20.2096063,65 C20.2096063,64.3896748 20.4882901,63.8127536 20.9663733,63.4333681 C26.3221244,59.1832827 29,55.37216 29,52 C29,47.7103286 24.6666667,43.5436619 16,39.5 L16,24 C16,22.8954305 16.8954305,22 18,22 Z" id="Rectangle-3" fill-opacity="0.35" fill="#5AC0A1"></path>
                <path d="M78.4512492,32.6330583 L76.9024983,32.6330583 L76.9024983,21.7690081 C76.9024983,20.5341544 76.4129838,19.3498771 75.5416424,18.4767037 C74.670301,17.6035303 73.4885084,17.1129865 72.2562456,17.1129865 L68.7715561,17.1129865 L66.9750051,10.3772753 C66.3098644,7.89755143 63.7669615,6.42553816 61.2910894,7.08702012 L59.5874634,7.55262228 L57.2798245,2.69483977 C56.7588464,1.5707086 55.812099,0.701132685 54.649294,0.278729619 C53.486489,-0.143673447 52.2036088,-0.0840368645 51.0848211,0.444429416 L15.3551382,17.1129865 L13.403712,17.1129865 C10.8376576,17.1129865 8.75745939,19.1975584 8.75745939,21.7690081 L8.75745939,39.2135688 C2.35383858,42.1384355 -1.149927,49.1401947 0.341161322,56.0323001 C1.83224965,62.9244056 7.91503985,67.8434088 14.9524629,67.8481013 L72.2562456,67.8481013 C73.4885084,67.8481013 74.670301,67.3575575 75.5416424,66.4843841 C76.4129838,65.6112107 76.9024983,64.4269334 76.9024983,63.1920797 L76.9024983,52.3280294 L78.4512492,52.3280294 C79.3066006,52.3280294 79.9999999,51.6331721 80,50.7760223 L80,34.1850655 C80,33.3279156 79.3066007,32.6330583 78.4512492,32.6330583 Z M52.4322343,3.14492191 C53.2063349,2.78079541 54.1284394,3.11428473 54.4920729,3.88988536 L56.5364241,8.29758572 L42.4427911,12.0844833 C41.9060752,12.2286477 41.4868787,12.6487978 41.3431088,13.1866669 C41.199339,13.7245361 41.3528379,14.2984092 41.745784,14.6921139 C42.1387301,15.0858186 42.7114256,15.2395417 43.2481415,15.0953772 L62.0964398,10.0358338 C62.9169359,9.81790777 63.7595984,10.3024192 63.9859159,11.1222388 L65.5346668,17.0509062 L22.6807298,17.0509062 L52.4322343,3.14492191 Z M3.07354362,52.8091517 C3.0672777,47.9930682 5.95750735,43.6477152 10.3958556,41.8003273 C14.8342039,39.9529395 19.946077,40.9675518 23.3466361,44.3708178 C26.7471953,47.7740838 27.766347,52.8953768 25.9286271,57.3454632 C24.0909073,61.7955496 19.7584457,64.6975226 14.9524629,64.6975267 C8.4014867,64.6890011 3.09059793,59.3738848 3.07354362,52.8091517 Z M73.8049965,57.4651732 L45.5712678,57.4651732 C44.7160628,57.4653807 44.0228918,58.1601772 44.0228918,59.0171804 C44.0228918,59.8741836 44.7160628,60.5689801 45.5712678,60.5691876 L73.8049965,60.5691876 L73.8049965,63.1455195 C73.8049965,64.0026694 73.1115971,64.6975267 72.2562456,64.6975267 L24.0281431,64.6975267 C25.5118978,63.5689065 26.7680327,62.1679257 27.7296577,60.5691876 L31.9887227,60.5691876 C32.8439277,60.5689801 33.5370987,59.8741836 33.5370987,59.0171804 C33.5370987,58.1601772 32.8439277,57.4653807 31.9887227,57.4651732 L29.169996,57.4651732 C30.6645487,52.8979103 29.8832465,47.8894742 27.0690289,43.997197 C24.2548113,40.1049198 19.7489342,37.8007842 14.9524629,37.8012422 C13.9112784,37.7980954 12.8727856,37.9073664 11.8549611,38.1271637 L11.8549611,21.7690081 C11.8549611,20.9118582 12.5483605,20.2170009 13.403712,20.2170009 L72.2562456,20.2170009 C73.1115971,20.2170009 73.8049965,20.9118582 73.8049965,21.7690081 L73.8049965,32.6330583 L57.7909123,32.6330583 C54.6603259,32.6330583 52.1224841,35.176236 52.1224841,38.3134046 L52.1224841,46.6011229 C52.1224841,48.1076444 52.7196918,49.5524627 53.7827283,50.6177343 C54.8457648,51.6830059 56.2875517,52.2814692 57.7909123,52.2814692 L73.8049965,52.2814692 L73.8049965,57.4651732 Z M76.9024983,49.1774549 L57.7909123,49.1774549 C56.3710289,49.1774548 55.2199859,48.0239917 55.2199859,46.6011229 L55.2199859,38.3599648 C55.2075164,37.6686479 55.4728663,37.0013226 55.9563666,36.5080493 C56.439867,36.0147761 57.1009332,35.7369598 57.7909123,35.7370727 L76.9024983,35.7370727 L76.9024983,49.1774549 Z" id="Shape" fill="#383838" fill-rule="nonzero"></path>
                <path d="M59.8976728,43.6102623 L62.2377767,43.6102623 C63.0992317,43.6100549 63.7974684,42.9152765 63.7974684,42.0582957 C63.7974684,41.2013149 63.0992317,40.5065366 62.2377767,40.5063291 L59.8976728,40.5063291 C59.0362178,40.5065366 58.3379811,41.2013149 58.3379811,42.0582957 C58.3379811,42.9152765 59.0362178,43.6100549 59.8976728,43.6102623 Z M39.0863485,57.0192541 L37.0114564,57.0192541 C36.1500014,57.0194615 35.4517647,57.7142399 35.4517647,58.5712207 C35.4517647,59.4282015 36.1500014,60.1229798 37.0114564,60.1231873 L39.0863485,60.1231873 C39.9478035,60.1229798 40.6460402,59.4282015 40.6460402,58.5712207 C40.6460402,57.7142399 39.9478035,57.0194615 39.0863485,57.0192541 Z" id="Shape" fill="#5AC0A1" fill-rule="nonzero"></path>
                <path d="M11.4637339,56.7301604 L13.7793428,56.7301604 L13.7793428,55.2481707 L11.4637339,55.2481707 C10.489458,55.2481707 10.0023274,54.925704 10.0023274,54.2807608 C10.0023274,53.6495398 10.489458,53.333934 11.4637339,53.333934 L12.7707665,53.333934 L9.69357952,48.5071759 C9.44658,48.1229544 9.28534663,47.8485146 9.20987455,47.6838483 C9.13440247,47.5191819 9.096667,47.3373656 9.096667,47.1383937 C9.096667,46.7816166 9.20472767,46.4951701 9.42085225,46.2790455 C9.63697683,46.0629209 9.91656237,45.9548603 10.2596173,45.9548603 C10.6095332,45.9548603 10.8925493,46.0612057 11.1086739,46.2738997 C11.3247984,46.4865938 11.57694,46.8296435 11.8651061,47.3030592 L15.1892914,52.5106064 L18.1635624,47.6015155 C18.2733399,47.4094048 18.3899768,47.2087207 18.5134766,46.9994572 C18.6369764,46.7901937 18.7570438,46.6118078 18.8736824,46.4642942 C18.9903211,46.3167806 19.1361172,46.194998 19.3110752,46.0989426 C19.4860332,46.0028872 19.6935783,45.9548603 19.9337167,45.9548603 C20.2767716,45.9548603 20.5563572,46.0594904 20.7724818,46.2687539 C20.9886063,46.4780174 21.096667,46.7335895 21.096667,47.0354778 C21.096667,47.2756162 21.0537858,47.495168 20.9680221,47.6941399 C20.8822583,47.8931117 20.7467537,48.143538 20.5615041,48.4454263 L17.5975246,53.333934 L18.9045572,53.333934 C19.871972,53.333934 20.3556721,53.6495398 20.3556721,54.2807608 C20.3556721,54.925704 19.871972,55.2481707 18.9045572,55.2481707 L16.5786567,55.2481707 L16.5786567,56.7301604 L18.9045572,56.7301604 C19.871972,56.7301604 20.3556721,57.0526272 20.3556721,57.6975704 C20.3556721,58.3287914 19.871972,58.6443971 18.9045572,58.6443971 L16.5786567,58.6443971 L16.5786567,59.4677248 C16.5786567,60.8605276 16.1155396,61.5569186 15.1892914,61.5569186 C14.249321,61.5569186 13.7793428,60.8605276 13.7793428,59.4677248 L13.7793428,58.6443971 L11.4637339,58.6443971 C10.489458,58.6443971 10.0023274,58.3287914 10.0023274,57.6975704 C10.0023274,57.0526272 10.489458,56.7301604 11.4637339,56.7301604 Z" id="¥" fill="#5AC0A1" transform="translate(15.096667, 53.755889) rotate(-30.000000) translate(-15.096667, -53.755889) "></path>
            </g>
        </g>
    </g>
</svg>