<?xml version="1.0" encoding="UTF-8"?>
<svg width="40px" height="40px" viewBox="0 0 40 40" version="1.1" xmlns="http://www.w3.org/2000/svg" xmlns:xlink="http://www.w3.org/1999/xlink">
    <!-- Generator: Sketch 50.2 (55047) - http://www.bohemiancoding.com/sketch -->
    <title>Group 2</title>
    <desc>Created with Sketch.</desc>
    <defs></defs>
    <g id="Symbols" stroke="none" stroke-width="1" fill="none" fill-rule="evenodd">
        <g id="01-1-已设置邮箱，修改邮箱" transform="translate(-67.000000, -253.000000)">
            <g id="Group">
                <g transform="translate(67.000000, 153.000000)">
                    <g id="Group-2" transform="translate(0.000000, 100.000000)">
                        <circle id="Oval-Copy-5" stroke="#383838" stroke-width="3" fill="#FFFFFF" cx="20" cy="20" r="18.5"></circle>
                        <path d="M20.22,12.44 C21.6,12.44 22.74,12.84 23.64,13.64 C24.52,14.44 24.96,15.46 24.96,16.74 C24.96,17.98 24.48,19.1 23.56,20.12 C23,20.72 22,21.48 20.6,22.42 C19.14,23.38 18.26,24.22 17.94,24.94 L24.98,24.94 L24.98,27 L15.02,27 C15.02,25.54 15.48,24.28 16.44,23.2 C16.96,22.6 18.06,21.72 19.72,20.58 C20.64,19.94 21.28,19.4 21.68,18.98 C22.3,18.28 22.62,17.52 22.62,16.72 C22.62,15.94 22.4,15.36 22,14.98 C21.58,14.6 20.96,14.42 20.14,14.42 C19.26,14.42 18.6,14.72 18.16,15.32 C17.72,15.88 17.48,16.74 17.44,17.86 L15.1,17.86 C15.12,16.26 15.58,14.98 16.5,14 C17.44,12.96 18.68,12.44 20.22,12.44 Z" id="2-copy-2" fill="#383838"></path>
                    </g>
                </g>
            </g>
        </g>
    </g>
</svg>