<?xml version="1.0" encoding="UTF-8"?>
<svg width="50px" height="41px" viewBox="0 0 50 41" version="1.1" xmlns="http://www.w3.org/2000/svg" xmlns:xlink="http://www.w3.org/1999/xlink">
    <!-- Generator: Sketch 50.2 (55047) - http://www.bohemiancoding.com/sketch -->
    <title>微信icon</title>
    <desc>Created with Sketch.</desc>
    <defs></defs>
    <g id="个人中心-账户安全" stroke="none" stroke-width="1" fill="none" fill-rule="evenodd">
        <g id="默认样式" transform="translate(-544.000000, -686.000000)">
            <g id="账号密码-copy" transform="translate(484.000000, 646.000000)">
                <g id="微信icon" transform="translate(60.000000, 40.000000)">
                    <g>
                        <path d="M28.214081,29.6374163 C28.057676,29.0970165 27.9797595,28.6478978 27.9797595,28.2738798 C27.9797595,28.0678315 27.9940618,27.8519326 28.0217533,27.6249893 L28.109036,26.9096712 L28.7220021,26.5307635 C32.9758072,23.9012551 35.5,19.814435 35.5,15.4166667 C35.5,7.79736 27.943168,1.5 18.5,1.5 C9.056832,1.5 1.5,7.79736 1.5,15.4166667 C1.5,23.0359733 9.056832,29.3333333 18.5,29.3333333 C20.7659357,29.3333333 22.9675005,28.969659 25.0128859,28.2727996 L25.6047723,28.0711449 L26.1646378,28.3496136 C26.1677299,28.3511529 26.1677299,28.3511529 26.1708204,28.3526968 C26.5489192,28.5417462 27.2202324,28.9643181 28.214081,29.6374163 Z" id="Combined-Shape" stroke="#383838" stroke-width="3" transform="translate(18.500000, 16.430133) scale(-1, 1) translate(-18.500000, -16.430133) "></path>
                        <path d="M43.7880414,36.631188 L45.0749921,39.9319172 C45.1753046,40.1891954 45.0480588,40.4790798 44.7907807,40.5793922 C44.6341843,40.640449 44.4573885,40.6187412 44.3202147,40.521614 L40.8020549,38.0305483 C39.0172727,38.6549617 37.0569892,39 35,39 C26.7157288,39 20,33.4035594 20,26.5 C20,19.5964406 26.7157288,14 35,14 C43.2842712,14 50,19.5964406 50,26.5 C50,30.6683174 47.5516778,34.3601045 43.7880414,36.631188 Z" id="Combined-Shape" fill="#5AC0A1"></path>
                        <path d="M29.7467479,23.4626668 C28.9330727,23.4626668 28.2097684,22.7435222 28.2097684,21.9345263 C28.2097684,21.1255305 28.842758,20.4063859 29.7467479,20.4063859 C30.5604232,20.4063859 31.2837275,21.1255305 31.2837275,21.9345263 C31.2837275,22.7435222 30.6507379,23.4626668 29.7467479,23.4626668 Z M39.1499291,23.4626668 C38.3362539,23.4626668 37.6129496,22.7435222 37.6129496,21.9345263 C37.6129496,21.1255305 38.2459392,20.4063859 39.1499291,20.4063859 C39.9636044,20.4063859 40.6869087,21.1255305 40.6869087,21.9345263 C40.6869087,22.7435222 40.0539191,23.4626668 39.1499291,23.4626668 Z" id="Combined-Shape" fill="#383838"></path>
                        <path d="M24.6737211,12 C25.9263456,12 27,11.0769341 27,10 C27,8.92306589 25.9263456,8 24.6737211,8 C23.4210965,8 22.3474422,8.92306589 22.3474422,10 C22.3474422,11.1538682 23.4210965,12 24.6737211,12 Z M12.3262789,12 C13.5789035,12 14.6525578,11.0769341 14.6525578,10 C14.6525578,8.92306589 13.5789035,8 12.3262789,8 C11.0736544,8 10,8.92306589 10,10 C10,11.1538682 10.9841693,12 12.3262789,12 Z" id="Shape" fill="#5AC0A1" fill-rule="nonzero"></path>
                    </g>
                </g>
            </g>
        </g>
    </g>
</svg>