<?xml version="1.0" encoding="UTF-8"?>
<svg width="50px" height="54px" viewBox="0 0 50 54" version="1.1" xmlns="http://www.w3.org/2000/svg" xmlns:xlink="http://www.w3.org/1999/xlink">
    <!-- Generator: Sketch 50.2 (55047) - http://www.bohemiancoding.com/sketch -->
    <title>邮箱</title>
    <desc>Created with Sketch.</desc>
    <defs></defs>
    <g id="个人中心-账户安全" stroke="none" stroke-width="1" fill="none" fill-rule="evenodd">
        <g id="默认样式" transform="translate(-541.000000, -270.000000)">
            <g id="安全邮箱" transform="translate(484.000000, 241.000000)">
                <g id="邮箱" transform="translate(57.000000, 29.000000)">
                    <path d="M0,27 L4.42916131,27.0832506 L25,37 L46,27 L50,27 L50,54 L0,54 L0,27 Z M4.42916131,31 L4.42916131,50 L46,50 L46,32 L25,42 L4.42916131,32.0832506 L4.42916131,31 Z" id="Combined-Shape" fill="#383838"></path>
                    <path d="M24.5,39 L7,31 L7,0 L43.5,0 L43.5,31 L24.5,39 Z M24.5,37 L39.5,30 L39.5,4 L11,4 L11,30 L24.5,37 Z" id="Combined-Shape" fill="#383838"></path>
                    <path d="M13.5947266,10 L26.401142,10 L26.401142,13.83625 L13.5947266,13.83625 L13.5947266,10 Z M13.5947266,17 L37,17 L37,20.83625 L13.5947266,20.83625 L13.5947266,17 Z" id="Shape" fill="#5AC0A1" fill-rule="nonzero"></path>
                </g>
            </g>
        </g>
    </g>
</svg>