<?xml version="1.0" standalone="no"?><!DOCTYPE svg PUBLIC "-//W3C//DTD SVG 1.1//EN" "http://www.w3.org/Graphics/SVG/1.1/DTD/svg11.dtd"><svg t="1523623711787" class="icon" style="" viewBox="0 0 1024 1024" version="1.1" xmlns="http://www.w3.org/2000/svg" p-id="1922" xmlns:xlink="http://www.w3.org/1999/xlink" width="20" height="20"><defs><style type="text/css"></style></defs><path d="M512.012586 16.445242c-213.512263 0-387.217837 173.703561-387.217837 387.215824 0 104.490166 36.307808 222.181432 102.231752 331.398862 69.095591 114.470282 164.687021 211.891199 276.445797 281.740937l8.540289 5.337429 8.539282-5.337429c111.757769-69.849738 207.352219-167.270655 276.445797-281.740937 65.924951-109.21743 102.231752-226.908696 102.231752-331.398862C899.229416 190.148803 725.522835 16.445242 512.012586 16.445242zM512.012586 984.058391C302.546942 849.266409 157.01969 611.979882 157.01969 403.661066c0-195.742984 159.248905-354.989875 354.991889-354.989875 195.741977 0 354.990882 159.246891 354.990882 354.989875C867.003468 611.981896 721.476216 849.270437 512.012586 984.058391z" p-id="1923" fill="#dbdbdb"></path><path d="M512.012586 159.175403c-134.811112 0-244.485662 109.675557-244.485662 244.482642 0 134.810105 109.67455 244.486669 244.485662 244.486669 134.810105 0 244.483649-109.677571 244.483649-244.486669C756.496235 268.85096 646.821684 159.175403 512.012586 159.175403zM512.012586 615.919773c-117.041833 0-212.259714-95.219894-212.259714-212.261728 0-117.038813 95.217881-212.2577 212.259714-212.2577 117.03982 0 212.258707 95.217881 212.258707 212.2577C724.270286 520.699878 629.052406 615.919773 512.012586 615.919773z" p-id="1924" fill="#dbdbdb"></path></svg>