<svg id="图层_1" data-name="图层 1" xmlns="http://www.w3.org/2000/svg" xmlns:xlink="http://www.w3.org/1999/xlink" viewBox="0 0 426 447.69"><defs><style>.cls-1{fill:none;}.cls-2{fill:#d6eff9;}.cls-3{clip-path:url(#clip-path);}.cls-4{fill:#d5ffc5;}.cls-5{fill:#fff;}.cls-6{fill:#f2cba0;}.cls-7{fill:#f9dcbb;}.cls-8{clip-path:url(#clip-path-2);}.cls-10,.cls-9{fill:#cfd6d9;}.cls-10,.cls-11{opacity:0.5;}.cls-12{clip-path:url(#clip-path-4);}.cls-13{fill:#d3b390;}.cls-14{clip-path:url(#clip-path-5);}.cls-15{clip-path:url(#clip-path-6);}.cls-16{fill:#f9d5aa;}.cls-17{opacity:0.7;}.cls-18{clip-path:url(#clip-path-7);}.cls-19{fill:#4a4642;}</style><clipPath id="clip-path" transform="translate(-470.29 -170.92)"><circle class="cls-1" cx="682.71" cy="384.08" r="213"/></clipPath><clipPath id="clip-path-2" transform="translate(-470.29 -170.92)"><ellipse class="cls-1" cx="679.25" cy="500.58" rx="68" ry="42.5"/></clipPath><clipPath id="clip-path-4" transform="translate(-470.29 -170.92)"><path class="cls-1" d="M574.52,331.62s-14.55-2.54-20.25,8.83S549.81,365.12,559,380s28.76,13.63,28.76,13.63Z"/></clipPath><clipPath id="clip-path-5" transform="translate(-470.29 -170.92)"><path class="cls-1" d="M785,329.62s14.54-2.54,20.25,8.83,4.45,24.67-4.71,39.54-28.76,13.63-28.76,13.63Z"/></clipPath><clipPath id="clip-path-6" transform="translate(-470.29 -170.92)"><path class="cls-1" d="M614.25,488.08s19,35,67,35,63-35,63-35l-11-31h-108Z"/></clipPath><clipPath id="clip-path-7" transform="translate(-470.29 -170.92)"><path class="cls-1" d="M785.46,321.58c2.31,86.56-43.36,158-102,159.58S575.36,413.83,573,327.27,616.47,208.59,675.12,207,783.14,235,785.46,321.58Z"/></clipPath></defs><title>美柏头像</title><path class="cls-1" d="M369,464" transform="translate(-470.29 -170.92)"/><path class="cls-1" d="M369,464" transform="translate(-470.29 -170.92)"/><circle class="cls-2" cx="213" cy="213" r="213"/><g class="cls-3"><polygon class="cls-4" points="36.42 345.17 144.42 312.17 272.42 311.17 387.92 333.17 372.42 392.17 339.42 418.17 275.42 430.17 229.42 434.17 150.42 434.17 96.42 422.17 43.42 374.17 36.42 345.17"/></g><ellipse class="cls-5" cx="209.42" cy="329.67" rx="68" ry="42.5"/><path class="cls-6" d="M614.71,488.08s19,35,67,35,63-35,63-35l-11-31h-108Z" transform="translate(-470.29 -170.92)"/><path class="cls-7" d="M785,329.62s14.54-2.54,20.25,8.83,4.45,24.67-4.71,39.54-28.76,13.63-28.76,13.63Z" transform="translate(-470.29 -170.92)"/><path class="cls-7" d="M574.52,331.62s-14.55-2.54-20.25,8.83S549.81,365.12,559,380s28.76,13.63,28.76,13.63Z" transform="translate(-470.29 -170.92)"/><g class="cls-8"><polygon class="cls-9" points="184.42 348.02 180.06 368.01 143.96 354.58 133.75 330.17 137 320.58 143.96 317.17 178.33 339.92 184.42 348.02"/></g><g class="cls-3"><polygon class="cls-10" points="180.06 368.01 133.51 447.69 28.18 361.69 41.51 352.69 146.19 312.18 180.06 368.01"/></g><g class="cls-11"><g class="cls-12"><path class="cls-13" d="M586.79,390.08s-26.08,6-37.91-44.5L546,364.83l13.67,22.42,11.08,6.39,9.67,1h7.27Z" transform="translate(-470.29 -170.92)"/></g></g><g class="cls-14"><path class="cls-13" d="M770.08,390.49S804.83,392.58,808,346l2.83,19.25-13.67,22.42-11.08,6.39-9.67,1h-7.27Z" transform="translate(-470.29 -170.92)"/></g><g class="cls-15"><path class="cls-13" d="M707.4,476.08s-21,17.21-52.69,20c0,0,2.44,16.83,0,22.85-6,14.82-48-18.35-48-18.35l19-43.5,70,11Z" transform="translate(-470.29 -170.92)"/></g><path class="cls-16" d="M785.46,321.58c2.31,86.56-43.36,158-102,159.58S575.36,413.83,573,327.27,616.47,208.59,675.12,207,783.14,235,785.46,321.58Z" transform="translate(-470.29 -170.92)"/><g class="cls-17"><g class="cls-18"><path class="cls-13" d="M591.74,322S589.64,407.21,622,440.1c.2.2.4.38.61.56,2.87,2.46,25.54,22.47,24.32,41.82-1,16.46-87.39-55-107.53-71.88a8.77,8.77,0,0,1-2.89-8.8l17.81-73.12a8.76,8.76,0,0,1,8.52-6.7Z" transform="translate(-470.29 -170.92)"/></g></g><g class="cls-18"><path class="cls-19" d="M714.71,273.08c-32,0-129.15,56.95-141.52,58.41s4.52-98.41,4.52-98.41l61-36,106,10,35,50,23,55-17.17,16S748.71,295.08,714.71,273.08Z" transform="translate(-470.29 -170.92)"/></g><path class="cls-13" d="M791,347.1s-.69-3.24,2.18-2.25,8.57,6,6.54,16.65c-1.61,8.37-6.22,12.69-8.09,14.14a3.46,3.46,0,0,1-1.9.71,4.39,4.39,0,0,1-2.8-.66c-1.44-1.1-1.31-6-1.31-6s-.61-4.08,3.18-8.73l.21-.23a14,14,0,0,0,3.28-5.46C793,352.44,791,347.1,791,347.1Z" transform="translate(-470.29 -170.92)"/><path class="cls-13" d="M567.54,347.1s.69-3.24-2.18-2.25-8.57,6-6.54,16.65c1.61,8.37,6.22,12.69,8.09,14.14a3.46,3.46,0,0,0,1.9.71,4.39,4.39,0,0,0,2.8-.66c1.44-1.1,1.31-6,1.31-6s.61-4.08-3.18-8.73l-.21-.23a14,14,0,0,1-3.28-5.46C565.48,352.44,567.54,347.1,567.54,347.1Z" transform="translate(-470.29 -170.92)"/></svg>