<?xml version="1.0" standalone="no"?><!DOCTYPE svg PUBLIC "-//W3C//DTD SVG 1.1//EN" "http://www.w3.org/Graphics/SVG/1.1/DTD/svg11.dtd"><svg t="1523450329413" class="icon" style="" viewBox="0 0 1024 1024" version="1.1" xmlns="http://www.w3.org/2000/svg" p-id="4734" xmlns:xlink="http://www.w3.org/1999/xlink" width="16" height="16"><defs><style type="text/css"></style></defs><path d="M879.430882 178.6314 144.567072 178.6314c-42.85197 0-77.733409 34.881438-77.733409 77.67815l0 511.272429c0 42.906206 34.881438 77.787644 77.733409 77.787644l734.86381 0c42.852994 0 77.733409-34.881438 77.733409-77.787644L957.164291 256.30955C957.164291 213.512838 922.283876 178.6314 879.430882 178.6314zM512.818133 567.18895l-351.655082-336.698438L859.560322 230.490511 512.818133 567.18895zM879.430882 793.511535 144.567072 793.511535c-14.302751 0-25.875321-11.627828-25.875321-25.929556L118.691751 264.116353 492.947574 622.541629c5.240351 5.021364 11.901051 7.479345 18.560728 7.479345 4.256954 0 8.295943-1.309832 12.117992-3.275603 4.095271-1.201361 8.024767-3.00238 11.244089-6.16849L905.305179 260.894985l0 506.685971C905.305179 781.882684 893.733633 793.511535 879.430882 793.511535z" p-id="4735" fill="#dbdbdb"></path></svg>