<svg id="图层_1" data-name="图层 1" xmlns="http://www.w3.org/2000/svg" xmlns:xlink="http://www.w3.org/1999/xlink" viewBox="0 0 200 200"><defs><style>.cls-1{fill:none;}.cls-2{fill:#d6eff9;}.cls-3{fill:#ffe7d2;}.cls-14,.cls-4{fill:#ddc6b1;}.cls-12,.cls-4{opacity:0.69;}.cls-5{fill:#d5ffc5;}.cls-6{fill:#f4f4f4;}.cls-7{clip-path:url(#clip-path);}.cls-8{fill:#1b3151;}.cls-9{fill:#2d4669;}.cls-10{fill:#091623;}.cls-11{fill:#ffebd7;}.cls-13{clip-path:url(#clip-path-4);}.cls-15{clip-path:url(#clip-path-5);}.cls-16{fill:#4a4642;}.cls-17{fill:#d3b390;}.cls-18{fill:#91857b;}.cls-19{fill:#346991;}.cls-20{fill:#165d72;}</style><clipPath id="clip-path" transform="translate(-299.05 -210.72)"><circle id="_1" data-name="1" class="cls-1" cx="399.05" cy="310.72" r="100"/></clipPath><clipPath id="clip-path-4" transform="translate(-299.05 -210.72)"><path class="cls-1" d="M442.42,287.29c1,36.51-18.27,66.64-43,67.3s-45.54-28.39-46.52-64.9,18.29-50.05,43-50.72S441.44,250.78,442.42,287.29Z"/></clipPath><clipPath id="clip-path-5" transform="translate(-299.05 -210.72)"><path class="cls-1" d="M442.2,287c1,36.51-18.27,66.64-43,67.3s-45.54-28.39-46.52-64.9,18.29-50.05,43-50.72S441.22,250.54,442.2,287Z"/></clipPath></defs><title>投资人头像</title><circle class="cls-2" cx="100" cy="100" r="100"/><polygon class="cls-3" points="131.33 162 68.67 162 77.67 133.84 122.33 133.84 131.33 162"/><path class="cls-4" d="M415,349.61s-24.61,3.05-38.72-3.76l-4.75,14.88,15.23,7.46s2.13-7.1-.13-12.75C386.66,355.43,404.69,358.4,415,349.61Z" transform="translate(-299.05 -210.72)"/><path class="cls-5" d="M379.57,360.72s3.73,7,19.73,7,19.24-7,19.24-7l18.76,7-11,25-21,14-19-4-27-27,12-11Z" transform="translate(-299.05 -210.72)"/><rect class="cls-6" x="127.25" y="170" width="24" height="2"/><g class="cls-7"><path class="cls-8" d="M376.43,355.92l-57.49,16s21,38.81,82.37,38.74Z" transform="translate(-299.05 -210.72)"/></g><g class="cls-7"><path class="cls-9" d="M420,355.72l57.49,16s-30.49,39-82.49,39l1.18-4.8Z" transform="translate(-299.05 -210.72)"/></g><g class="cls-7"><path class="cls-8" d="M420.81,355.72l57.49,16s-4.35,39-82.49,39l1.18-4.8Z" transform="translate(-299.05 -210.72)"/></g><path class="cls-10" d="M365.05,357.06s1.88-5,8.46-1.34c5.82,3.21,12.69,13,14.2,15.26a.68.68,0,0,1-.07.85l-11.35,12a.68.68,0,0,1-1-.07L366.18,371a12,12,0,0,1-2.21-6A16.72,16.72,0,0,1,365.05,357.06Z" transform="translate(-299.05 -210.72)"/><path class="cls-8" d="M365.36,356s1.88-5,8.46-1.34c5.82,3.21,12.69,13,14.2,15.26a.68.68,0,0,1-.07.85l-11.35,12a.68.68,0,0,1-1-.07L366.49,370a12,12,0,0,1-2.21-6A16.72,16.72,0,0,1,365.36,356Z" transform="translate(-299.05 -210.72)"/><path class="cls-10" d="M430.82,357.06s-1.88-5-8.46-1.34c-5.82,3.21-12.69,13-14.2,15.26a.68.68,0,0,0,.07.85l11.35,12a.68.68,0,0,0,1-.07L429.7,371a12,12,0,0,0,2.21-6A16.72,16.72,0,0,0,430.82,357.06Z" transform="translate(-299.05 -210.72)"/><path class="cls-8" d="M430.51,356s-1.88-5-8.46-1.34c-5.82,3.21-12.69,13-14.2,15.26a.68.68,0,0,0,.07.85l11.35,12a.68.68,0,0,0,1-.07L429.39,370a12,12,0,0,0,2.21-6A16.72,16.72,0,0,0,430.51,356Z" transform="translate(-299.05 -210.72)"/><rect class="cls-9" x="126.05" y="183.07" width="21.19" height="1.61"/><circle class="cls-9" cx="100" cy="197.72" r="1.38"/><path class="cls-3" d="M442,290.43s6.13-1.07,8.53,3.73,1.88,10.4-2,16.67-12.12,5.75-12.12,5.75Z" transform="translate(-299.05 -210.72)"/><path class="cls-3" d="M353.32,291.28s-6.13-1.07-8.53,3.73-1.88,10.4,2,16.67,12.12,5.75,12.12,5.75Z" transform="translate(-299.05 -210.72)"/><path class="cls-11" d="M442.2,287c1,36.51-18.27,66.64-43,67.3s-45.54-28.39-46.52-64.9,18.29-50.05,43-50.72S441.22,250.54,442.2,287Z" transform="translate(-299.05 -210.72)"/><g class="cls-12"><g class="cls-13"><path class="cls-14" d="M356.3,284.17s-3.63,41.37,25.35,61.68c0,0,3.93,2.57,3.83,5.72-.13,4-29.27-17.34-29.27-17.34l-18.73-45.94Z" transform="translate(-299.05 -210.72)"/></g></g><g class="cls-15"><path class="cls-16" d="M412.39,266.59c-13.48,0-57.58,19.49-62.79,20.1s5.07-37,5.07-37l25.7-15.18L425,238.75l14.75,21.09,9.69,23.2-7.27,4S426.72,275.87,412.39,266.59Z" transform="translate(-299.05 -210.72)"/></g><path class="cls-17" d="M444.52,297.81s-.29-1.37.92-1,3.61,2.55,2.75,7a9.76,9.76,0,0,1-3.41,6,1.43,1.43,0,0,1-.8.3,1.83,1.83,0,0,1-1.18-.28c-.61-.46-.55-2.51-.55-2.51a5.11,5.11,0,0,1,1.34-3.68l.09-.1a5.9,5.9,0,0,0,1.38-2.3C445.38,300.05,444.52,297.81,444.52,297.81Z" transform="translate(-299.05 -210.72)"/><path class="cls-17" d="M350.38,297.81s.29-1.37-.92-1-3.61,2.55-2.75,7a9.76,9.76,0,0,0,3.41,6,1.43,1.43,0,0,0,.8.3,1.83,1.83,0,0,0,1.18-.28c.61-.46.55-2.51.55-2.51a5.11,5.11,0,0,0-1.34-3.68l-.09-.1a5.9,5.9,0,0,1-1.38-2.3C349.52,300.05,350.38,297.81,350.38,297.81Z" transform="translate(-299.05 -210.72)"/><path class="cls-18" d="M374.75,288.29a28.73,28.73,0,0,0-9.18,1.3,119.52,119.52,0,0,0-12.35-.85v4.73c3.06.48,3.65,5.06,3.73,7.73,0,.14,0,.27,0,.41s0,.48,0,.73c0,.48,0,.78,0,.78l0-.37c.47,14.72,9.69,16.68,17.78,16.68a17.84,17.84,0,0,0,17.82-17.82C392.57,292.9,386.41,288.29,374.75,288.29Zm0,29.64c-8.07,0-16.32-1.94-16.32-16.32,0-7.84,5.49-11.81,16.32-11.81s16.32,4,16.32,11.81A16.34,16.34,0,0,1,374.75,317.93Z" transform="translate(-299.05 -210.72)"/><path class="cls-18" d="M402.26,301.61a17.84,17.84,0,0,0,17.82,17.82c8.09,0,17.31-2,17.78-16.68l0,.37s0-.3,0-.78c0-.25,0-.47,0-.73s0-.27,0-.41c.08-2.67.67-7.25,3.73-7.73v-4.6a102.92,102.92,0,0,0-12.35.72,28.73,28.73,0,0,0-9.18-1.3C408.43,288.29,402.26,292.9,402.26,301.61Zm1.5,0c0-7.84,5.49-11.81,16.32-11.81s16.32,4,16.32,11.81c0,14.38-8.25,16.32-16.32,16.32A16.34,16.34,0,0,1,403.77,301.61Z" transform="translate(-299.05 -210.72)"/><path class="cls-18" d="M402.5,298.7a7.38,7.38,0,0,0-5.41-2.07,7.79,7.79,0,0,0-4.91,1.6l-1.91-2.32a10.83,10.83,0,0,1,6.82-2.28,10.68,10.68,0,0,1,7.11,2.53.68.68,0,0,1,0,1Z" transform="translate(-299.05 -210.72)"/><path class="cls-19" d="M137.58,169.81h0a3.63,3.63,0,0,1,3.63,3.63v9.64a0,0,0,0,1,0,0H134a0,0,0,0,1,0,0v-9.64A3.63,3.63,0,0,1,137.58,169.81Z"/><rect class="cls-20" x="136.71" y="173" width="1.74" height="13.08" rx="0.87" ry="0.87"/><circle class="cls-19" cx="137.58" cy="185.13" r="0.56"/></svg>