<?xml version="1.0" encoding="UTF-8"?>
<svg width="16px" height="14px" viewBox="0 0 16 14" version="1.1" xmlns="http://www.w3.org/2000/svg" xmlns:xlink="http://www.w3.org/1999/xlink">
    <!-- Generator: Sketch 50.2 (55047) - http://www.bohemiancoding.com/sketch -->
    <title>留言 (1)</title>
    <desc>Created with Sketch.</desc>
    <defs></defs>
    <g id="作者个人中心-copy" stroke="none" stroke-width="1" fill="none" fill-rule="evenodd" fill-opacity="0.5">
        <g id="18-1-投资人个人中心-我的评论2" transform="translate(-1137.000000, -249.000000)" fill="#383838" fill-rule="nonzero">
            <g id="留言-(1)" transform="translate(1145.000000, 256.000000) scale(-1, 1) translate(-1145.000000, -256.000000) translate(1137.000000, 249.000000)">
                <path d="M14.1555319,0 L1.84446811,0 C0.827428395,0 0,0.864812765 0,1.92780375 L0,9.08426911 C0,10.1472601 0.827428395,11.0120729 1.84446811,11.0120729 L7.81007742,11.0120729 L10.5570899,13.8602101 C10.6470077,13.9534436 10.7644312,14 10.8818085,14 C11.0004539,14 11.1190532,13.9524315 11.2092016,13.857463 C11.38853,13.6684901 11.3873772,13.3633428 11.2065732,13.175888 L8.32475318,10.1879609 C8.32175592,10.1848523 8.318482,10.1822016 8.31541556,10.1791894 C8.3076227,10.1715264 8.29980676,10.1638874 8.29152971,10.1568028 C8.28599631,10.1520796 8.28020929,10.1479349 8.27453754,10.143525 C8.26815106,10.1385609 8.26190293,10.1334763 8.25528589,10.1288496 C8.24873803,10.1242952 8.24195961,10.120295 8.23522731,10.1161261 C8.2290253,10.1122705 8.2229616,10.1082703 8.21657512,10.1047039 C8.20968141,10.1008724 8.20262634,10.0975951 8.19561736,10.0941491 C8.18897728,10.090896 8.18245247,10.0874982 8.175651,10.0845583 C8.16875729,10.0815943 8.16172526,10.0791605 8.15473933,10.0765579 C8.14752285,10.073859 8.1403986,10.0710396 8.13304378,10.0687262 C8.1260348,10.0665333 8.11891054,10.0648706 8.11183239,10.0630151 C8.10431618,10.0610632 8.09689221,10.0589185 8.08926071,10.0573522 C8.08142172,10.0557376 8.07351356,10.0547496 8.06562846,10.0535929 C8.05864253,10.0525567 8.05174884,10.0512314 8.04467069,10.0505325 C8.03418029,10.0494723 8.02364376,10.0491831 8.01313029,10.0488698 C8.00874968,10.0487493 8.00448434,10.048171 8.00008068,10.048171 L1.84446811,10.048171 C1.33594824,10.048171 0.922234054,9.61576464 0.922234054,9.08426913 L0.922234054,1.92780375 C0.922234054,1.39630825 1.33594824,0.963901876 1.84446811,0.963901876 L14.1555319,0.963901876 C14.6640517,0.963901876 15.0777659,1.39630825 15.0777659,1.92780375 L15.0777659,9.08426911 C15.0777659,9.61576461 14.6640517,10.048171 14.1555319,10.048171 L11.3429947,10.048171 C11.0883198,10.048171 10.8818777,10.2639404 10.8818777,10.5301219 C10.8818777,10.7963034 11.0883198,11.0120729 11.3429947,11.0120729 L14.1555319,11.0120729 C15.1725716,11.0120729 16,10.1472601 16,9.08426913 L16,1.92780375 C16,0.864812765 15.1725716,0 14.1555319,0 Z M3.70954815,5.53204974 C3.70954815,5.93131097 4.01922184,6.25497615 4.40122369,6.25497615 C4.78322555,6.25497615 5.09289923,5.93131097 5.09289923,5.53204974 C5.09289923,5.13278851 4.78322555,4.80912334 4.40122369,4.80912334 C4.01922184,4.80912334 3.70954815,5.13278851 3.70954815,5.53204974 Z M7.30626096,5.53204974 C7.30626096,5.93131097 7.61593465,6.25497615 7.9979365,6.25497615 C8.37993835,6.25497615 8.68961204,5.93131097 8.68961204,5.53204974 C8.68961204,5.13278851 8.37993835,4.80912334 7.9979365,4.80912334 C7.61593465,4.80912334 7.30626096,5.13278851 7.30626096,5.53204974 Z M10.856862,5.53204974 C10.856862,5.93131097 11.1665357,6.25497615 11.5485376,6.25497615 C11.9305394,6.25497615 12.2402131,5.93131097 12.2402131,5.53204974 C12.2402131,5.13278851 11.9305394,4.80912334 11.5485376,4.80912334 C11.1665357,4.80912334 10.856862,5.13278851 10.856862,5.53204974 Z" id="Shape"></path>
            </g>
        </g>
    </g>
</svg>