<?xml version="1.0" encoding="UTF-8"?>
<svg width="160px" height="160px" viewBox="0 0 160 160" version="1.1" xmlns="http://www.w3.org/2000/svg" xmlns:xlink="http://www.w3.org/1999/xlink">
    <!-- Generator: Sketch 49.3 (51167) - http://www.bohemiancoding.com/sketch -->
    <title>Artboard</title>
    <desc>Created with Sketch.</desc>
    <defs>
        <polygon id="path-1" points="0 0 20 0 20 20 0 20"></polygon>
    </defs>
    <g id="Artboard" stroke="none" stroke-width="1" fill="none" fill-rule="evenodd">
        <g id="Group" transform="translate(77.922096, 80.922096) rotate(45.000000) translate(-77.922096, -80.922096) translate(49.422096, 28.922096)">
            <path d="M15.0111494,42 L41.9888631,42 C43.0934326,42 43.9888631,42.8954305 43.9888631,44 C43.9888631,44.0188049 43.9885979,44.0376088 43.9880675,44.0564062 L43.2827099,69.0564062 C43.2521772,70.1385779 42.3661079,71 41.2835055,71 L15.716507,71 C14.6339046,71 13.7478353,70.1385779 13.7173026,69.0564062 L13.011945,44.0564062 C12.9807927,42.952276 13.8506131,42.0319478 14.9547433,42.0007956 C14.9735406,42.0002652 14.9923446,42 15.0111494,42 Z" id="Combined-Shape" fill="#999999"></path>
            <path d="M17.0000641,44 L39.9778846,44 C41.082454,44 41.9778846,44.8954305 41.9778846,46 C41.9778846,46.0225883 41.9775019,46.045175 41.9767367,46.0677503 L41.2649497,67.0677503 C41.2284255,68.1453297 40.3442957,69 39.2660975,69 L17.7118511,69 C16.6336529,69 15.7495231,68.1453297 15.712999,67.0677503 L15.0012119,46.0677503 C14.9637945,44.9638148 15.8283782,44.0385653 16.9323138,44.0011479 C16.9548891,44.0003827 16.9774758,44 17.0000641,44 Z" id="Rectangle-2" fill="#ABCA11"></path>
            <g id="Page-1" transform="translate(19.000000, 47.000000)">
                <mask id="mask-2" fill="white">
                    <use xlink:href="#path-1"></use>
                </mask>
                <g id="Clip-2"></g>
                <path d="M16.26679,12.0434909 C15.7404799,12.5696315 15.1074881,12.8321652 14.3671696,12.8321652 L12.6916666,12.8321652 L12.6916666,14.5050392 C12.6916666,15.2447703 12.4264682,15.8760961 11.9003732,16.4024515 C11.3721273,16.9277335 10.7412864,17.1906965 10.001183,17.1906965 C9.24193704,17.1906965 8.60378332,16.9277335 8.08715197,16.4024515 C7.56815469,15.8760961 7.31112951,15.2447703 7.31112951,14.5050392 L7.31112951,12.8321652 L5.63175498,12.8321652 C4.89509286,12.8321652 4.26167099,12.5696315 3.73364019,12.0434909 C3.20582447,11.5160622 2.94406745,10.8853803 2.94406745,10.1492986 C2.94406745,9.38960384 3.20582447,8.75205272 3.73364019,8.23707456 C4.26167099,7.72188174 4.89509286,7.463856 5.63175498,7.463856 L7.31112951,7.463856 L7.31112951,5.79076732 C7.31112951,5.05189494 7.56815469,4.42035441 8.08715197,3.89421374 C8.60378332,3.36742908 9.24193704,3.10532473 10.001183,3.10532473 C10.7412864,3.10532473 11.3721273,3.36742908 11.9003732,3.89421374 C12.4264682,4.42035441 12.6916666,5.05189494 12.6916666,5.79076732 L12.6916666,7.463856 L14.3671696,7.463856 C15.1074881,7.463856 15.7404799,7.72188174 16.26679,8.23707456 C16.7963264,8.75205272 17.057008,9.38960384 17.057008,10.1492986 C17.057008,10.8853803 16.7963264,11.5160622 16.26679,12.0434909 M17.0793767,2.91942599 C15.1348038,0.973929097 12.7809264,0 10.0179595,0 C7.25735856,0 4.89702862,0.973929097 2.93998086,2.91942599 C0.979491757,4.86642553 0,7.2197834 0,9.9807876 C0,12.7411478 0.979491757,15.1024482 2.93998086,17.0618983 C4.89702862,19.0204896 7.25735856,20 10.0179595,20 C12.7809264,20 15.1348038,19.0204896 17.0793767,17.0618983 C19.0243798,15.1024482 20,12.7411478 20,9.9807876 C20,7.2197834 19.0243798,4.86642553 17.0793767,2.91942599" id="Fill-1" fill="#FFFFFF" mask="url(#mask-2)"></path>
            </g>
            <path d="M20,69 L36,69 L35.3645285,96.8018801 C35.27306,100.803625 32.0027901,104 28,104 C23.9972099,104 20.72694,100.803625 20.6354715,96.8018801 L20,69 Z M22.4,71.4496631 L23.0724731,96.7520313 C23.1434458,99.4224373 25.328651,101.550337 28,101.550337 C30.671349,101.550337 32.8565542,99.4224373 32.9275269,96.7520313 L33.6,71.4496631 L22.4,71.4496631 Z" id="Combined-Shape" fill="#999999"></path>
            <path d="M20,38 L36,38 L35.2,44 L20.8,44 L20,38 Z M22.6814453,40.5551204 L22.6814453,41.4810605 L33.3289063,41.4810605 L33.3289063,40.5551204 L22.6814453,40.5551204 Z" id="Combined-Shape" fill="#999999"></path>
            <path d="M9.01060194,27.06 L47.9893981,27.06 C45.2451538,35.1646035 37.5561976,41 28.5,41 C19.4438024,41 11.7548462,35.1646035 9.01060194,27.06 Z M8,18.86 C8.83811993,8.30495737 17.6961286,0 28.5,0 C39.3038714,0 48.1618801,8.30495737 49,18.86 L8,18.86 Z" id="Combined-Shape" fill="#999999"></path>
            <circle id="Oval-2" fill="#FFFFFF" cx="28.5" cy="20.5" r="18.5"></circle>
            <path d="M4,19 L53,19 C55.209139,19 57,20.790861 57,23 C57,25.209139 55.209139,27 53,27 L4,27 C1.790861,27 2.705415e-16,25.209139 0,23 C-2.705415e-16,20.790861 1.790861,19 4,19 Z M4.15935407,21.4 C3.27569847,21.4 2.55935407,22.1163444 2.55935407,23 C2.55935407,23.8836556 3.27569847,24.6 4.15935407,24.6 L52.9527693,24.6 C53.8364249,24.6 54.5527693,23.8836556 54.5527693,23 C54.5527693,22.1163444 53.8364249,21.4 52.9527693,21.4 L4.15935407,21.4 Z" id="Combined-Shape" fill="#999999"></path>
            <circle id="Oval-3" fill="#ABCA11" cx="18" cy="12" r="1"></circle>
            <circle id="Oval-3-Copy-12" fill="#ABCA11" cx="19" cy="30" r="1"></circle>
            <circle id="Oval-3-Copy-9" fill="#ABCA11" cx="23" cy="7" r="1"></circle>
            <circle id="Oval-3-Copy-16" fill="#ABCA11" cx="23" cy="35" r="1"></circle>
            <circle id="Oval-3-Copy-3" fill="#ABCA11" cx="15" cy="17" r="1"></circle>
            <circle id="Oval-3-Copy-6" fill="#ABCA11" cx="36" cy="17" r="1"></circle>
            <circle id="Oval-3-Copy" fill="#ABCA11" cx="25" cy="12" r="1"></circle>
            <circle id="Oval-3-Copy-13" fill="#ABCA11" cx="26" cy="30" r="1"></circle>
            <circle id="Oval-3-Copy-10" fill="#ABCA11" cx="29" cy="5" r="1"></circle>
            <circle id="Oval-3-Copy-17" fill="#ABCA11" cx="29" cy="36" r="1"></circle>
            <circle id="Oval-3-Copy-4" fill="#ABCA11" cx="22" cy="17" r="1"></circle>
            <circle id="Oval-3-Copy-7" fill="#ABCA11" cx="43" cy="17" r="1"></circle>
            <circle id="Oval-3-Copy-2" fill="#ABCA11" cx="32" cy="12" r="1"></circle>
            <circle id="Oval-3-Copy-14" fill="#ABCA11" cx="33" cy="30" r="1"></circle>
            <circle id="Oval-3-Copy-11" fill="#ABCA11" cx="34" cy="7" r="1"></circle>
            <circle id="Oval-3-Copy-18" fill="#ABCA11" cx="34" cy="35" r="1"></circle>
            <circle id="Oval-3-Copy-5" fill="#ABCA11" cx="30" cy="17" r="1"></circle>
            <circle id="Oval-3-Copy-8" fill="#ABCA11" cx="39" cy="12" r="1"></circle>
            <circle id="Oval-3-Copy-15" fill="#ABCA11" cx="40" cy="30" r="1"></circle>
        </g>
        <path d="M32.8375,43.6040518 L34.1375,41.3040518 C34.3375,41.0040518 34.7375,40.9040518 35.0375,41.1040518 C35.1375,41.2040518 35.2375,41.2040518 35.2375,41.3040518 L36.5375,43.6040518 C36.6375,43.7040518 36.6375,43.8040518 36.8375,43.9040518 L39.1375,45.2040518 C39.4375,45.4040518 39.5375,45.7040518 39.4375,46.1040518 C39.3375,46.2040518 39.2375,46.3040518 39.1375,46.4040518 L36.8375,47.7040518 C36.7375,47.8040518 36.6375,47.9040518 36.5375,48.0040518 L35.3375,50.1040518 C35.1375,50.4040518 34.7375,50.5040518 34.4375,50.4040518 C34.4375,50.4040518 34.4375,50.4040518 34.4375,50.4040518 C34.3375,50.3040518 34.2375,50.3040518 34.1375,50.1040518 L32.8375,47.8040518 C32.7375,47.7040518 32.7375,47.6040518 32.5375,47.5040518 L30.3375,46.3040518 C30.0375,46.1040518 29.9375,45.7040518 30.0375,45.4040518 C30.0375,45.4040518 30.0375,45.4040518 30.0375,45.4040518 C30.1375,45.3040518 30.2375,45.2040518 30.3375,45.1040518 L32.6375,43.8040518 C32.7375,43.8040518 32.8375,43.7040518 32.8375,43.6040518 Z" id="Shape" fill="#999999" fill-rule="nonzero"></path>
        <path d="M118.3,112 L122.3,112 C123,112 123.6,112.6 123.6,113.3 C123.6,114 123,114.6 122.3,114.6 L118.3,114.6 C117.6,114.6 117,114 117,113.3 C117,112.6 117.6,112 118.3,112 Z" id="Shape" fill="#999999" fill-rule="nonzero"></path>
        <path d="M133.210944,117.2 L130.510944,117.2 C129.810944,117.2 129.210944,116.6 129.210944,115.9 C129.210944,115.2 129.810944,114.6 130.510944,114.6 C131.210944,114.7 131.910944,114.1 131.910944,113.4 C132.010944,112.7 131.410944,112 130.710944,112 C130.710944,112 130.710944,112 130.710944,112 L126.110944,112 C125.410944,112.1 124.810944,112.7 124.910944,113.5 C125.010944,114.1 125.510944,114.7 126.110944,114.7 C126.810944,114.7 127.410944,115.3 127.410944,116 C127.410944,116.7 126.810944,117.3 126.110944,117.3 L120.210944,117.3 C119.510944,117.4 118.910944,118 119.010944,118.8 C119.110944,119.4 119.610944,120 120.210944,120 L133.210944,120 C133.910944,119.9 134.510944,119.3 134.410944,118.5 C134.410944,117.8 133.910944,117.3 133.210944,117.2 Z" id="Shape" fill="#999999" fill-rule="nonzero"></path>
        <circle id="Oval" stroke="#C7C7C7" stroke-width="2" cx="80" cy="80" r="75"></circle>
    </g>
</svg>