<?xml version="1.0" encoding="utf-8"?>
<!-- Generator: Adobe Illustrator 22.0.0, SVG Export Plug-In . SVG Version: 6.00 Build 0)  -->
<svg version="1.1" id="图层_1" xmlns="http://www.w3.org/2000/svg" xmlns:xlink="http://www.w3.org/1999/xlink" x="0px" y="0px"
	 viewBox="0 0 152 152" style="enable-background:new 0 0 152 152;" xml:space="preserve">
<style type="text/css">
	.st0{fill:#FFFFFF;}
	.st1{fill:#999999;}
	.st2{fill:#FFFFFF;stroke:#383838;stroke-width:6;stroke-linecap:round;stroke-miterlimit:10;}
	.st3{fill:#FFFFFF;stroke:#383838;stroke-width:6;stroke-miterlimit:10;}
	.st4{fill:#ABCA11;}
	.st5{fill:none;stroke:#C7C7C7;stroke-width:2;stroke-miterlimit:10;}
</style>
<title>投资服务</title>
<path class="st0" d="M50.9,50.6H101c6.2,0,11.2,5,11.2,11.2v33.1H39.7V61.8C39.7,55.6,44.7,50.6,50.9,50.6z"/>
<path class="st1" d="M113.6,96.4H38.3V56.1c-0.1-3.8,2.9-6.9,6.7-7h61.9c3.8,0.1,6.8,3.2,6.7,7V96.4z M41.1,93.4h69.7V56.1
	c0-2.2-1.7-4-3.9-4.1H45c-2.2,0.1-3.9,1.9-3.9,4.1V93.4z"/>
<path class="st0" d="M65.2,58.6h34.7c2.3,0,4.3,1.9,4.3,4.3l0,0l0,0v28c0,2.1-1.7,3.8-3.8,3.8l0,0H51c-2.1,0-3.8-1.7-3.8-3.8v-28
	c0-2.4,1.9-4.3,4.3-4.3l0,0h3.9"/>
<path class="st1" d="M100.4,96H51c-2.8,0-5.2-2.3-5.2-5.1v-28c0-3.1,2.5-5.7,5.7-5.7h3.9c0.8,0,1.4,0.6,1.4,1.4
	c0,0.8-0.6,1.4-1.4,1.4h-4c-1.6,0-2.8,1.3-2.8,2.8v0l0,0v28c0,1.3,1.1,2.4,2.4,2.4h49.4c1.3,0,2.4-1.1,2.4-2.4v-28
	c0-1.6-1.3-2.8-2.8-2.8l0,0H65.2c-0.8,0-1.4-0.6-1.4-1.4s0.6-1.4,1.4-1.4c0,0,0,0,0,0h34.7c3.1,0,5.7,2.5,5.7,5.7v28
	C105.5,93.7,103.2,96,100.4,96z"/>
<path class="st2" d="M65.2,58.6"/>
<path class="st2" d="M63.4,58.6"/>
<path class="st3" d="M63.4,58.6"/>
<path class="st3" d="M55.4,58.6"/>
<path class="st4" d="M55.4,80.9v-1.5c0-1,0.8-1.7,1.7-1.7h5c1,0,1.7,0.8,1.7,1.7c0,0,0,0,0,0l0,0v13.3c0,1-0.8,1.7-1.7,1.7h-5
	c-1,0-1.7-0.8-1.7-1.7L55.4,80.9"/>
<path class="st1" d="M62.2,95.7h-5c-1.6,0-2.9-1.3-2.9-2.9V79.5c0-1.6,1.3-2.9,2.9-2.9h5c1.6,0,2.9,1.3,2.9,2.9v13.3
	C65.1,94.4,63.8,95.7,62.2,95.7z M57.2,78.9c-0.3,0-0.6,0.3-0.6,0.6v13.3c0,0.3,0.3,0.6,0.6,0.6h5c0.3,0,0.6-0.2,0.6-0.6V79.5
	c0-0.3-0.3-0.6-0.6-0.6H57.2z"/>
<path class="st4" d="M74.7,72.3h1.1c2,0,3.7,1.7,3.7,3.7v14.8c0,2-1.7,3.7-3.7,3.7h-1.1c-2,0-3.7-1.7-3.7-3.7V76
	C71.1,73.9,72.7,72.3,74.7,72.3z"/>
<path class="st1" d="M77.8,95.7h-5c-1.6,0-2.9-1.3-2.9-2.9V74c0-1.6,1.3-2.9,2.9-2.9h5c1.6,0,2.9,1.3,2.9,2.9v18.8
	C80.7,94.4,79.4,95.7,77.8,95.7z M72.8,73.4c-0.3,0-0.6,0.2-0.6,0.6v18.8c0,0.3,0.3,0.6,0.6,0.6h5c0.3,0,0.6-0.3,0.6-0.6V74
	c0-0.3-0.3-0.6-0.6-0.6L72.8,73.4z"/>
<path class="st4" d="M95.1,75.6v17.2c0,1-0.8,1.7-1.7,1.7h-5c-1,0-1.7-0.8-1.8-1.7l0,0V66.9c0-1,0.8-1.8,1.8-1.8h5
	c1,0,1.7,0.8,1.7,1.7l0,0v4.6"/>
<path class="st1" d="M93.4,95.7h-5c-1.6,0-2.9-1.3-2.9-2.9V66.9c0-1.6,1.3-2.9,2.9-2.9h5c1.6,0,2.9,1.3,2.9,2.9c0,0,0,0,0,0v4.6
	c0,0.7-0.5,1.2-1.2,1.2c-0.6,0-1.2-0.5-1.2-1.2l0,0v-4.6c0-0.3-0.2-0.6-0.5-0.6c0,0,0,0,0,0h-5c-0.3,0-0.6,0.2-0.6,0.6v25.9
	c0,0.3,0.3,0.6,0.6,0.6h5c0.3,0,0.6-0.3,0.6-0.6V75.6c0-0.7,0.5-1.2,1.2-1.2s1.2,0.5,1.2,1.2c0,0,0,0,0,0l0,0v17.2
	C96.3,94.4,95,95.7,93.4,95.7z"/>
<path class="st2" d="M88,102.5"/>
<path class="st0" d="M88,102.5H36.3c-3.3,0-6-2.7-6-6v-0.9c0-1.4,1.2-2.6,2.6-2.6H119c1.4,0,2.6,1.1,2.6,2.6c0,0,0,0,0,0v0.9
	c0,3.3-2.7,6-6,6h-13.1"/>
<path class="st1" d="M115.6,104h-13.2c-0.8,0-1.4-0.6-1.4-1.4s0.6-1.4,1.4-1.4c0,0,0,0,0,0h13.2c2.5,0,4.6-2,4.6-4.6v-0.9
	c0-0.7-0.5-1.2-1.2-1.2H32.9c-0.7,0-1.2,0.5-1.2,1.2v0.9c0,2.5,2.1,4.6,4.6,4.6H88c0.8,0,1.4,0.6,1.4,1.4c0,0.8-0.6,1.4-1.4,1.4
	H36.3c-4.1,0-7.4-3.3-7.4-7.4v-0.9c0-2.2,1.8-4,4-4H119c2.2,0,4,1.8,4,4v0.9C123,100.6,119.7,103.9,115.6,104z"/>
<circle class="st4" cx="60.1" cy="58.5" r="1.4"/>
<circle class="st4" cx="95.1" cy="102.5" r="1.4"/>
<path class="st1" d="M28.5,39.3l1.3-2.3c0.2-0.3,0.6-0.4,0.9-0.2c0.1,0.1,0.2,0.1,0.2,0.2l1.3,2.3c0.1,0.1,0.1,0.2,0.3,0.3l2.3,1.3
	c0.3,0.2,0.4,0.5,0.3,0.9c-0.1,0.1-0.2,0.2-0.3,0.3l-2.3,1.3c-0.1,0.1-0.2,0.2-0.3,0.3L31,45.8c-0.2,0.3-0.6,0.4-0.9,0.3
	c0,0,0,0,0,0c-0.1-0.1-0.2-0.1-0.3-0.3l-1.3-2.3c-0.1-0.1-0.1-0.2-0.3-0.3L26,42c-0.3-0.2-0.4-0.6-0.3-0.9c0,0,0,0,0,0
	c0.1-0.1,0.2-0.2,0.3-0.3l2.3-1.3C28.4,39.5,28.5,39.4,28.5,39.3z"/>
<path class="st1" d="M114.1,107.4h4c0.7,0,1.3,0.6,1.3,1.3v0c0,0.7-0.6,1.3-1.3,1.3h-4c-0.7,0-1.3-0.6-1.3-1.3v0
	C112.8,108,113.4,107.4,114.1,107.4z"/>
<path class="st1" d="M129.1,112.7h-2.7c-0.7,0-1.3-0.6-1.3-1.3c0-0.7,0.6-1.3,1.3-1.3c0.7,0.1,1.4-0.5,1.4-1.2
	c0.1-0.7-0.5-1.4-1.2-1.4c0,0,0,0,0,0H122c-0.7,0.1-1.3,0.7-1.2,1.5c0.1,0.6,0.6,1.2,1.2,1.2c0.7,0,1.3,0.6,1.3,1.3
	c0,0.7-0.6,1.3-1.3,1.3h-5.9c-0.7,0.1-1.3,0.7-1.2,1.5c0.1,0.6,0.6,1.2,1.2,1.2h13c0.7-0.1,1.3-0.7,1.2-1.5
	C130.3,113.3,129.8,112.8,129.1,112.7z"/>
<circle class="st5" cx="76" cy="76" r="75"/>
</svg>
