<?xml version="1.0" encoding="utf-8"?>
<!-- Generator: Adobe Illustrator 22.0.0, SVG Export Plug-In . SVG Version: 6.00 Build 0)  -->
<svg version="1.1" id="图层_1" xmlns="http://www.w3.org/2000/svg" xmlns:xlink="http://www.w3.org/1999/xlink" x="0px" y="0px"
	 viewBox="0 0 152 152" style="enable-background:new 0 0 152 152;" xml:space="preserve">
<style type="text/css">
	.st0{fill:#FFFFFF;}
	.st1{fill:#999999;}
	.st2{fill:#ABCA11;}
	.st3{fill:#FFFFFF;stroke:#383838;stroke-width:6;stroke-linecap:round;stroke-miterlimit:10;}
	.st4{fill:none;stroke:#C7C7C7;stroke-width:2;stroke-miterlimit:10;}
</style>
<title>行研</title>
<path class="st0" d="M63.1,39h28.1c6.8,0,12.3,5.5,12.3,12.3v41.7c0,6.8-5.5,12.3-12.3,12.3H63.1c-6.8,0-12.3-5.5-12.3-12.3V51.2
	C50.9,44.5,56.3,39,63.1,39z"/>
<path class="st1" d="M97.7,106.6h-41c-4,0-7.2-3.2-7.2-7.2V44.7c0-4,3.2-7.2,7.2-7.2h41c4,0,7.2,3.2,7.3,7.2v54.6
	C104.9,103.3,101.7,106.6,97.7,106.6z M56.7,40.4c-2.4,0-4.3,1.9-4.3,4.4l0,0v54.6c0,2.4,1.9,4.3,4.3,4.3c0,0,0,0,0,0h41
	c2.4,0,4.3-1.9,4.3-4.3c0,0,0,0,0,0V44.7c0-2.4-1.9-4.4-4.3-4.4l0,0L56.7,40.4z"/>
<path class="st1" d="M94.8,54.9H68.3c-0.8,0-1.4-0.7-1.4-1.5c0-0.8,0.6-1.4,1.4-1.4h26.5c0.8,0,1.5,0.6,1.5,1.4S95.6,54.9,94.8,54.9
	C94.8,54.9,94.8,54.9,94.8,54.9z"/>
<circle class="st2" cx="60.5" cy="53.5" r="1.5"/>
<path class="st1" d="M94.9,68H68.4c-0.8,0-1.5-0.6-1.5-1.4s0.6-1.5,1.4-1.5c0,0,0,0,0,0h26.5c0.8,0,1.4,0.7,1.4,1.5
	C96.3,67.3,95.7,67.9,94.9,68z"/>
<circle class="st2" cx="60.6" cy="66.5" r="1.4"/>
<path class="st1" d="M94.8,81H77.4c-0.8,0-1.4-0.7-1.4-1.5c0-0.8,0.6-1.4,1.4-1.4h17.3c0.8,0,1.4,0.6,1.5,1.5
	C96.3,80.3,95.6,81,94.8,81L94.8,81L94.8,81z"/>
<path class="st1" d="M94.8,94h-13c-0.8,0.1-1.5-0.4-1.7-1.2c-0.1-0.8,0.4-1.5,1.2-1.7c0.1,0,0.2,0,0.2,0h13.3
	c0.8-0.1,1.5,0.4,1.7,1.2c0.1,0.8-0.4,1.5-1.2,1.7c-0.1,0-0.2,0-0.2,0H94.8z"/>
<path class="st1" d="M58.1,98.4l-16,16c-0.7,0.7-1.8,0.7-2.5,0l0,0c-0.7-0.7-0.7-1.8,0-2.4c0,0,0,0,0,0l16-16c0.7-0.7,1.8-0.7,2.4,0
	c0,0,0,0,0,0l0,0C58.7,96.6,58.7,97.7,58.1,98.4C58.1,98.4,58.1,98.4,58.1,98.4z"/>
<path class="st3" d="M46.1,90"/>
<path class="st2" d="M46.1,90c2.4-7.6,10.6-11.8,18.3-9.4C72,83,76.2,91.2,73.7,98.8c-2.4,7.6-10.6,11.8-18.3,9.4
	c-6-1.9-10.1-7.5-10.1-13.8"/>
<path class="st1" d="M59.9,110.4c-8.8,0-15.9-7.1-15.9-15.9c0-0.8,0.6-1.5,1.5-1.5s1.5,0.6,1.5,1.5l0,0c0,7.2,5.9,13,13,13
	c7.2,0,13-5.9,13-13c0-7.2-5.9-13-13-13c-5.6,0-10.6,3.7-12.3,9c-0.2,0.8-1,1.2-1.8,1c-0.7-0.2-1.2-1-1-1.7c0,0,0-0.1,0-0.1
	c2.7-8.4,11.7-13,20-10.2s13,11.7,10.2,20C72.9,105.9,66.7,110.3,59.9,110.4L59.9,110.4z"/>
<path class="st1" d="M30.1,38.5l1.3-2.4c0.2-0.3,0.6-0.4,0.9-0.2c0,0,0,0,0,0c0.1,0.1,0.2,0.1,0.2,0.2l1.3,2.4
	c0.1,0.1,0.2,0.2,0.3,0.3l2.4,1.3c0.3,0.2,0.4,0.6,0.3,0.9c-0.1,0.1-0.2,0.2-0.3,0.3l-2.4,1.3c-0.1,0.1-0.2,0.2-0.3,0.3l-1.3,2.4
	c-0.2,0.3-0.6,0.4-0.9,0.3c0,0,0,0,0,0c-0.1-0.1-0.2-0.2-0.3-0.3l-1.3-2.4c-0.1-0.1-0.1-0.2-0.3-0.3l-2.4-1.3
	c-0.3-0.2-0.4-0.6-0.3-0.9c0.1-0.1,0.2-0.2,0.3-0.3l2.4-1.3C29.9,38.7,30,38.6,30.1,38.5z"/>
<path class="st1" d="M112.3,108h4.1c0.8,0,1.4,0.6,1.4,1.4v0c0,0.8-0.6,1.4-1.4,1.4h-4.1c-0.8,0-1.4-0.6-1.4-1.4v0
	C111,108.6,111.6,108,112.3,108z"/>
<path class="st1" d="M127.7,113.5h-2.7c-0.7,0.1-1.4-0.5-1.5-1.2s0.5-1.4,1.2-1.5c0.1,0,0.2,0,0.2,0c0.8,0.1,1.4-0.5,1.5-1.3
	c0.1-0.7-0.5-1.4-1.2-1.5h-4.8c-0.8,0.1-1.3,0.7-1.2,1.5c0.1,0.7,0.6,1.2,1.2,1.2c0.7,0.1,1.3,0.7,1.2,1.5c-0.1,0.7-0.6,1.2-1.2,1.2
	h-6c-0.8,0.1-1.3,0.7-1.2,1.5c0.1,0.7,0.6,1.2,1.2,1.2h13.3c0.8-0.1,1.3-0.7,1.2-1.5C128.9,114,128.3,113.5,127.7,113.5L127.7,113.5
	z"/>
<circle class="st4" cx="76" cy="76" r="75"/>
</svg>
