<?xml version="1.0" standalone="no"?><!DOCTYPE svg PUBLIC "-//W3C//DTD SVG 1.1//EN" "http://www.w3.org/Graphics/SVG/1.1/DTD/svg11.dtd"><svg t="1523623666457" class="icon" style="" viewBox="0 0 1024 1024" version="1.1" xmlns="http://www.w3.org/2000/svg" p-id="1111" xmlns:xlink="http://www.w3.org/1999/xlink" width="20" height="20"><defs><style type="text/css"></style></defs><path d="M515.38758 1024.002596c-271.476637 0-491.521565-220.063898-491.521565-491.521565 0-271.496605 220.04393-491.540535 491.521565-491.540535 271.496605 0 491.540535 220.04393 491.540535 491.540535 0 271.457668-220.04393 491.521565-491.540535 491.521565zM515.38758 102.380192c-237.522963 0-430.080871 192.557907-430.080871 430.100839 0 237.522963 192.557907 430.080871 430.080871 430.080871 237.541933 0 430.100839-192.557907 430.100839-430.080871 0-237.541933-192.557907-430.100839-430.100839-430.100839zM776.95607 593.921725l-262.000799 0c-9.260184 0-17.439097-4.286142-22.983227-10.911542-4.482827-5.269569-7.294329-11.973842-7.294329-19.385982l0-0.275559c0-0.058906-0.019968-0.097843-0.019968-0.157748s0.019968-0.078874 0.019968-0.157748l-0.019968-307.496006c0.019968-16.73123 13.762979-30.277556 30.729832-30.277556 16.966853 0 30.7498 13.566294 30.7498 30.277556l-0.019968 276.942891 230.798722 0c16.751198 0 30.336462 13.743011 30.317492 30.709864 0 16.986821-13.546326 30.729832-30.277556 30.729832z" p-id="1112" fill="#dbdbdb"></path></svg>