<?xml version="1.0" encoding="UTF-8"?>
<svg width="14px" height="14px" viewBox="0 0 14 14" version="1.1" xmlns="http://www.w3.org/2000/svg" xmlns:xlink="http://www.w3.org/1999/xlink">
    <!-- Generator: Sketch 49 (51002) - http://www.bohemiancoding.com/sketch -->
    <title>关闭</title>
    <desc>Created with Sketch.</desc>
    <defs></defs>
    <g id="01-首页" stroke="none" stroke-width="1" fill="none" fill-rule="evenodd">
        <g id="01-3-首页菜单展开2" transform="translate(-341.000000, -89.000000)" fill="#A9ADC6">
            <g id="top" transform="translate(0.000000, 64.000000)">
                <path d="M349.12774,32 L354.766437,37.6386979 C355.077854,37.9501146 355.077854,38.4550208 354.766437,38.7664375 C354.455021,39.0778542 353.950115,39.0778542 353.638698,38.7664375 L348,33.1277396 L342.361302,38.7664375 C342.049885,39.0778542 341.544979,39.0778542 341.233563,38.7664375 C340.922146,38.4550208 340.922146,37.9501146 341.233563,37.6386979 L346.87226,32 L341.233563,26.3613021 C340.922146,26.0498854 340.922146,25.5449792 341.233563,25.2335625 C341.544979,24.9221458 342.049885,24.9221458 342.361302,25.2335625 L348,30.8722604 L353.638698,25.2335625 C353.950115,24.9221458 354.455021,24.9221458 354.766437,25.2335625 C355.077854,25.5449792 355.077854,26.0498854 354.766437,26.3613021 L349.12774,32 Z" id="关闭"></path>
            </g>
        </g>
    </g>
</svg>