<?xml version="1.0" encoding="UTF-8"?>
<svg width="18px" height="16px" viewBox="0 0 18 16" version="1.1" xmlns="http://www.w3.org/2000/svg" xmlns:xlink="http://www.w3.org/1999/xlink">
    <!-- Generator: Sketch 49 (51002) - http://www.bohemiancoding.com/sketch -->
    <title>菜单</title>
    <desc>Created with Sketch.</desc>
    <defs></defs>
    <g id="03-开讲" stroke="none" stroke-width="1" fill="none" fill-rule="evenodd">
        <g id="03-1-开讲专辑页_简介" transform="translate(-337.000000, -88.000000)" fill="#A9ADC6">
            <g id="top" transform="translate(0.000000, 64.000000)">
                <path d="M337.75,24 L354.25,24 C354.664214,24 355,24.3357864 355,24.75 C355,25.1642136 354.664214,25.5 354.25,25.5 L337.75,25.5 C337.335786,25.5 337,25.1642136 337,24.75 C337,24.3357864 337.335786,24 337.75,24 Z M337.75,31 L354.25,31 C354.664214,31 355,31.3357864 355,31.75 C355,32.1642136 354.664214,32.5 354.25,32.5 L337.75,32.5 C337.335786,32.5 337,32.1642136 337,31.75 C337,31.3357864 337.335786,31 337.75,31 Z M337.75,38 L354.25,38 C354.664214,38 355,38.3357864 355,38.75 C355,39.1642136 354.664214,39.5 354.25,39.5 L337.75,39.5 C337.335786,39.5 337,39.1642136 337,38.75 C337,38.3357864 337.335786,38 337.75,38 Z" id="菜单"></path>
            </g>
        </g>
    </g>
</svg>