<?xml version="1.0" encoding="UTF-8"?>
<svg width="40px" height="40px" viewBox="0 0 40 40" version="1.1" xmlns="http://www.w3.org/2000/svg" xmlns:xlink="http://www.w3.org/1999/xlink">
    <!-- Generator: Sketch 50.2 (55047) - http://www.bohemiancoding.com/sketch -->
    <title>回到顶部</title>
    <desc>Created with Sketch.</desc>
    <defs></defs>
    <g id="03-开讲" stroke="none" stroke-width="1" fill="none" fill-rule="evenodd">
        <g id="03-5-开讲详情页_音频" transform="translate(-315.000000, -1930.000000)">
            <g id="Group" transform="translate(0.000000, 361.000000)">
                <g id="简介" transform="translate(0.000000, 780.000000)"></g>
            </g>
            <g id="回到顶部" transform="translate(315.000000, 1930.000000)" fill="#3A3C40" fill-rule="nonzero" opacity="0.3">
                <path d="M20,0 C8.95233487,0 0,8.95717353 0,19.999999 C0,31.0428245 8.95717397,39.999998 20,39.999998 C31.042826,40.0048371 40,31.0476636 40,20.0048381 C40,8.96201263 31.042826,0 20,0 Z M13.7478829,10.5927892 L25.6617469,10.5927892 C26.2230825,10.5927892 26.682797,11.0379864 26.682797,11.5896438 C26.682797,12.1413011 26.2279216,12.5864983 25.6617469,12.5864983 L13.7478829,12.5864983 C13.1865473,12.5864983 12.7268328,12.1413011 12.7268328,11.5896438 C12.7268328,11.0379864 13.1817082,10.5927892 13.7478829,10.5927892 Z M26.6876361,22.4534226 C26.1940479,22.9324934 25.3955964,22.9324934 24.9068473,22.4534226 L20.725865,18.3789006 L20.725865,29.0104026 C20.725865,29.56206 20.2709896,30.0072572 19.7048149,30.0072572 C19.1434793,30.0072572 18.6837648,29.56206 18.6837648,29.0104026 L18.6837648,18.3740615 L14.5027825,22.4485835 C14.0091943,22.9276543 13.2107428,22.9276543 12.7219937,22.4485835 C12.2284055,21.9695126 12.2284055,21.1904175 12.7219937,20.7113467 L18.8095814,14.7786105 C18.8095814,14.7786105 18.8095814,14.7737714 18.8144205,14.7737714 C19.0612146,14.5318164 19.3854343,14.415678 19.7048149,14.415678 C20.0290346,14.415678 20.3484152,14.5366555 20.5952093,14.7737714 C20.5952093,14.7737714 20.5952093,14.7786105 20.6000484,14.7786105 L26.6876361,20.7161858 C27.1812243,21.1952566 27.1812243,21.9695126 26.6876361,22.4534226 Z" id="Shape"></path>
            </g>
        </g>
    </g>
</svg>