<?xml version="1.0" encoding="UTF-8"?>
<svg width="59px" height="21px" viewBox="0 0 59 21" version="1.1" xmlns="http://www.w3.org/2000/svg" xmlns:xlink="http://www.w3.org/1999/xlink">
    <!-- Generator: Sketch 50 (54983) - http://www.bohemiancoding.com/sketch -->
    <title>logo</title>
    <desc>Created with Sketch.</desc>
    <defs></defs>
    <g id="03-开讲" stroke="none" stroke-width="1" fill="none" fill-rule="evenodd">
        <g id="03-4-开讲详情页_视频" transform="translate(-158.000000, -2238.000000)">
            <g id="Group" transform="translate(0.000000, 128.000000)">
                <g id="foot" transform="translate(0.000000, 2081.000000)">
                    <g id="logo" transform="translate(158.000000, 29.000000)">
                        <path d="M0.286951662,8.83890063 L0.286951662,7.73953488 L5.48477228,7.73953488 L5.48477228,6.79238901 L7.46255937,6.79238901 L7.46255937,7.73953488 L12.7166806,7.73953488 L12.7166806,8.83890063 L7.97108131,8.83890063 C8.64789979,9.78604651 10.324206,10.5054264 13,10.9970402 L13,11.9966173 C9.91012387,11.6504581 7.74285182,10.8797745 6.49818385,9.6845666 C5.25472665,10.8775194 3.08866536,11.6493305 0,12 L0,11.0004228 C2.59951569,10.549401 4.27582192,9.83002114 5.02891869,8.8422833 L0.286951662,8.83890063 Z M0.399552948,2.05158562 L0.399552948,0.947145877 L2.99846326,0.947145877 C2.87965821,0.641757279 2.80336399,0.323449812 2.77144454,9.6141089e-15 L4.63663034,9.6141089e-15 C4.6585154,0.324679094 4.7344909,0.644213118 4.86183291,0.947145877 L8.08368259,0.947145877 C8.09022485,0.891051262 8.10941007,0.83687487 8.13998324,0.788160677 C8.23597553,0.531016545 8.31125161,0.267566408 8.36518581,0 L10.2303716,0 C10.1631762,0.322062794 10.0690552,0.638742314 9.9488684,0.947145877 L12.6040794,0.947145877 L12.6040794,2.05158562 L7.40625873,2.05158562 L7.40625873,3.15602537 L11.8703548,3.15602537 L11.8703548,4.20972516 L7.40625873,4.20972516 L7.40625873,5.36659619 L12.8873987,5.36659619 L12.8873987,6.47103594 L0.0599329422,6.47103594 L0.0599329422,5.37167019 L5.48477228,5.37167019 L5.48477228,4.21479915 L1.12601285,4.21479915 L1.12601285,3.16109937 L5.48477228,3.16109937 L5.48477228,2.05665962 L0.399552948,2.05158562 Z" id="Shape" fill="#FFFFFF" fill-rule="nonzero"></path>
                        <path d="M19.5303635,8.59217331 C19.0072101,7.91380215 18.5597222,7.17365486 18.1967945,6.38644305 L18.1967945,13 L16.5975402,13 L16.5975402,6.94605171 C16.2053332,8.07640242 15.667742,9.14392805 15,10.1183788 L15,8.19608665 C15.6669103,6.55664917 16.1835184,4.85302198 16.5426891,3.10873515 L15.155983,3.10873515 L15.155983,1.9222921 L16.5958261,1.9222921 L16.5958261,0 L18.1950804,0 L18.1950804,1.9222921 L19.5286494,1.9222921 L19.5286494,3.10873515 L18.256788,3.10873515 C18.477094,4.42118008 18.9103148,5.683227 19.5372199,6.83885395 L19.5303635,8.59217331 Z M20.0103112,12.4912648 L20.0103112,1.58979734 L22.0363762,1.58979734 C22.1995319,1.09256733 22.3244968,0.582169654 22.4100498,0.0635918938 L24.2235664,0.0635918938 C24.149194,0.590948627 24.0055292,1.10467054 23.7967558,1.58979734 L26.9986926,1.58979734 L26.9986926,10.5199161 C27.0329746,11.8777545 26.3930443,12.5372933 25.0789018,12.4985325 L20.0103112,12.4912648 Z M21.6644167,6.16114605 L25.3428731,6.16114605 L25.3428731,2.76715584 L21.6644167,2.76715584 L21.6644167,6.16114605 Z M21.6644167,11.4174703 L24.5423888,11.4174703 C25.0771877,11.4174703 25.3428731,11.115863 25.3428731,10.5090147 L25.3428731,7.3475891 L21.6644167,7.3475891 L21.6644167,11.4174703 Z" id="Shape" fill="#FFFFFF" fill-rule="nonzero"></path>
                        <path d="M33.8751079,11.998526 C32.5922507,12.033932 31.9676446,11.4314776 32.0012898,10.191163 L32.0012898,1 L42.8404568,1 L42.8404568,2.08541361 L33.6211413,2.08541361 L33.6211413,10.1397137 C33.5885814,10.7587646 33.8913878,11.0525233 34.5344445,11.0176706 L43,11.0176706 L43,11.998526 L33.8751079,11.998526 Z M42.6874256,10.5048376 C40.6622043,10.023538 39.3288793,9.28333234 38.6874507,8.28422073 C38.1133123,9.21362688 36.6779665,9.95383249 34.3814133,10.5048376 L34.3814133,9.57543142 C36.1711185,9.02221347 37.2347396,8.23055859 37.5722765,7.20046677 L34.1795423,7.20046677 L34.1795423,6.16816207 L37.7757754,6.16816207 L37.7757754,4.50850823 L36.147784,4.50850823 C35.7766019,4.95661477 35.1351733,5.28356657 34.2234981,5.48936365 L34.2234981,4.65953673 C35.0005927,4.31432873 35.4732529,3.60842263 35.6414787,2.54181842 L37.106671,2.54181842 C37.0057355,2.88481355 36.9048,3.1946156 36.8038645,3.47122458 L42.0704169,3.47122458 L42.0704169,4.50352927 L39.3353913,4.50352927 L39.3353913,5.6387325 C39.3382947,5.81274646 39.3213586,5.98651519 39.2849235,6.1565445 L42.5767222,6.1565445 L42.5767222,7.18884919 L39.5486581,7.18884919 C40.1564416,8.29528509 41.2026974,9.06979021 42.6874256,9.51236457 L42.6874256,10.5048376 Z" id="Shape" fill="#FFFFFF" fill-rule="nonzero"></path>
                        <path d="M47.1111722,13 L47.1111722,4.583962 C46.7670241,4.83620121 46.3938732,5.04478514 46,5.20508522 L46,4.13174071 C47.0004123,3.33989941 47.6488938,1.98384092 47.9454446,0.0635652417 L49.4460629,0.0635652417 C49.2816449,1.03649431 48.9996321,1.98504846 48.6064312,2.88767812 L48.6064312,13 L47.1111722,13 Z M53.9479181,12.6040794 C52.689066,12.6040794 51.6701938,12.3013877 50.8913014,11.6960045 C50.3053226,12.2201277 49.6505879,12.6589843 48.9458568,13 L48.9458568,11.8703548 C49.3920439,11.6296316 49.7881803,11.3033837 50.112409,10.9096116 C49.5562274,10.1177703 49.1673767,8.7992456 48.9458568,6.95403744 L50.112409,6.95403744 C50.2459627,7.87878682 50.469778,8.78771505 50.7805414,9.66736519 C50.9383921,9.13773539 51.0131492,8.58612314 51.0020613,8.0328304 L51.0020613,5.99874267 L49.2156108,5.99874267 L49.2156108,4.86909751 C49.9799234,4.06234825 50.5669272,3.09972824 50.9377491,2.04498463 L49.4371307,2.04498463 L49.4371307,0.913523331 L52.4383675,0.913523331 L52.4383675,2.04498463 C52.0355226,3.11049237 51.4094845,4.07414704 50.6036828,4.86909751 L52.2722276,4.86909751 L52.2722276,7.75132719 C52.3079566,9.03110739 52.1043012,10.0669181 51.6612615,10.8587594 C52.2174431,11.343066 52.9951445,11.5852193 53.9943658,11.5852193 L58.8856672,11.5852193 L58.8856672,12.6022632 L53.9479181,12.6040794 Z M52.3401127,3.90290584 L52.3401127,2.88586197 L54.5624571,2.88586197 L54.5624571,1.86881811 L52.8939123,1.86881811 L52.8939123,0.908074881 L54.5606706,0.908074881 L54.5606706,0 L56.005909,0 L56.005909,0.908074881 L58.2854198,0.908074881 L58.2854198,2.88586197 L59,2.88586197 L59,3.90290584 L58.2854198,3.90290584 L58.2854198,4.24252585 C58.3211488,5.372171 57.8024827,5.91701593 56.7294215,5.87706063 L56.0148413,5.87706063 L56.0148413,6.83780386 L58.4497733,6.83780386 L58.4497733,7.85484772 L56.0041226,7.85484772 L56.0041226,8.92819223 L58.6730796,8.92819223 L58.6730796,9.9452361 L56.0041226,9.9452361 L56.0041226,11.1874825 L54.5588842,11.1874825 L54.5588842,9.9452361 L52.4472997,9.9452361 L52.4472997,8.92819223 L54.5588842,8.92819223 L54.5588842,7.86029617 L52.725986,7.86029617 L52.725986,6.84325231 L54.5588842,6.84325231 L54.5588842,5.88250908 L52.8367459,5.88250908 L52.8367459,4.92176586 L54.5588842,4.92176586 L54.5588842,3.90472199 L52.3401127,3.90290584 Z M57.0634877,1.86881811 L56.0076955,1.86881811 L56.0076955,2.88586197 L57.0634877,2.88586197 L57.0634877,1.86881811 Z M56.3971417,4.91994971 C56.8425633,4.91994971 57.0646787,4.69414175 57.0634877,4.24252585 L57.0634925,3.90290584 L56.0076955,3.90290584 L56.0076955,4.91994971 L56.3971417,4.91994971 Z" id="Shape" fill="#FFFFFF" fill-rule="nonzero"></path>
                        <path d="M8.99990178,20.246407 C9.00331589,20.4468078 8.91759782,20.6395621 8.76316196,20.7787641 C8.61246899,20.920163 8.40763857,20.9996587 8.19399999,20.9996587 C7.98036142,20.9996587 7.775531,20.920163 7.62483803,20.7787641 C7.47322423,20.6380742 7.38922105,20.4459745 7.39204388,20.246407 L7.39204388,17.2364715 C7.39392912,17.0406481 7.30810381,16.8529951 7.15530406,16.7188509 C7.00852566,16.5786236 6.80698428,16.5001588 6.59699267,16.5014872 C6.38672895,16.498474 6.18412948,16.5751357 6.03543307,16.713976 C5.88673666,16.8528163 5.80463283,17.0419868 5.80785996,17.2383135 L5.80785996,20.2371967 C5.80362064,20.655296 5.44280708,20.993829 4.99505326,20.999812 C4.7790633,21.004029 4.57098363,20.9239104 4.42095922,20.7787641 C4.27006875,20.6377673 4.18679409,20.4457059 4.1901379,20.246407 L4.1901379,17.2364715 C4.19514123,17.0397562 4.11053458,16.8502934 3.95734375,16.7151668 C3.81237789,16.5762356 3.61267061,16.4989837 3.40495085,16.5014872 C3.192956,16.4988628 2.98905782,16.5774125 2.84072096,16.7188509 C2.6909861,16.8552769 2.60757976,17.0429826 2.60989964,17.2383135 L2.60989964,20.244565 C2.60882939,20.6598266 2.24971426,20.9967821 1.80498428,20.999812 C1.58949325,21.0044188 1.38186129,20.924197 1.23286306,20.7787641 C1.08124927,20.6380742 0.997246085,20.4459745 1.00006891,20.246407 L1.00006891,17.2419976 C0.99703973,16.3580587 1.55238577,15.5555442 2.41669136,15.1948776 C3.28099695,14.834211 4.29176949,14.9831988 4.99505326,15.5749281 C5.69780716,14.9840943 6.70691559,14.8342745 7.57127947,15.192442 C8.43564335,15.5506096 8.99368954,16.3498134 8.99595611,17.2327873 L8.99990178,20.246407 Z" id="Shape" fill="#AACA13"></path>
                        <path d="M30.626251,21 C30.2826461,20.9989864 30.004063,20.7302506 30.0019566,20.397773 C30.00011,20.2347578 30.0699438,20.0786636 30.1940472,19.9684074 C30.3103553,19.8540516 30.4700663,19.7908913 30.6358555,19.7936872 L33.133033,19.7936872 C33.2957974,19.7962758 33.4521006,19.7321323 33.5633159,19.6171083 C33.7406195,19.4494685 33.7947598,19.1943492 33.7000767,18.9726659 C33.6053936,18.7509826 33.3809146,18.6072848 33.133033,18.6096791 L30.6358555,18.6096791 C30.4677259,18.6098585 30.3070503,18.5425535 30.1921263,18.4238065 C30.0691184,18.3135752 29.9994512,18.1585274 30.0000357,17.9962997 C29.9981891,17.8332846 30.0680229,17.6771904 30.1921263,17.5669341 C30.3084344,17.4525783 30.4681454,17.389418 30.6339346,17.3922139 L33.1311121,17.3922139 C33.294351,17.395436 33.4516201,17.332814 33.5652368,17.2193525 C33.6798578,17.1093703 33.7436041,16.959186 33.7419602,16.802998 C33.7424704,16.645742 33.6783999,16.4947308 33.5638435,16.3831855 C33.4492871,16.2716401 33.2936288,16.208698 33.1311121,16.2082058 L30.6339346,16.2082058 C30.2897002,16.2061886 30.0108616,15.9372037 30.0077193,15.6041201 C30.0058727,15.4411049 30.0757065,15.2850107 30.1998099,15.1747545 C30.3167471,15.0613098 30.4760395,14.998315 30.6416182,15.0000343 L33.1387957,15.0000343 C33.8724556,14.9979886 34.5384772,15.4144103 34.8380256,16.0624564 C35.1375739,16.7105025 35.0143994,17.468482 34.5237688,17.9962997 C35.1838535,18.7066842 35.1543209,19.7925967 34.4565371,20.4684045 C34.1131234,20.8129862 33.6372893,21.0041593 33.1426376,20.9962825 L30.626251,21 Z" id="Shape" fill="#AACA13"></path>
                        <path d="M21.9989632,17.4067116 C21.9962622,18.3451125 21.3369483,19.1828258 20.3464372,19.5063838 L20.3464372,20.2521992 C20.3453079,20.6639833 19.9708205,20.9978341 19.5077803,20.9998515 C19.2828632,21.003927 19.0663248,20.9239684 18.9108053,20.7794135 C18.7538484,20.6396995 18.6667407,20.4496795 18.6691234,20.2521992 L18.6691234,19.5063838 C17.6709413,19.1890618 17.0034852,18.3493997 17.0000722,17.4067116 L17.0000722,15.7901661 C16.9971424,15.5929515 17.0834884,15.4029691 17.2396885,15.2629518 C17.4801482,15.0488025 17.8420614,14.9846871 18.1564448,15.1005419 C18.4708283,15.2163968 18.6756677,15.4893689 18.6753204,15.792003 L18.6753204,17.4067116 C18.6736112,17.6013792 18.7608296,17.7883261 18.9170023,17.924741 C19.0704491,18.0638709 19.2803778,18.1422616 19.4995177,18.1422616 C19.7186576,18.1422616 19.9285863,18.0638709 20.0820331,17.924741 C20.2397676,17.7869959 20.3271181,17.5977739 20.323715,17.4012007 L20.323715,15.7828181 C20.3083565,15.5078664 20.4645628,15.2477489 20.7300521,15.1061781 C20.9955415,14.9646073 21.3271367,14.9646073 21.592626,15.1061781 C21.8581154,15.2477489 22.0143216,15.5078664 21.9989632,15.7828181 L21.9989632,17.4067116 Z" id="Shape" fill="#FFFFFF"></path>
                        <path d="M44.9999185,15.7516958 C44.9985647,16.165193 44.5527675,16.5001457 44.0024334,16.5011629 C43.7344616,16.50644 43.475978,16.4264698 43.2906477,16.2809491 C42.9718892,16.0399143 42.9081193,15.6681366 43.1351248,15.3742536 C43.3621304,15.0803707 43.8233982,14.9375452 44.2600694,15.0259293 C44.6967406,15.1143134 45.0001054,15.4119038 44.9999185,15.7516958 Z M44.9999185,20.2484985 C44.9972364,20.6618814 44.5526072,20.9967814 44.0024334,20.9998161 C43.7341449,21.0043816 43.4757246,20.9237591 43.2906477,20.7777518 C43.1024423,20.6382979 42.9983294,20.447079 43.0024853,20.2484985 L43.0024853,17.8094919 C42.9983294,17.6109114 43.1024423,17.4196924 43.2906477,17.2802386 C43.4762543,17.1360719 43.7317823,17.054672 43.998739,17.054672 C44.2656957,17.054672 44.5212237,17.1360719 44.7068303,17.2802386 C44.8973361,17.4188155 45.0033649,17.6102802 44.9999185,17.8094919 L44.9999185,20.2484985 Z" id="Shape" fill="#FFFFFF"></path>
                        <path d="M58.1261753,15.8810001 C57.2682493,15.0217079 55.9767405,14.7638778 54.8543645,15.2278328 C53.7319886,15.6917878 53,16.7860681 53,18 C53,19.2139319 53.7319886,20.3082122 54.8543645,20.7721672 C55.9767405,21.2361222 57.2682493,20.9782921 58.1261753,20.1189999 C59.2912749,18.9463051 59.2912749,17.0536949 58.1261753,15.8810001 M57.8836094,18.6162681 C57.7348786,18.76993 57.5290323,18.855039 57.3151534,18.8513013 L56.8133566,18.8513013 L56.8133566,19.3528287 C56.8275919,19.6493129 56.6774366,19.929572 56.4226465,20.0820743 C56.1678564,20.2345766 55.8497744,20.2345766 55.5949844,20.0820743 C55.3401943,19.929572 55.190039,19.6493129 55.2042742,19.3528287 L55.2042742,18.8513013 L54.7024775,18.8513013 C54.3766276,18.8501107 54.0834398,18.6532515 53.9591477,18.3521972 C53.8348556,18.0511429 53.9038302,17.7049232 54.1340215,17.474414 C54.2843698,17.3235841 54.4894754,17.2401169 54.7024775,17.2430821 L55.2042742,17.2430821 L55.2042742,16.7415547 C55.2022683,16.5276068 55.2865457,16.3218645 55.4380917,16.1707481 C55.5896376,16.0196317 55.7956837,15.9358732 56.0097413,15.9383704 C56.4531434,15.939388 56.8123385,16.2983905 56.8133566,16.7415547 L56.8133566,17.2430821 L57.3151534,17.2430821 C57.5281957,17.2399036 57.7333813,17.3234034 57.8836094,17.474414 C58.0352393,17.6257646 58.1204408,17.8311589 58.1204408,18.045341 C58.1204408,18.2595232 58.0352393,18.4649175 57.8836094,18.6162681" id="Shape" fill="#AACA13"></path>
                    </g>
                </g>
            </g>
        </g>
    </g>
</svg>